<?xml version="1.0" standalone="no"?>
<!DOCTYPE svg PUBLIC "-//W3C//DTD SVG 20010904//EN"
 "http://www.w3.org/TR/2001/REC-SVG-20010904/DTD/svg10.dtd">
<svg version="1.0" xmlns="http://www.w3.org/2000/svg"
 width="700.000000pt" height="700.000000pt" viewBox="0 0 700.000000 700.000000"
 preserveAspectRatio="xMidYMid meet">
<metadata>
Created by potrace 1.14, written by Peter Selinger 2001-2017
</metadata>
<g transform="translate(0.000000,700.000000) scale(0.100000,-0.100000)"
fill="#000000" stroke="none">
<path d="M608 6641 c-153 -49 -271 -177 -313 -338 -13 -50 -15 -398 -15 -2778
0 -2977 -4 -2785 58 -2899 60 -111 192 -208 320 -235 75 -16 5609 -16 5684 0
130 27 260 122 320 235 62 114 58 -78 58 2899 0 2380 -2 2728 -15 2778 -42
163 -161 290 -316 338 -59 18 -141 19 -2892 18 -2718 0 -2834 -1 -2889 -18z
m5716 -314 c22 -12 49 -38 60 -57 l21 -35 0 -2710 0 -2710 -21 -35 c-11 -19
-35 -45 -54 -57 l-33 -23 -2797 0 -2797 0 -33 23 c-19 12 -43 38 -54 57 l-21
35 0 2710 0 2710 21 35 c11 19 38 45 60 57 l39 23 2785 0 2785 0 39 -23z"/>
<path d="M1153 5859 c-111 -55 -113 -209 -3 -273 35 -21 41 -21 1410 -21
l1375 0 38 24 c96 59 101 188 11 257 l-37 29 -1376 3 -1376 2 -42 -21z"/>
<path d="M4775 5866 c-37 -16 -83 -68 -91 -102 -10 -38 2 -104 24 -133 46 -63
138 -83 203 -45 102 60 106 194 8 267 -34 25 -105 31 -144 13z"/>
<path d="M5245 5866 c-65 -29 -105 -107 -91 -177 27 -134 205 -165 283 -49 45
66 24 159 -48 213 -34 25 -105 31 -144 13z"/>
<path d="M5715 5864 c-44 -23 -66 -45 -81 -81 -43 -101 31 -214 140 -215 164
-3 218 220 70 292 -49 24 -89 25 -129 4z"/>
<path d="M1155 4920 c-22 -11 -50 -35 -63 -54 l-24 -35 2 -677 c1 -629 2 -681
18 -709 28 -48 77 -75 135 -75 64 0 109 28 136 84 20 41 21 56 21 604 l0 562
562 0 c548 0 563 1 604 21 44 21 76 62 88 112 16 67 -42 156 -115 177 -20 6
-286 10 -679 10 -624 0 -646 -1 -685 -20z"/>
<path d="M3325 4104 c-270 -39 -548 -143 -773 -290 -152 -99 -244 -174 -394
-323 -171 -170 -198 -214 -198 -321 0 -86 26 -141 123 -257 342 -411 762 -689
1177 -779 129 -28 437 -26 576 4 359 78 689 271 978 573 117 122 236 269 268
333 11 22 23 68 25 101 8 95 -19 152 -131 276 -305 341 -688 570 -1102 659
-79 18 -140 22 -309 25 -115 2 -223 1 -240 -1z m401 -308 c183 -58 322 -181
409 -361 104 -215 101 -447 -7 -665 -83 -166 -259 -309 -438 -355 -86 -22
-235 -23 -320 0 -228 59 -408 229 -484 456 -145 434 118 882 559 953 65 10
204 -4 281 -28z"/>
<path d="M3409 3522 c-357 -118 -391 -630 -53 -800 192 -97 435 -9 534 191 85
173 53 375 -81 509 -103 103 -267 144 -400 100z"/>
<path d="M5696 2870 c-17 -10 -40 -36 -53 -57 l-23 -38 0 -567 0 -568 -562 0
c-548 0 -563 -1 -604 -21 -44 -21 -76 -62 -88 -112 -16 -67 42 -156 115 -177
20 -6 286 -10 678 -10 632 0 646 0 687 21 24 11 53 35 64 55 21 34 22 38 20
711 -1 754 3 712 -70 760 -43 30 -122 31 -164 3z"/>
</g>
</svg>
