<svg xmlns="http://www.w3.org/2000/svg" fill="none" viewBox="0 0 616 354"><path fill="#350DF2" d="M616 0v229h-2.007V0zM550 0v229h-2.007V0zM487 0v229h-2.007V0zM424 0v229h-2.007V0zM361 0v229h-2.007V0zM109 0v229h-2.007V0zM46 101v128h-2V101zM298 101v128h-2V101zM235 101v128h-2V101zM172 101v128h-2V101z"/><path fill="#350DF2" d="M0 101h616v2H0zM0 164.25h616v2H0zM0 227.5h616v2H0z"/><path fill="#fff" d="M46 22h16v16H46zM109.1 22h16v16h-16zM172.2 22h16v16h-16zM235.3 22h16v16h-16zM298.4 22h16v16h-16zM361.5 22h16v16h-16zM424.6 22h16v16h-16zM487.7 22h16v16h-16zM550.8 22h16v16h-16zM46 85.1h16v16H46zM109.1 85.1h16v16h-16zM172.2 85.1h16v16h-16zM235.3 85.1h16v16h-16zM298.4 85.1h16v16h-16zM361.5 85.1h16v16h-16zM424.6 85.1h16v16h-16zM487.7 85.1h16v16h-16zM550.8 85.1h16v16h-16zM46 148.2h16v16H46zM109.1 148.2h16v16h-16zM172.2 148.2h16v16h-16zM235.3 148.2h16v16h-16zM298.4 148.2h16v16h-16zM361.5 148.2h16v16h-16zM424.6 148.2h16v16h-16zM487.7 148.2h16v16h-16zM550.8 148.2h16v16h-16zM46 211.3h16v16H46zM109.1 211.3h16v16h-16zM172.2 211.3h16v16h-16zM235.3 211.3h16v16h-16zM298.4 211.3h16v16h-16zM361.5 211.3h16v16h-16zM424.6 211.3h16v16h-16zM487.7 211.3h16v16h-16zM550.8 211.3h16v16h-16zM46 274.4h16v16H46zM109.1 274.4h16v16h-16zM172.2 274.4h16v16h-16zM235.3 274.4h16v16h-16zM298.4 274.4h16v16h-16zM361.5 274.4h16v16h-16zM424.6 274.4h16v16h-16zM487.7 274.4h16v16h-16zM550.8 274.4h16v16h-16zM46 337.5h16v16H46zM109.1 337.5h16v16h-16zM172.2 337.5h16v16h-16zM235.3 337.5h16v16h-16zM298.4 337.5h16v16h-16zM361.5 337.5h16v16h-16zM424.6 337.5h16v16h-16zM487.7 337.5h16v16h-16zM550.8 337.5h16v16h-16z"/></svg>