<svg xmlns="http://www.w3.org/2000/svg" fill="none" viewBox="0 0 512 272"><path fill="#fff" d="M12 16h4v4h-4zM28 16h4v4h-4zM44 16h4v4h-4zM60 16h4v4h-4zM76 16h4v4h-4zM92 16h4v4h-4zM108 16h4v4h-4zM124 16h4v4h-4zM140 16h4v4h-4zM156 16h4v4h-4zM172 16h4v4h-4zM188 16h4v4h-4zM204 16h4v4h-4zM220 16h4v4h-4zM236 16h4v4h-4zM252 16h4v4h-4zM268 16h4v4h-4zM284 16h4v4h-4zM300 16h4v4h-4zM316 16h4v4h-4zM332 16h4v4h-4zM348 16h4v4h-4zM364 16h4v4h-4zM380 16h4v4h-4zM396 16h4v4h-4zM412 16h4v4h-4zM428 16h4v4h-4zM444 16h4v4h-4zM460 16h4v4h-4zM476 16h4v4h-4zM492 16h4v4h-4zM508 16h4v4h-4zM12 32h4v4h-4zM4 40h4v4H4zM28 32h4v4h-4zM20 40h4v4h-4zM44 32h4v4h-4zM36 40h4v4h-4zM60 32h4v4h-4zM52 40h4v4h-4zM76 32h4v4h-4zM68 40h4v4h-4zM92 32h4v4h-4zM84 40h4v4h-4zM108 32h4v4h-4zM100 40h4v4h-4zM124 32h4v4h-4zM116 40h4v4h-4zM140 32h4v4h-4zM132 40h4v4h-4zM156 32h4v4h-4zM148 40h4v4h-4zM172 32h4v4h-4zM164 40h4v4h-4zM188 32h4v4h-4zM180 40h4v4h-4zM204 32h4v4h-4zM196 40h4v4h-4zM220 32h4v4h-4zM212 40h4v4h-4zM236 32h4v4h-4zM228 40h4v4h-4zM252 32h4v4h-4zM244 40h4v4h-4zM268 32h4v4h-4zM260 40h4v4h-4zM284 32h4v4h-4zM276 40h4v4h-4zM300 32h4v4h-4zM292 40h4v4h-4zM316 32h4v4h-4zM308 40h4v4h-4zM332 32h4v4h-4zM324 40h4v4h-4zM348 32h4v4h-4zM340 40h4v4h-4zM364 32h4v4h-4zM356 40h4v4h-4zM380 32h4v4h-4zM372 40h4v4h-4zM396 32h4v4h-4zM388 40h4v4h-4zM412 32h4v4h-4zM404 40h4v4h-4zM428 32h4v4h-4zM420 40h4v4h-4zM444 32h4v4h-4zM436 40h4v4h-4zM460 32h4v4h-4zM452 40h4v4h-4zM476 32h4v4h-4zM468 40h4v4h-4zM492 32h4v4h-4zM484 40h4v4h-4zM508 32h4v4h-4zM500 40h4v4h-4zM12 48h4v4h-4zM4 56h4v4H4zM12 56h4v4h-4zM28 48h4v4h-4zM20 56h4v4h-4zM28 56h4v4h-4zM44 48h4v4h-4zM36 56h4v4h-4zM44 56h4v4h-4zM60 48h4v4h-4zM52 56h4v4h-4zM60 56h4v4h-4zM76 48h4v4h-4zM68 56h4v4h-4zM76 56h4v4h-4zM92 48h4v4h-4zM84 56h4v4h-4zM92 56h4v4h-4zM108 48h4v4h-4zM100 56h4v4h-4zM108 56h4v4h-4zM124 48h4v4h-4zM116 56h4v4h-4zM124 56h4v4h-4zM140 48h4v4h-4zM132 56h4v4h-4zM140 56h4v4h-4zM156 48h4v4h-4zM148 56h4v4h-4zM156 56h4v4h-4zM172 48h4v4h-4zM164 56h4v4h-4zM172 56h4v4h-4zM188 48h4v4h-4zM180 56h4v4h-4zM188 56h4v4h-4zM204 48h4v4h-4zM196 56h4v4h-4zM204 56h4v4h-4zM220 48h4v4h-4zM212 56h4v4h-4zM220 56h4v4h-4zM236 48h4v4h-4zM228 56h4v4h-4zM236 56h4v4h-4zM252 48h4v4h-4zM244 56h4v4h-4zM252 56h4v4h-4zM268 48h4v4h-4zM260 56h4v4h-4zM268 56h4v4h-4zM284 48h4v4h-4zM276 56h4v4h-4zM284 56h4v4h-4zM300 48h4v4h-4zM292 56h4v4h-4zM300 56h4v4h-4zM316 48h4v4h-4zM308 56h4v4h-4zM316 56h4v4h-4zM332 48h4v4h-4zM324 56h4v4h-4zM332 56h4v4h-4zM348 48h4v4h-4zM340 56h4v4h-4zM348 56h4v4h-4zM364 48h4v4h-4zM356 56h4v4h-4zM364 56h4v4h-4zM380 48h4v4h-4zM372 56h4v4h-4zM380 56h4v4h-4zM396 48h4v4h-4zM388 56h4v4h-4zM396 56h4v4h-4zM412 48h4v4h-4zM404 56h4v4h-4zM412 56h4v4h-4zM428 48h4v4h-4zM420 56h4v4h-4zM428 56h4v4h-4zM444 48h4v4h-4zM436 56h4v4h-4zM444 56h4v4h-4zM460 48h4v4h-4zM452 56h4v4h-4zM460 56h4v4h-4zM476 48h4v4h-4zM468 56h4v4h-4zM476 56h4v4h-4zM492 48h4v4h-4zM484 56h4v4h-4zM492 56h4v4h-4zM508 48h4v4h-4zM500 56h4v4h-4zM508 56h4v4h-4zM4 64h4v4H4zM12 64h4v4h-4zM4 72h4v4H4zM12 72h4v4h-4zM20 64h4v4h-4zM28 64h4v4h-4zM20 72h4v4h-4zM28 72h4v4h-4zM36 64h4v4h-4zM44 64h4v4h-4zM36 72h4v4h-4zM44 72h4v4h-4zM52 64h4v4h-4zM60 64h4v4h-4zM52 72h4v4h-4zM60 72h4v4h-4zM68 64h4v4h-4zM76 64h4v4h-4zM68 72h4v4h-4zM76 72h4v4h-4zM84 64h4v4h-4zM92 64h4v4h-4zM84 72h4v4h-4zM92 72h4v4h-4zM100 64h4v4h-4zM108 64h4v4h-4zM100 72h4v4h-4zM108 72h4v4h-4zM116 64h4v4h-4zM124 64h4v4h-4zM116 72h4v4h-4zM124 72h4v4h-4zM132 64h4v4h-4zM140 64h4v4h-4zM132 72h4v4h-4zM140 72h4v4h-4zM148 64h4v4h-4zM156 64h4v4h-4zM148 72h4v4h-4zM156 72h4v4h-4zM164 64h4v4h-4zM172 64h4v4h-4zM164 72h4v4h-4zM172 72h4v4h-4zM180 64h4v4h-4zM188 64h4v4h-4zM180 72h4v4h-4zM188 72h4v4h-4zM196 64h4v4h-4zM204 64h4v4h-4zM196 72h4v4h-4zM204 72h4v4h-4zM212 64h4v4h-4zM220 64h4v4h-4zM212 72h4v4h-4zM220 72h4v4h-4zM228 64h4v4h-4zM236 64h4v4h-4zM228 72h4v4h-4zM236 72h4v4h-4zM244 64h4v4h-4zM252 64h4v4h-4zM244 72h4v4h-4zM252 72h4v4h-4zM260 64h4v4h-4zM268 64h4v4h-4zM260 72h4v4h-4zM268 72h4v4h-4zM276 64h4v4h-4zM284 64h4v4h-4zM276 72h4v4h-4zM284 72h4v4h-4zM292 64h4v4h-4zM300 64h4v4h-4zM292 72h4v4h-4zM300 72h4v4h-4zM308 64h4v4h-4zM316 64h4v4h-4zM308 72h4v4h-4zM316 72h4v4h-4zM324 64h4v4h-4zM332 64h4v4h-4zM324 72h4v4h-4zM332 72h4v4h-4zM340 64h4v4h-4zM348 64h4v4h-4zM340 72h4v4h-4zM348 72h4v4h-4zM356 64h4v4h-4zM364 64h4v4h-4zM356 72h4v4h-4zM364 72h4v4h-4zM372 64h4v4h-4zM380 64h4v4h-4zM372 72h4v4h-4zM380 72h4v4h-4zM388 64h4v4h-4zM396 64h4v4h-4zM388 72h4v4h-4zM396 72h4v4h-4zM404 64h4v4h-4zM412 64h4v4h-4zM404 72h4v4h-4zM412 72h4v4h-4zM420 64h4v4h-4zM428 64h4v4h-4zM420 72h4v4h-4zM428 72h4v4h-4zM436 64h4v4h-4zM444 64h4v4h-4zM436 72h4v4h-4zM444 72h4v4h-4zM452 64h4v4h-4zM460 64h4v4h-4zM452 72h4v4h-4zM460 72h4v4h-4zM468 64h4v4h-4zM476 64h4v4h-4zM468 72h4v4h-4zM476 72h4v4h-4zM484 64h4v4h-4zM492 64h4v4h-4zM484 72h4v4h-4zM492 72h4v4h-4zM500 64h4v4h-4zM508 64h4v4h-4zM500 72h4v4h-4zM508 72h4v4h-4zM4 80h4v4H4zM12 80h4v4h-4zM4 88h4v4H4zM12 88h4v4h-4zM8 92h4v4H8zM20 80h4v4h-4zM28 80h4v4h-4zM20 88h4v4h-4zM28 88h4v4h-4zM24 92h4v4h-4zM36 80h4v4h-4zM44 80h4v4h-4zM36 88h4v4h-4zM44 88h4v4h-4zM40 92h4v4h-4zM52 80h4v4h-4zM60 80h4v4h-4zM52 88h4v4h-4zM60 88h4v4h-4zM56 92h4v4h-4zM68 80h4v4h-4zM76 80h4v4h-4zM68 88h4v4h-4zM76 88h4v4h-4zM72 92h4v4h-4zM84 80h4v4h-4zM92 80h4v4h-4zM84 88h4v4h-4zM92 88h4v4h-4zM88 92h4v4h-4zM100 80h4v4h-4zM108 80h4v4h-4zM100 88h4v4h-4zM108 88h4v4h-4zM104 92h4v4h-4zM116 80h4v4h-4zM124 80h4v4h-4zM116 88h4v4h-4zM124 88h4v4h-4zM120 92h4v4h-4zM132 80h4v4h-4zM140 80h4v4h-4zM132 88h4v4h-4zM140 88h4v4h-4zM136 92h4v4h-4zM148 80h4v4h-4zM156 80h4v4h-4zM148 88h4v4h-4zM156 88h4v4h-4zM152 92h4v4h-4zM164 80h4v4h-4zM172 80h4v4h-4zM164 88h4v4h-4zM172 88h4v4h-4zM168 92h4v4h-4zM180 80h4v4h-4zM188 80h4v4h-4zM180 88h4v4h-4zM188 88h4v4h-4zM184 92h4v4h-4zM196 80h4v4h-4zM204 80h4v4h-4zM196 88h4v4h-4zM204 88h4v4h-4zM200 92h4v4h-4zM212 80h4v4h-4zM220 80h4v4h-4zM212 88h4v4h-4zM220 88h4v4h-4zM216 92h4v4h-4zM228 80h4v4h-4zM236 80h4v4h-4zM228 88h4v4h-4zM236 88h4v4h-4zM232 92h4v4h-4zM244 80h4v4h-4zM252 80h4v4h-4zM244 88h4v4h-4zM252 88h4v4h-4zM248 92h4v4h-4zM260 80h4v4h-4zM268 80h4v4h-4zM260 88h4v4h-4zM268 88h4v4h-4zM264 92h4v4h-4zM276 80h4v4h-4zM284 80h4v4h-4zM276 88h4v4h-4zM284 88h4v4h-4zM280 92h4v4h-4zM292 80h4v4h-4zM300 80h4v4h-4zM292 88h4v4h-4zM300 88h4v4h-4zM296 92h4v4h-4zM308 80h4v4h-4zM316 80h4v4h-4zM308 88h4v4h-4zM316 88h4v4h-4zM312 92h4v4h-4zM324 80h4v4h-4zM332 80h4v4h-4zM324 88h4v4h-4zM332 88h4v4h-4zM328 92h4v4h-4zM340 80h4v4h-4zM348 80h4v4h-4zM340 88h4v4h-4zM348 88h4v4h-4zM344 92h4v4h-4zM356 80h4v4h-4zM364 80h4v4h-4zM356 88h4v4h-4zM364 88h4v4h-4zM360 92h4v4h-4zM372 80h4v4h-4zM380 80h4v4h-4zM372 88h4v4h-4zM380 88h4v4h-4zM376 92h4v4h-4zM388 80h4v4h-4zM396 80h4v4h-4zM388 88h4v4h-4zM396 88h4v4h-4zM392 92h4v4h-4zM404 80h4v4h-4zM412 80h4v4h-4zM404 88h4v4h-4zM412 88h4v4h-4zM408 92h4v4h-4zM420 80h4v4h-4zM428 80h4v4h-4zM420 88h4v4h-4zM428 88h4v4h-4zM424 92h4v4h-4zM436 80h4v4h-4zM444 80h4v4h-4zM436 88h4v4h-4zM444 88h4v4h-4zM440 92h4v4h-4zM452 80h4v4h-4zM460 80h4v4h-4zM452 88h4v4h-4zM460 88h4v4h-4zM456 92h4v4h-4zM468 80h4v4h-4zM476 80h4v4h-4zM468 88h4v4h-4zM476 88h4v4h-4zM472 92h4v4h-4zM484 80h4v4h-4zM492 80h4v4h-4zM484 88h4v4h-4zM492 88h4v4h-4zM488 92h4v4h-4zM500 80h4v4h-4zM508 80h4v4h-4zM500 88h4v4h-4zM508 88h4v4h-4zM504 92h4v4h-4zM4 96h4v4H4zM12 96h4v4h-4zM0 100h4v4H0zM4 104h4v4H4zM12 104h4v4h-4zM8 108h4v4H8zM20 96h4v4h-4zM28 96h4v4h-4zM16 100h4v4h-4zM20 104h4v4h-4zM28 104h4v4h-4zM24 108h4v4h-4zM36 96h4v4h-4zM44 96h4v4h-4zM32 100h4v4h-4zM36 104h4v4h-4zM44 104h4v4h-4zM40 108h4v4h-4zM52 96h4v4h-4zM60 96h4v4h-4zM48 100h4v4h-4zM52 104h4v4h-4zM60 104h4v4h-4zM56 108h4v4h-4zM68 96h4v4h-4zM76 96h4v4h-4zM64 100h4v4h-4zM68 104h4v4h-4zM76 104h4v4h-4zM72 108h4v4h-4zM84 96h4v4h-4zM92 96h4v4h-4zM80 100h4v4h-4zM84 104h4v4h-4zM92 104h4v4h-4zM88 108h4v4h-4zM100 96h4v4h-4zM108 96h4v4h-4zM96 100h4v4h-4zM100 104h4v4h-4zM108 104h4v4h-4zM104 108h4v4h-4zM116 96h4v4h-4zM124 96h4v4h-4zM112 100h4v4h-4zM116 104h4v4h-4zM124 104h4v4h-4zM120 108h4v4h-4zM132 96h4v4h-4zM140 96h4v4h-4zM128 100h4v4h-4zM132 104h4v4h-4zM140 104h4v4h-4zM136 108h4v4h-4zM148 96h4v4h-4zM156 96h4v4h-4zM144 100h4v4h-4zM148 104h4v4h-4zM156 104h4v4h-4zM152 108h4v4h-4zM164 96h4v4h-4zM172 96h4v4h-4zM160 100h4v4h-4zM164 104h4v4h-4zM172 104h4v4h-4zM168 108h4v4h-4zM180 96h4v4h-4zM188 96h4v4h-4zM176 100h4v4h-4zM180 104h4v4h-4zM188 104h4v4h-4zM184 108h4v4h-4zM196 96h4v4h-4zM204 96h4v4h-4zM192 100h4v4h-4zM196 104h4v4h-4zM204 104h4v4h-4zM200 108h4v4h-4zM212 96h4v4h-4zM220 96h4v4h-4zM208 100h4v4h-4zM212 104h4v4h-4zM220 104h4v4h-4zM216 108h4v4h-4zM228 96h4v4h-4zM236 96h4v4h-4zM224 100h4v4h-4zM228 104h4v4h-4zM236 104h4v4h-4zM232 108h4v4h-4zM244 96h4v4h-4zM252 96h4v4h-4zM240 100h4v4h-4zM244 104h4v4h-4zM252 104h4v4h-4zM248 108h4v4h-4zM260 96h4v4h-4zM268 96h4v4h-4zM256 100h4v4h-4zM260 104h4v4h-4zM268 104h4v4h-4zM264 108h4v4h-4zM276 96h4v4h-4zM284 96h4v4h-4zM272 100h4v4h-4zM276 104h4v4h-4zM284 104h4v4h-4zM280 108h4v4h-4zM292 96h4v4h-4zM300 96h4v4h-4zM288 100h4v4h-4zM292 104h4v4h-4zM300 104h4v4h-4zM296 108h4v4h-4zM308 96h4v4h-4zM316 96h4v4h-4zM304 100h4v4h-4zM308 104h4v4h-4zM316 104h4v4h-4zM312 108h4v4h-4zM324 96h4v4h-4zM332 96h4v4h-4zM320 100h4v4h-4zM324 104h4v4h-4zM332 104h4v4h-4zM328 108h4v4h-4zM340 96h4v4h-4zM348 96h4v4h-4zM336 100h4v4h-4zM340 104h4v4h-4zM348 104h4v4h-4zM344 108h4v4h-4zM356 96h4v4h-4zM364 96h4v4h-4zM352 100h4v4h-4zM356 104h4v4h-4zM364 104h4v4h-4zM360 108h4v4h-4zM372 96h4v4h-4zM380 96h4v4h-4zM368 100h4v4h-4zM372 104h4v4h-4zM380 104h4v4h-4zM376 108h4v4h-4zM388 96h4v4h-4zM396 96h4v4h-4zM384 100h4v4h-4zM388 104h4v4h-4zM396 104h4v4h-4zM392 108h4v4h-4zM404 96h4v4h-4zM412 96h4v4h-4zM400 100h4v4h-4zM404 104h4v4h-4zM412 104h4v4h-4zM408 108h4v4h-4zM420 96h4v4h-4zM428 96h4v4h-4zM416 100h4v4h-4zM420 104h4v4h-4zM428 104h4v4h-4zM424 108h4v4h-4zM436 96h4v4h-4zM444 96h4v4h-4zM432 100h4v4h-4zM436 104h4v4h-4zM444 104h4v4h-4zM440 108h4v4h-4zM452 96h4v4h-4zM460 96h4v4h-4zM448 100h4v4h-4zM452 104h4v4h-4zM460 104h4v4h-4zM456 108h4v4h-4zM468 96h4v4h-4zM476 96h4v4h-4zM464 100h4v4h-4zM468 104h4v4h-4zM476 104h4v4h-4zM472 108h4v4h-4zM484 96h4v4h-4zM492 96h4v4h-4zM480 100h4v4h-4zM484 104h4v4h-4zM492 104h4v4h-4zM488 108h4v4h-4zM500 96h4v4h-4zM508 96h4v4h-4zM496 100h4v4h-4zM500 104h4v4h-4zM508 104h4v4h-4zM504 108h4v4h-4zM4 112h4v4H4zM12 112h4v4h-4zM0 116h4v4H0zM8 116h4v4H8zM4 120h4v4H4zM12 120h4v4h-4zM8 124h4v4H8zM20 112h4v4h-4zM28 112h4v4h-4zM16 116h4v4h-4zM24 116h4v4h-4zM20 120h4v4h-4zM28 120h4v4h-4zM24 124h4v4h-4zM36 112h4v4h-4zM44 112h4v4h-4zM32 116h4v4h-4zM40 116h4v4h-4zM36 120h4v4h-4zM44 120h4v4h-4zM40 124h4v4h-4zM52 112h4v4h-4zM60 112h4v4h-4zM48 116h4v4h-4zM56 116h4v4h-4zM52 120h4v4h-4zM60 120h4v4h-4zM56 124h4v4h-4zM68 112h4v4h-4zM76 112h4v4h-4zM64 116h4v4h-4zM72 116h4v4h-4zM68 120h4v4h-4zM76 120h4v4h-4zM72 124h4v4h-4zM84 112h4v4h-4zM92 112h4v4h-4zM80 116h4v4h-4zM88 116h4v4h-4zM84 120h4v4h-4zM92 120h4v4h-4zM88 124h4v4h-4zM100 112h4v4h-4zM108 112h4v4h-4zM96 116h4v4h-4zM104 116h4v4h-4zM100 120h4v4h-4zM108 120h4v4h-4zM104 124h4v4h-4zM116 112h4v4h-4zM124 112h4v4h-4zM112 116h4v4h-4zM120 116h4v4h-4zM116 120h4v4h-4zM124 120h4v4h-4zM120 124h4v4h-4zM132 112h4v4h-4zM140 112h4v4h-4zM128 116h4v4h-4zM136 116h4v4h-4zM132 120h4v4h-4zM140 120h4v4h-4zM136 124h4v4h-4zM148 112h4v4h-4zM156 112h4v4h-4zM144 116h4v4h-4zM152 116h4v4h-4zM148 120h4v4h-4zM156 120h4v4h-4zM152 124h4v4h-4zM164 112h4v4h-4zM172 112h4v4h-4zM160 116h4v4h-4zM168 116h4v4h-4zM164 120h4v4h-4zM172 120h4v4h-4zM168 124h4v4h-4zM180 112h4v4h-4zM188 112h4v4h-4zM176 116h4v4h-4zM184 116h4v4h-4zM180 120h4v4h-4zM188 120h4v4h-4zM184 124h4v4h-4zM196 112h4v4h-4zM204 112h4v4h-4zM192 116h4v4h-4zM200 116h4v4h-4zM196 120h4v4h-4zM204 120h4v4h-4zM200 124h4v4h-4zM212 112h4v4h-4zM220 112h4v4h-4zM208 116h4v4h-4zM216 116h4v4h-4zM212 120h4v4h-4zM220 120h4v4h-4zM216 124h4v4h-4zM228 112h4v4h-4zM236 112h4v4h-4zM224 116h4v4h-4zM232 116h4v4h-4zM228 120h4v4h-4zM236 120h4v4h-4zM232 124h4v4h-4zM244 112h4v4h-4zM252 112h4v4h-4zM240 116h4v4h-4zM248 116h4v4h-4zM244 120h4v4h-4zM252 120h4v4h-4zM248 124h4v4h-4zM260 112h4v4h-4zM268 112h4v4h-4zM256 116h4v4h-4zM264 116h4v4h-4zM260 120h4v4h-4zM268 120h4v4h-4zM264 124h4v4h-4zM276 112h4v4h-4zM284 112h4v4h-4zM272 116h4v4h-4zM280 116h4v4h-4zM276 120h4v4h-4zM284 120h4v4h-4zM280 124h4v4h-4zM292 112h4v4h-4zM300 112h4v4h-4zM288 116h4v4h-4zM296 116h4v4h-4zM292 120h4v4h-4zM300 120h4v4h-4zM296 124h4v4h-4zM308 112h4v4h-4zM316 112h4v4h-4zM304 116h4v4h-4zM312 116h4v4h-4zM308 120h4v4h-4zM316 120h4v4h-4zM312 124h4v4h-4zM324 112h4v4h-4zM332 112h4v4h-4zM320 116h4v4h-4zM328 116h4v4h-4zM324 120h4v4h-4zM332 120h4v4h-4zM328 124h4v4h-4zM340 112h4v4h-4zM348 112h4v4h-4zM336 116h4v4h-4zM344 116h4v4h-4zM340 120h4v4h-4zM348 120h4v4h-4zM344 124h4v4h-4zM356 112h4v4h-4zM364 112h4v4h-4zM352 116h4v4h-4zM360 116h4v4h-4zM356 120h4v4h-4zM364 120h4v4h-4zM360 124h4v4h-4zM372 112h4v4h-4zM380 112h4v4h-4zM368 116h4v4h-4zM376 116h4v4h-4zM372 120h4v4h-4zM380 120h4v4h-4zM376 124h4v4h-4zM388 112h4v4h-4zM396 112h4v4h-4zM384 116h4v4h-4zM392 116h4v4h-4zM388 120h4v4h-4zM396 120h4v4h-4zM392 124h4v4h-4zM404 112h4v4h-4zM412 112h4v4h-4zM400 116h4v4h-4zM408 116h4v4h-4zM404 120h4v4h-4zM412 120h4v4h-4zM408 124h4v4h-4zM420 112h4v4h-4zM428 112h4v4h-4zM416 116h4v4h-4zM424 116h4v4h-4zM420 120h4v4h-4zM428 120h4v4h-4zM424 124h4v4h-4zM436 112h4v4h-4zM444 112h4v4h-4zM432 116h4v4h-4zM440 116h4v4h-4zM436 120h4v4h-4zM444 120h4v4h-4zM440 124h4v4h-4zM452 112h4v4h-4zM460 112h4v4h-4zM448 116h4v4h-4zM456 116h4v4h-4zM452 120h4v4h-4zM460 120h4v4h-4zM456 124h4v4h-4zM468 112h4v4h-4zM476 112h4v4h-4zM464 116h4v4h-4zM472 116h4v4h-4zM468 120h4v4h-4zM476 120h4v4h-4zM472 124h4v4h-4zM484 112h4v4h-4zM492 112h4v4h-4zM480 116h4v4h-4zM488 116h4v4h-4zM484 120h4v4h-4zM492 120h4v4h-4zM488 124h4v4h-4zM500 112h4v4h-4zM508 112h4v4h-4zM496 116h4v4h-4zM504 116h4v4h-4zM500 120h4v4h-4zM508 120h4v4h-4zM504 124h4v4h-4zM4 128h4v4H4zM12 128h4v4h-4zM0 132h4v4H0zM8 132h4v4H8zM4 136h4v4H4zM12 136h4v4h-4zM0 140h4v4H0zM8 140h4v4H8zM20 128h4v4h-4zM28 128h4v4h-4zM16 132h4v4h-4zM24 132h4v4h-4zM20 136h4v4h-4zM28 136h4v4h-4zM16 140h4v4h-4zM24 140h4v4h-4zM36 128h4v4h-4zM44 128h4v4h-4zM32 132h4v4h-4zM40 132h4v4h-4zM36 136h4v4h-4zM44 136h4v4h-4zM32 140h4v4h-4zM40 140h4v4h-4zM52 128h4v4h-4zM60 128h4v4h-4zM48 132h4v4h-4zM56 132h4v4h-4zM52 136h4v4h-4zM60 136h4v4h-4zM48 140h4v4h-4zM56 140h4v4h-4zM68 128h4v4h-4zM76 128h4v4h-4zM64 132h4v4h-4zM72 132h4v4h-4zM68 136h4v4h-4zM76 136h4v4h-4zM64 140h4v4h-4zM72 140h4v4h-4zM84 128h4v4h-4zM92 128h4v4h-4zM80 132h4v4h-4zM88 132h4v4h-4zM84 136h4v4h-4zM92 136h4v4h-4zM80 140h4v4h-4zM88 140h4v4h-4zM100 128h4v4h-4zM108 128h4v4h-4zM96 132h4v4h-4zM104 132h4v4h-4zM100 136h4v4h-4zM108 136h4v4h-4zM96 140h4v4h-4zM104 140h4v4h-4zM116 128h4v4h-4zM124 128h4v4h-4zM112 132h4v4h-4zM120 132h4v4h-4zM116 136h4v4h-4zM124 136h4v4h-4zM112 140h4v4h-4zM120 140h4v4h-4zM132 128h4v4h-4zM140 128h4v4h-4zM128 132h4v4h-4zM136 132h4v4h-4zM132 136h4v4h-4zM140 136h4v4h-4zM128 140h4v4h-4zM136 140h4v4h-4zM148 128h4v4h-4zM156 128h4v4h-4zM144 132h4v4h-4zM152 132h4v4h-4zM148 136h4v4h-4zM156 136h4v4h-4zM144 140h4v4h-4zM152 140h4v4h-4zM164 128h4v4h-4zM172 128h4v4h-4zM160 132h4v4h-4zM168 132h4v4h-4zM164 136h4v4h-4zM172 136h4v4h-4zM160 140h4v4h-4zM168 140h4v4h-4zM180 128h4v4h-4zM188 128h4v4h-4zM176 132h4v4h-4zM184 132h4v4h-4zM180 136h4v4h-4zM188 136h4v4h-4zM176 140h4v4h-4zM184 140h4v4h-4zM196 128h4v4h-4zM204 128h4v4h-4zM192 132h4v4h-4zM200 132h4v4h-4zM196 136h4v4h-4zM204 136h4v4h-4zM192 140h4v4h-4zM200 140h4v4h-4zM212 128h4v4h-4zM220 128h4v4h-4zM208 132h4v4h-4zM216 132h4v4h-4zM212 136h4v4h-4zM220 136h4v4h-4zM208 140h4v4h-4zM216 140h4v4h-4zM228 128h4v4h-4zM236 128h4v4h-4zM224 132h4v4h-4zM232 132h4v4h-4zM228 136h4v4h-4zM236 136h4v4h-4zM224 140h4v4h-4zM232 140h4v4h-4zM244 128h4v4h-4zM252 128h4v4h-4zM240 132h4v4h-4zM248 132h4v4h-4zM244 136h4v4h-4zM252 136h4v4h-4zM240 140h4v4h-4zM248 140h4v4h-4zM260 128h4v4h-4zM268 128h4v4h-4zM256 132h4v4h-4zM264 132h4v4h-4zM260 136h4v4h-4zM268 136h4v4h-4zM256 140h4v4h-4zM264 140h4v4h-4zM276 128h4v4h-4zM284 128h4v4h-4zM272 132h4v4h-4zM280 132h4v4h-4zM276 136h4v4h-4zM284 136h4v4h-4zM272 140h4v4h-4zM280 140h4v4h-4zM292 128h4v4h-4zM300 128h4v4h-4zM288 132h4v4h-4zM296 132h4v4h-4zM292 136h4v4h-4zM300 136h4v4h-4zM288 140h4v4h-4zM296 140h4v4h-4zM308 128h4v4h-4zM316 128h4v4h-4zM304 132h4v4h-4zM312 132h4v4h-4zM308 136h4v4h-4zM316 136h4v4h-4zM304 140h4v4h-4zM312 140h4v4h-4zM324 128h4v4h-4zM332 128h4v4h-4zM320 132h4v4h-4zM328 132h4v4h-4zM324 136h4v4h-4zM332 136h4v4h-4zM320 140h4v4h-4zM328 140h4v4h-4zM340 128h4v4h-4zM348 128h4v4h-4zM336 132h4v4h-4zM344 132h4v4h-4zM340 136h4v4h-4zM348 136h4v4h-4zM336 140h4v4h-4zM344 140h4v4h-4zM356 128h4v4h-4zM364 128h4v4h-4zM352 132h4v4h-4zM360 132h4v4h-4zM356 136h4v4h-4zM364 136h4v4h-4zM352 140h4v4h-4zM360 140h4v4h-4zM372 128h4v4h-4zM380 128h4v4h-4zM368 132h4v4h-4zM376 132h4v4h-4zM372 136h4v4h-4zM380 136h4v4h-4zM368 140h4v4h-4zM376 140h4v4h-4zM388 128h4v4h-4zM396 128h4v4h-4zM384 132h4v4h-4zM392 132h4v4h-4zM388 136h4v4h-4zM396 136h4v4h-4zM384 140h4v4h-4zM392 140h4v4h-4zM404 128h4v4h-4zM412 128h4v4h-4zM400 132h4v4h-4zM408 132h4v4h-4zM404 136h4v4h-4zM412 136h4v4h-4zM400 140h4v4h-4zM408 140h4v4h-4zM420 128h4v4h-4zM428 128h4v4h-4zM416 132h4v4h-4zM424 132h4v4h-4zM420 136h4v4h-4zM428 136h4v4h-4zM416 140h4v4h-4zM424 140h4v4h-4zM436 128h4v4h-4zM444 128h4v4h-4zM432 132h4v4h-4zM440 132h4v4h-4zM436 136h4v4h-4zM444 136h4v4h-4zM432 140h4v4h-4zM440 140h4v4h-4zM452 128h4v4h-4zM460 128h4v4h-4zM448 132h4v4h-4zM456 132h4v4h-4zM452 136h4v4h-4zM460 136h4v4h-4zM448 140h4v4h-4zM456 140h4v4h-4zM468 128h4v4h-4zM476 128h4v4h-4zM464 132h4v4h-4zM472 132h4v4h-4zM468 136h4v4h-4zM476 136h4v4h-4zM464 140h4v4h-4zM472 140h4v4h-4zM484 128h4v4h-4zM492 128h4v4h-4zM480 132h4v4h-4zM488 132h4v4h-4zM484 136h4v4h-4zM492 136h4v4h-4zM480 140h4v4h-4zM488 140h4v4h-4zM500 128h4v4h-4zM508 128h4v4h-4zM496 132h4v4h-4zM504 132h4v4h-4zM500 136h4v4h-4zM508 136h4v4h-4zM496 140h4v4h-4zM504 140h4v4h-4zM4 144h4v4H4zM12 144h4v4h-4zM0 148h4v4H0zM8 148h4v4H8zM4 152h4v4H4zM12 152h4v4h-4zM0 156h4v4H0zM8 156h4v4H8zM12 156h4v4h-4zM20 144h4v4h-4zM28 144h4v4h-4zM16 148h4v4h-4zM24 148h4v4h-4zM20 152h4v4h-4zM28 152h4v4h-4zM16 156h4v4h-4zM24 156h4v4h-4zM28 156h4v4h-4zM36 144h4v4h-4zM44 144h4v4h-4zM32 148h4v4h-4zM40 148h4v4h-4zM36 152h4v4h-4zM44 152h4v4h-4zM32 156h4v4h-4zM40 156h4v4h-4zM44 156h4v4h-4zM52 144h4v4h-4zM60 144h4v4h-4zM48 148h4v4h-4zM56 148h4v4h-4zM52 152h4v4h-4zM60 152h4v4h-4zM48 156h4v4h-4zM56 156h4v4h-4zM60 156h4v4h-4zM68 144h4v4h-4zM76 144h4v4h-4zM64 148h4v4h-4zM72 148h4v4h-4zM68 152h4v4h-4zM76 152h4v4h-4zM64 156h4v4h-4zM72 156h4v4h-4zM76 156h4v4h-4zM84 144h4v4h-4zM92 144h4v4h-4zM80 148h4v4h-4zM88 148h4v4h-4zM84 152h4v4h-4zM92 152h4v4h-4zM80 156h4v4h-4zM88 156h4v4h-4zM92 156h4v4h-4zM100 144h4v4h-4zM108 144h4v4h-4zM96 148h4v4h-4zM104 148h4v4h-4zM100 152h4v4h-4zM108 152h4v4h-4zM96 156h4v4h-4zM104 156h4v4h-4zM108 156h4v4h-4zM116 144h4v4h-4zM124 144h4v4h-4zM112 148h4v4h-4zM120 148h4v4h-4zM116 152h4v4h-4zM124 152h4v4h-4zM112 156h4v4h-4zM120 156h4v4h-4zM124 156h4v4h-4zM132 144h4v4h-4zM140 144h4v4h-4zM128 148h4v4h-4zM136 148h4v4h-4zM132 152h4v4h-4zM140 152h4v4h-4zM128 156h4v4h-4zM136 156h4v4h-4zM140 156h4v4h-4zM148 144h4v4h-4zM156 144h4v4h-4zM144 148h4v4h-4zM152 148h4v4h-4zM148 152h4v4h-4zM156 152h4v4h-4zM144 156h4v4h-4zM152 156h4v4h-4zM156 156h4v4h-4zM164 144h4v4h-4zM172 144h4v4h-4zM160 148h4v4h-4zM168 148h4v4h-4zM164 152h4v4h-4zM172 152h4v4h-4zM160 156h4v4h-4zM168 156h4v4h-4zM172 156h4v4h-4zM180 144h4v4h-4zM188 144h4v4h-4zM176 148h4v4h-4zM184 148h4v4h-4zM180 152h4v4h-4zM188 152h4v4h-4zM176 156h4v4h-4zM184 156h4v4h-4zM188 156h4v4h-4zM196 144h4v4h-4zM204 144h4v4h-4zM192 148h4v4h-4zM200 148h4v4h-4zM196 152h4v4h-4zM204 152h4v4h-4zM192 156h4v4h-4zM200 156h4v4h-4zM204 156h4v4h-4zM212 144h4v4h-4zM220 144h4v4h-4zM208 148h4v4h-4zM216 148h4v4h-4zM212 152h4v4h-4zM220 152h4v4h-4zM208 156h4v4h-4zM216 156h4v4h-4zM220 156h4v4h-4zM228 144h4v4h-4zM236 144h4v4h-4zM224 148h4v4h-4zM232 148h4v4h-4zM228 152h4v4h-4zM236 152h4v4h-4zM224 156h4v4h-4zM232 156h4v4h-4zM236 156h4v4h-4zM244 144h4v4h-4zM252 144h4v4h-4zM240 148h4v4h-4zM248 148h4v4h-4zM244 152h4v4h-4zM252 152h4v4h-4zM240 156h4v4h-4zM248 156h4v4h-4zM252 156h4v4h-4zM260 144h4v4h-4zM268 144h4v4h-4zM256 148h4v4h-4zM264 148h4v4h-4zM260 152h4v4h-4zM268 152h4v4h-4zM256 156h4v4h-4zM264 156h4v4h-4zM268 156h4v4h-4zM276 144h4v4h-4zM284 144h4v4h-4zM272 148h4v4h-4zM280 148h4v4h-4zM276 152h4v4h-4zM284 152h4v4h-4zM272 156h4v4h-4zM280 156h4v4h-4zM284 156h4v4h-4zM292 144h4v4h-4zM300 144h4v4h-4zM288 148h4v4h-4zM296 148h4v4h-4zM292 152h4v4h-4zM300 152h4v4h-4zM288 156h4v4h-4zM296 156h4v4h-4zM300 156h4v4h-4zM308 144h4v4h-4zM316 144h4v4h-4zM304 148h4v4h-4zM312 148h4v4h-4zM308 152h4v4h-4zM316 152h4v4h-4zM304 156h4v4h-4zM312 156h4v4h-4zM316 156h4v4h-4zM324 144h4v4h-4zM332 144h4v4h-4zM320 148h4v4h-4zM328 148h4v4h-4zM324 152h4v4h-4zM332 152h4v4h-4zM320 156h4v4h-4zM328 156h4v4h-4zM332 156h4v4h-4zM340 144h4v4h-4zM348 144h4v4h-4zM336 148h4v4h-4zM344 148h4v4h-4zM340 152h4v4h-4zM348 152h4v4h-4zM336 156h4v4h-4zM344 156h4v4h-4zM348 156h4v4h-4zM356 144h4v4h-4zM364 144h4v4h-4zM352 148h4v4h-4zM360 148h4v4h-4zM356 152h4v4h-4zM364 152h4v4h-4zM352 156h4v4h-4zM360 156h4v4h-4zM364 156h4v4h-4zM372 144h4v4h-4zM380 144h4v4h-4zM368 148h4v4h-4zM376 148h4v4h-4zM372 152h4v4h-4zM380 152h4v4h-4zM368 156h4v4h-4zM376 156h4v4h-4zM380 156h4v4h-4zM388 144h4v4h-4zM396 144h4v4h-4zM384 148h4v4h-4zM392 148h4v4h-4zM388 152h4v4h-4zM396 152h4v4h-4zM384 156h4v4h-4zM392 156h4v4h-4zM396 156h4v4h-4zM404 144h4v4h-4zM412 144h4v4h-4zM400 148h4v4h-4zM408 148h4v4h-4zM404 152h4v4h-4zM412 152h4v4h-4zM400 156h4v4h-4zM408 156h4v4h-4zM412 156h4v4h-4zM420 144h4v4h-4zM428 144h4v4h-4zM416 148h4v4h-4zM424 148h4v4h-4zM420 152h4v4h-4zM428 152h4v4h-4zM416 156h4v4h-4zM424 156h4v4h-4zM428 156h4v4h-4zM436 144h4v4h-4zM444 144h4v4h-4zM432 148h4v4h-4zM440 148h4v4h-4zM436 152h4v4h-4zM444 152h4v4h-4zM432 156h4v4h-4zM440 156h4v4h-4zM444 156h4v4h-4zM452 144h4v4h-4zM460 144h4v4h-4zM448 148h4v4h-4zM456 148h4v4h-4zM452 152h4v4h-4zM460 152h4v4h-4zM448 156h4v4h-4zM456 156h4v4h-4zM460 156h4v4h-4zM468 144h4v4h-4zM476 144h4v4h-4zM464 148h4v4h-4zM472 148h4v4h-4zM468 152h4v4h-4zM476 152h4v4h-4zM464 156h4v4h-4zM472 156h4v4h-4zM476 156h4v4h-4zM484 144h4v4h-4zM492 144h4v4h-4zM480 148h4v4h-4zM488 148h4v4h-4zM484 152h4v4h-4zM492 152h4v4h-4zM480 156h4v4h-4zM488 156h4v4h-4zM492 156h4v4h-4zM500 144h4v4h-4zM508 144h4v4h-4zM496 148h4v4h-4zM504 148h4v4h-4zM500 152h4v4h-4zM508 152h4v4h-4zM496 156h4v4h-4zM504 156h4v4h-4zM508 156h4v4h-4zM4 160h4v4H4zM12 160h4v4h-4zM0 164h4v4H0zM4 164h4v4H4zM8 164h4v4H8zM4 168h4v4H4zM12 168h4v4h-4zM0 172h4v4H0zM8 172h4v4H8zM12 172h4v4h-4zM20 160h4v4h-4zM28 160h4v4h-4zM16 164h4v4h-4zM20 164h4v4h-4zM24 164h4v4h-4zM20 168h4v4h-4zM28 168h4v4h-4zM16 172h4v4h-4zM24 172h4v4h-4zM28 172h4v4h-4zM36 160h4v4h-4zM44 160h4v4h-4zM32 164h4v4h-4zM36 164h4v4h-4zM40 164h4v4h-4zM36 168h4v4h-4zM44 168h4v4h-4zM32 172h4v4h-4zM40 172h4v4h-4zM44 172h4v4h-4zM52 160h4v4h-4zM60 160h4v4h-4zM48 164h4v4h-4zM52 164h4v4h-4zM56 164h4v4h-4zM52 168h4v4h-4zM60 168h4v4h-4zM48 172h4v4h-4zM56 172h4v4h-4zM60 172h4v4h-4zM68 160h4v4h-4zM76 160h4v4h-4zM64 164h4v4h-4zM68 164h4v4h-4zM72 164h4v4h-4zM68 168h4v4h-4zM76 168h4v4h-4zM64 172h4v4h-4zM72 172h4v4h-4zM76 172h4v4h-4zM84 160h4v4h-4zM92 160h4v4h-4zM80 164h4v4h-4zM84 164h4v4h-4zM88 164h4v4h-4zM84 168h4v4h-4zM92 168h4v4h-4zM80 172h4v4h-4zM88 172h4v4h-4zM92 172h4v4h-4zM100 160h4v4h-4zM108 160h4v4h-4zM96 164h4v4h-4zM100 164h4v4h-4zM104 164h4v4h-4zM100 168h4v4h-4zM108 168h4v4h-4zM96 172h4v4h-4zM104 172h4v4h-4zM108 172h4v4h-4zM116 160h4v4h-4zM124 160h4v4h-4zM112 164h4v4h-4zM116 164h4v4h-4zM120 164h4v4h-4zM116 168h4v4h-4zM124 168h4v4h-4zM112 172h4v4h-4zM120 172h4v4h-4zM124 172h4v4h-4zM132 160h4v4h-4zM140 160h4v4h-4zM128 164h4v4h-4zM132 164h4v4h-4zM136 164h4v4h-4zM132 168h4v4h-4zM140 168h4v4h-4zM128 172h4v4h-4zM136 172h4v4h-4zM140 172h4v4h-4zM148 160h4v4h-4zM156 160h4v4h-4zM144 164h4v4h-4zM148 164h4v4h-4zM152 164h4v4h-4zM148 168h4v4h-4zM156 168h4v4h-4zM144 172h4v4h-4zM152 172h4v4h-4zM156 172h4v4h-4zM164 160h4v4h-4zM172 160h4v4h-4zM160 164h4v4h-4zM164 164h4v4h-4zM168 164h4v4h-4zM164 168h4v4h-4zM172 168h4v4h-4zM160 172h4v4h-4zM168 172h4v4h-4zM172 172h4v4h-4zM180 160h4v4h-4zM188 160h4v4h-4zM176 164h4v4h-4zM180 164h4v4h-4zM184 164h4v4h-4zM180 168h4v4h-4zM188 168h4v4h-4zM176 172h4v4h-4zM184 172h4v4h-4zM188 172h4v4h-4zM196 160h4v4h-4zM204 160h4v4h-4zM192 164h4v4h-4zM196 164h4v4h-4zM200 164h4v4h-4zM196 168h4v4h-4zM204 168h4v4h-4zM192 172h4v4h-4zM200 172h4v4h-4zM204 172h4v4h-4zM212 160h4v4h-4zM220 160h4v4h-4zM208 164h4v4h-4zM212 164h4v4h-4zM216 164h4v4h-4zM212 168h4v4h-4zM220 168h4v4h-4zM208 172h4v4h-4zM216 172h4v4h-4zM220 172h4v4h-4zM228 160h4v4h-4zM236 160h4v4h-4zM224 164h4v4h-4zM228 164h4v4h-4zM232 164h4v4h-4zM228 168h4v4h-4zM236 168h4v4h-4zM224 172h4v4h-4zM232 172h4v4h-4zM236 172h4v4h-4zM244 160h4v4h-4zM252 160h4v4h-4zM240 164h4v4h-4zM244 164h4v4h-4zM248 164h4v4h-4zM244 168h4v4h-4zM252 168h4v4h-4zM240 172h4v4h-4zM248 172h4v4h-4zM252 172h4v4h-4zM260 160h4v4h-4zM268 160h4v4h-4zM256 164h4v4h-4zM260 164h4v4h-4zM264 164h4v4h-4zM260 168h4v4h-4zM268 168h4v4h-4zM256 172h4v4h-4zM264 172h4v4h-4zM268 172h4v4h-4zM276 160h4v4h-4zM284 160h4v4h-4zM272 164h4v4h-4zM276 164h4v4h-4zM280 164h4v4h-4zM276 168h4v4h-4zM284 168h4v4h-4zM272 172h4v4h-4zM280 172h4v4h-4zM284 172h4v4h-4zM292 160h4v4h-4zM300 160h4v4h-4zM288 164h4v4h-4zM292 164h4v4h-4zM296 164h4v4h-4zM292 168h4v4h-4zM300 168h4v4h-4zM288 172h4v4h-4zM296 172h4v4h-4zM300 172h4v4h-4zM308 160h4v4h-4zM316 160h4v4h-4zM304 164h4v4h-4zM308 164h4v4h-4zM312 164h4v4h-4zM308 168h4v4h-4zM316 168h4v4h-4zM304 172h4v4h-4zM312 172h4v4h-4zM316 172h4v4h-4zM324 160h4v4h-4zM332 160h4v4h-4zM320 164h4v4h-4zM324 164h4v4h-4zM328 164h4v4h-4zM324 168h4v4h-4zM332 168h4v4h-4zM320 172h4v4h-4zM328 172h4v4h-4zM332 172h4v4h-4zM340 160h4v4h-4zM348 160h4v4h-4zM336 164h4v4h-4zM340 164h4v4h-4zM344 164h4v4h-4zM340 168h4v4h-4zM348 168h4v4h-4zM336 172h4v4h-4zM344 172h4v4h-4zM348 172h4v4h-4zM356 160h4v4h-4zM364 160h4v4h-4zM352 164h4v4h-4zM356 164h4v4h-4zM360 164h4v4h-4zM356 168h4v4h-4zM364 168h4v4h-4zM352 172h4v4h-4zM360 172h4v4h-4zM364 172h4v4h-4zM372 160h4v4h-4zM380 160h4v4h-4zM368 164h4v4h-4zM372 164h4v4h-4zM376 164h4v4h-4zM372 168h4v4h-4zM380 168h4v4h-4zM368 172h4v4h-4zM376 172h4v4h-4zM380 172h4v4h-4zM388 160h4v4h-4zM396 160h4v4h-4zM384 164h4v4h-4zM388 164h4v4h-4zM392 164h4v4h-4zM388 168h4v4h-4zM396 168h4v4h-4zM384 172h4v4h-4zM392 172h4v4h-4zM396 172h4v4h-4zM404 160h4v4h-4zM412 160h4v4h-4zM400 164h4v4h-4zM404 164h4v4h-4zM408 164h4v4h-4zM404 168h4v4h-4zM412 168h4v4h-4zM400 172h4v4h-4zM408 172h4v4h-4zM412 172h4v4h-4zM420 160h4v4h-4zM428 160h4v4h-4zM416 164h4v4h-4zM420 164h4v4h-4zM424 164h4v4h-4zM420 168h4v4h-4zM428 168h4v4h-4zM416 172h4v4h-4zM424 172h4v4h-4zM428 172h4v4h-4zM436 160h4v4h-4zM444 160h4v4h-4zM432 164h4v4h-4zM436 164h4v4h-4zM440 164h4v4h-4zM436 168h4v4h-4zM444 168h4v4h-4zM432 172h4v4h-4zM440 172h4v4h-4zM444 172h4v4h-4zM452 160h4v4h-4zM460 160h4v4h-4zM448 164h4v4h-4zM452 164h4v4h-4zM456 164h4v4h-4zM452 168h4v4h-4zM460 168h4v4h-4zM448 172h4v4h-4zM456 172h4v4h-4zM460 172h4v4h-4zM468 160h4v4h-4zM476 160h4v4h-4zM464 164h4v4h-4zM468 164h4v4h-4zM472 164h4v4h-4zM468 168h4v4h-4zM476 168h4v4h-4zM464 172h4v4h-4zM472 172h4v4h-4zM476 172h4v4h-4zM484 160h4v4h-4zM492 160h4v4h-4zM480 164h4v4h-4zM484 164h4v4h-4zM488 164h4v4h-4zM484 168h4v4h-4zM492 168h4v4h-4zM480 172h4v4h-4zM488 172h4v4h-4zM492 172h4v4h-4zM500 160h4v4h-4zM508 160h4v4h-4zM496 164h4v4h-4zM500 164h4v4h-4zM504 164h4v4h-4zM500 168h4v4h-4zM508 168h4v4h-4zM496 172h4v4h-4zM504 172h4v4h-4zM508 172h4v4h-4zM4 176h4v4H4zM12 176h4v4h-4zM0 180h4v4H0zM4 180h4v4H4zM8 180h4v4H8zM12 180h4v4h-4zM4 184h4v4H4zM12 184h4v4h-4zM0 188h4v4H0zM8 188h4v4H8zM12 188h4v4h-4zM20 176h4v4h-4zM28 176h4v4h-4zM16 180h4v4h-4zM20 180h4v4h-4zM24 180h4v4h-4zM28 180h4v4h-4zM20 184h4v4h-4zM28 184h4v4h-4zM16 188h4v4h-4zM24 188h4v4h-4zM28 188h4v4h-4zM36 176h4v4h-4zM44 176h4v4h-4zM32 180h4v4h-4zM36 180h4v4h-4zM40 180h4v4h-4zM44 180h4v4h-4zM36 184h4v4h-4zM44 184h4v4h-4zM32 188h4v4h-4zM40 188h4v4h-4zM44 188h4v4h-4zM52 176h4v4h-4zM60 176h4v4h-4zM48 180h4v4h-4zM52 180h4v4h-4zM56 180h4v4h-4zM60 180h4v4h-4zM52 184h4v4h-4zM60 184h4v4h-4zM48 188h4v4h-4zM56 188h4v4h-4zM60 188h4v4h-4zM68 176h4v4h-4zM76 176h4v4h-4zM64 180h4v4h-4zM68 180h4v4h-4zM72 180h4v4h-4zM76 180h4v4h-4zM68 184h4v4h-4zM76 184h4v4h-4zM64 188h4v4h-4zM72 188h4v4h-4zM76 188h4v4h-4zM84 176h4v4h-4zM92 176h4v4h-4zM80 180h4v4h-4zM84 180h4v4h-4zM88 180h4v4h-4zM92 180h4v4h-4zM84 184h4v4h-4zM92 184h4v4h-4zM80 188h4v4h-4zM88 188h4v4h-4zM92 188h4v4h-4zM100 176h4v4h-4zM108 176h4v4h-4zM96 180h4v4h-4zM100 180h4v4h-4zM104 180h4v4h-4zM108 180h4v4h-4zM100 184h4v4h-4zM108 184h4v4h-4zM96 188h4v4h-4zM104 188h4v4h-4zM108 188h4v4h-4zM116 176h4v4h-4zM124 176h4v4h-4zM112 180h4v4h-4zM116 180h4v4h-4zM120 180h4v4h-4zM124 180h4v4h-4zM116 184h4v4h-4zM124 184h4v4h-4zM112 188h4v4h-4zM120 188h4v4h-4zM124 188h4v4h-4zM132 176h4v4h-4zM140 176h4v4h-4zM128 180h4v4h-4zM132 180h4v4h-4zM136 180h4v4h-4zM140 180h4v4h-4zM132 184h4v4h-4zM140 184h4v4h-4zM128 188h4v4h-4zM136 188h4v4h-4zM140 188h4v4h-4zM148 176h4v4h-4zM156 176h4v4h-4zM144 180h4v4h-4zM148 180h4v4h-4zM152 180h4v4h-4zM156 180h4v4h-4zM148 184h4v4h-4zM156 184h4v4h-4zM144 188h4v4h-4zM152 188h4v4h-4zM156 188h4v4h-4zM164 176h4v4h-4zM172 176h4v4h-4zM160 180h4v4h-4zM164 180h4v4h-4zM168 180h4v4h-4zM172 180h4v4h-4zM164 184h4v4h-4zM172 184h4v4h-4zM160 188h4v4h-4zM168 188h4v4h-4zM172 188h4v4h-4zM180 176h4v4h-4zM188 176h4v4h-4zM176 180h4v4h-4zM180 180h4v4h-4zM184 180h4v4h-4zM188 180h4v4h-4zM180 184h4v4h-4zM188 184h4v4h-4zM176 188h4v4h-4zM184 188h4v4h-4zM188 188h4v4h-4zM196 176h4v4h-4zM204 176h4v4h-4zM192 180h4v4h-4zM196 180h4v4h-4zM200 180h4v4h-4zM204 180h4v4h-4zM196 184h4v4h-4zM204 184h4v4h-4zM192 188h4v4h-4zM200 188h4v4h-4zM204 188h4v4h-4zM212 176h4v4h-4zM220 176h4v4h-4zM208 180h4v4h-4zM212 180h4v4h-4zM216 180h4v4h-4zM220 180h4v4h-4zM212 184h4v4h-4zM220 184h4v4h-4zM208 188h4v4h-4zM216 188h4v4h-4zM220 188h4v4h-4zM228 176h4v4h-4zM236 176h4v4h-4zM224 180h4v4h-4zM228 180h4v4h-4zM232 180h4v4h-4zM236 180h4v4h-4zM228 184h4v4h-4zM236 184h4v4h-4zM224 188h4v4h-4zM232 188h4v4h-4zM236 188h4v4h-4zM244 176h4v4h-4zM252 176h4v4h-4zM240 180h4v4h-4zM244 180h4v4h-4zM248 180h4v4h-4zM252 180h4v4h-4zM244 184h4v4h-4zM252 184h4v4h-4zM240 188h4v4h-4zM248 188h4v4h-4zM252 188h4v4h-4zM260 176h4v4h-4zM268 176h4v4h-4zM256 180h4v4h-4zM260 180h4v4h-4zM264 180h4v4h-4zM268 180h4v4h-4zM260 184h4v4h-4zM268 184h4v4h-4zM256 188h4v4h-4zM264 188h4v4h-4zM268 188h4v4h-4zM276 176h4v4h-4zM284 176h4v4h-4zM272 180h4v4h-4zM276 180h4v4h-4zM280 180h4v4h-4zM284 180h4v4h-4zM276 184h4v4h-4zM284 184h4v4h-4zM272 188h4v4h-4zM280 188h4v4h-4zM284 188h4v4h-4zM292 176h4v4h-4zM300 176h4v4h-4zM288 180h4v4h-4zM292 180h4v4h-4zM296 180h4v4h-4zM300 180h4v4h-4zM292 184h4v4h-4zM300 184h4v4h-4zM288 188h4v4h-4zM296 188h4v4h-4zM300 188h4v4h-4zM308 176h4v4h-4zM316 176h4v4h-4zM304 180h4v4h-4zM308 180h4v4h-4zM312 180h4v4h-4zM316 180h4v4h-4zM308 184h4v4h-4zM316 184h4v4h-4zM304 188h4v4h-4zM312 188h4v4h-4zM316 188h4v4h-4zM324 176h4v4h-4zM332 176h4v4h-4zM320 180h4v4h-4zM324 180h4v4h-4zM328 180h4v4h-4zM332 180h4v4h-4zM324 184h4v4h-4zM332 184h4v4h-4zM320 188h4v4h-4zM328 188h4v4h-4zM332 188h4v4h-4zM340 176h4v4h-4zM348 176h4v4h-4zM336 180h4v4h-4zM340 180h4v4h-4zM344 180h4v4h-4zM348 180h4v4h-4zM340 184h4v4h-4zM348 184h4v4h-4zM336 188h4v4h-4zM344 188h4v4h-4zM348 188h4v4h-4zM356 176h4v4h-4zM364 176h4v4h-4zM352 180h4v4h-4zM356 180h4v4h-4zM360 180h4v4h-4zM364 180h4v4h-4zM356 184h4v4h-4zM364 184h4v4h-4zM352 188h4v4h-4zM360 188h4v4h-4zM364 188h4v4h-4zM372 176h4v4h-4zM380 176h4v4h-4zM368 180h4v4h-4zM372 180h4v4h-4zM376 180h4v4h-4zM380 180h4v4h-4zM372 184h4v4h-4zM380 184h4v4h-4zM368 188h4v4h-4zM376 188h4v4h-4zM380 188h4v4h-4zM388 176h4v4h-4zM396 176h4v4h-4zM384 180h4v4h-4zM388 180h4v4h-4zM392 180h4v4h-4zM396 180h4v4h-4zM388 184h4v4h-4zM396 184h4v4h-4zM384 188h4v4h-4zM392 188h4v4h-4zM396 188h4v4h-4zM404 176h4v4h-4zM412 176h4v4h-4zM400 180h4v4h-4zM404 180h4v4h-4zM408 180h4v4h-4zM412 180h4v4h-4zM404 184h4v4h-4zM412 184h4v4h-4zM400 188h4v4h-4zM408 188h4v4h-4zM412 188h4v4h-4zM420 176h4v4h-4zM428 176h4v4h-4zM416 180h4v4h-4zM420 180h4v4h-4zM424 180h4v4h-4zM428 180h4v4h-4zM420 184h4v4h-4zM428 184h4v4h-4zM416 188h4v4h-4zM424 188h4v4h-4zM428 188h4v4h-4zM436 176h4v4h-4zM444 176h4v4h-4zM432 180h4v4h-4zM436 180h4v4h-4zM440 180h4v4h-4zM444 180h4v4h-4zM436 184h4v4h-4zM444 184h4v4h-4zM432 188h4v4h-4zM440 188h4v4h-4zM444 188h4v4h-4zM452 176h4v4h-4zM460 176h4v4h-4zM448 180h4v4h-4zM452 180h4v4h-4zM456 180h4v4h-4zM460 180h4v4h-4zM452 184h4v4h-4zM460 184h4v4h-4zM448 188h4v4h-4zM456 188h4v4h-4zM460 188h4v4h-4zM468 176h4v4h-4zM476 176h4v4h-4zM464 180h4v4h-4zM468 180h4v4h-4zM472 180h4v4h-4zM476 180h4v4h-4zM468 184h4v4h-4zM476 184h4v4h-4zM464 188h4v4h-4zM472 188h4v4h-4zM476 188h4v4h-4zM484 176h4v4h-4zM492 176h4v4h-4zM480 180h4v4h-4zM484 180h4v4h-4zM488 180h4v4h-4zM492 180h4v4h-4zM484 184h4v4h-4zM492 184h4v4h-4zM480 188h4v4h-4zM488 188h4v4h-4zM492 188h4v4h-4zM500 176h4v4h-4zM508 176h4v4h-4zM496 180h4v4h-4zM500 180h4v4h-4zM504 180h4v4h-4zM508 180h4v4h-4zM500 184h4v4h-4zM508 184h4v4h-4zM496 188h4v4h-4zM504 188h4v4h-4zM508 188h4v4h-4zM4 192h4v4H4zM12 192h4v4h-4zM0 196h4v4H0zM4 196h4v4H4zM8 196h4v4H8zM12 196h4v4h-4zM4 200h4v4H4zM12 200h4v4h-4zM0 204h4v4H0zM4 204h4v4H4zM8 204h4v4H8zM12 204h4v4h-4zM20 192h4v4h-4zM28 192h4v4h-4zM16 196h4v4h-4zM20 196h4v4h-4zM24 196h4v4h-4zM28 196h4v4h-4zM20 200h4v4h-4zM28 200h4v4h-4zM16 204h4v4h-4zM20 204h4v4h-4zM24 204h4v4h-4zM28 204h4v4h-4zM36 192h4v4h-4zM44 192h4v4h-4zM32 196h4v4h-4zM36 196h4v4h-4zM40 196h4v4h-4zM44 196h4v4h-4zM36 200h4v4h-4zM44 200h4v4h-4zM32 204h4v4h-4zM36 204h4v4h-4zM40 204h4v4h-4zM44 204h4v4h-4zM52 192h4v4h-4zM60 192h4v4h-4zM48 196h4v4h-4zM52 196h4v4h-4zM56 196h4v4h-4zM60 196h4v4h-4zM52 200h4v4h-4zM60 200h4v4h-4zM48 204h4v4h-4zM52 204h4v4h-4zM56 204h4v4h-4zM60 204h4v4h-4zM68 192h4v4h-4zM76 192h4v4h-4zM64 196h4v4h-4zM68 196h4v4h-4zM72 196h4v4h-4zM76 196h4v4h-4zM68 200h4v4h-4zM76 200h4v4h-4zM64 204h4v4h-4zM68 204h4v4h-4zM72 204h4v4h-4zM76 204h4v4h-4zM84 192h4v4h-4zM92 192h4v4h-4zM80 196h4v4h-4zM84 196h4v4h-4zM88 196h4v4h-4zM92 196h4v4h-4zM84 200h4v4h-4zM92 200h4v4h-4zM80 204h4v4h-4zM84 204h4v4h-4zM88 204h4v4h-4zM92 204h4v4h-4zM100 192h4v4h-4zM108 192h4v4h-4zM96 196h4v4h-4zM100 196h4v4h-4zM104 196h4v4h-4zM108 196h4v4h-4zM100 200h4v4h-4zM108 200h4v4h-4zM96 204h4v4h-4zM100 204h4v4h-4zM104 204h4v4h-4zM108 204h4v4h-4zM116 192h4v4h-4zM124 192h4v4h-4zM112 196h4v4h-4zM116 196h4v4h-4zM120 196h4v4h-4zM124 196h4v4h-4zM116 200h4v4h-4zM124 200h4v4h-4zM112 204h4v4h-4zM116 204h4v4h-4zM120 204h4v4h-4zM124 204h4v4h-4zM132 192h4v4h-4zM140 192h4v4h-4zM128 196h4v4h-4zM132 196h4v4h-4zM136 196h4v4h-4zM140 196h4v4h-4zM132 200h4v4h-4zM140 200h4v4h-4zM128 204h4v4h-4zM132 204h4v4h-4zM136 204h4v4h-4zM140 204h4v4h-4zM148 192h4v4h-4zM156 192h4v4h-4zM144 196h4v4h-4zM148 196h4v4h-4zM152 196h4v4h-4zM156 196h4v4h-4zM148 200h4v4h-4zM156 200h4v4h-4zM144 204h4v4h-4zM148 204h4v4h-4zM152 204h4v4h-4zM156 204h4v4h-4zM164 192h4v4h-4zM172 192h4v4h-4zM160 196h4v4h-4zM164 196h4v4h-4zM168 196h4v4h-4zM172 196h4v4h-4zM164 200h4v4h-4zM172 200h4v4h-4zM160 204h4v4h-4zM164 204h4v4h-4zM168 204h4v4h-4zM172 204h4v4h-4zM180 192h4v4h-4zM188 192h4v4h-4zM176 196h4v4h-4zM180 196h4v4h-4zM184 196h4v4h-4zM188 196h4v4h-4zM180 200h4v4h-4zM188 200h4v4h-4zM176 204h4v4h-4zM180 204h4v4h-4zM184 204h4v4h-4zM188 204h4v4h-4zM196 192h4v4h-4zM204 192h4v4h-4zM192 196h4v4h-4zM196 196h4v4h-4zM200 196h4v4h-4zM204 196h4v4h-4zM196 200h4v4h-4zM204 200h4v4h-4zM192 204h4v4h-4zM196 204h4v4h-4zM200 204h4v4h-4zM204 204h4v4h-4zM212 192h4v4h-4zM220 192h4v4h-4zM208 196h4v4h-4zM212 196h4v4h-4zM216 196h4v4h-4zM220 196h4v4h-4zM212 200h4v4h-4zM220 200h4v4h-4zM208 204h4v4h-4zM212 204h4v4h-4zM216 204h4v4h-4zM220 204h4v4h-4zM228 192h4v4h-4zM236 192h4v4h-4zM224 196h4v4h-4zM228 196h4v4h-4zM232 196h4v4h-4zM236 196h4v4h-4zM228 200h4v4h-4zM236 200h4v4h-4zM224 204h4v4h-4zM228 204h4v4h-4zM232 204h4v4h-4zM236 204h4v4h-4zM244 192h4v4h-4zM252 192h4v4h-4zM240 196h4v4h-4zM244 196h4v4h-4zM248 196h4v4h-4zM252 196h4v4h-4zM244 200h4v4h-4zM252 200h4v4h-4zM240 204h4v4h-4zM244 204h4v4h-4zM248 204h4v4h-4zM252 204h4v4h-4zM260 192h4v4h-4zM268 192h4v4h-4zM256 196h4v4h-4zM260 196h4v4h-4zM264 196h4v4h-4zM268 196h4v4h-4zM260 200h4v4h-4zM268 200h4v4h-4zM256 204h4v4h-4zM260 204h4v4h-4zM264 204h4v4h-4zM268 204h4v4h-4zM276 192h4v4h-4zM284 192h4v4h-4zM272 196h4v4h-4zM276 196h4v4h-4zM280 196h4v4h-4zM284 196h4v4h-4zM276 200h4v4h-4zM284 200h4v4h-4zM272 204h4v4h-4zM276 204h4v4h-4zM280 204h4v4h-4zM284 204h4v4h-4zM292 192h4v4h-4zM300 192h4v4h-4zM288 196h4v4h-4zM292 196h4v4h-4zM296 196h4v4h-4zM300 196h4v4h-4zM292 200h4v4h-4zM300 200h4v4h-4zM288 204h4v4h-4zM292 204h4v4h-4zM296 204h4v4h-4zM300 204h4v4h-4zM308 192h4v4h-4zM316 192h4v4h-4zM304 196h4v4h-4zM308 196h4v4h-4zM312 196h4v4h-4zM316 196h4v4h-4zM308 200h4v4h-4zM316 200h4v4h-4zM304 204h4v4h-4zM308 204h4v4h-4zM312 204h4v4h-4zM316 204h4v4h-4zM324 192h4v4h-4zM332 192h4v4h-4zM320 196h4v4h-4zM324 196h4v4h-4zM328 196h4v4h-4zM332 196h4v4h-4zM324 200h4v4h-4zM332 200h4v4h-4zM320 204h4v4h-4zM324 204h4v4h-4zM328 204h4v4h-4zM332 204h4v4h-4zM340 192h4v4h-4zM348 192h4v4h-4zM336 196h4v4h-4zM340 196h4v4h-4zM344 196h4v4h-4zM348 196h4v4h-4zM340 200h4v4h-4zM348 200h4v4h-4zM336 204h4v4h-4zM340 204h4v4h-4zM344 204h4v4h-4zM348 204h4v4h-4zM356 192h4v4h-4zM364 192h4v4h-4zM352 196h4v4h-4zM356 196h4v4h-4zM360 196h4v4h-4zM364 196h4v4h-4zM356 200h4v4h-4zM364 200h4v4h-4zM352 204h4v4h-4zM356 204h4v4h-4zM360 204h4v4h-4zM364 204h4v4h-4zM372 192h4v4h-4zM380 192h4v4h-4zM368 196h4v4h-4zM372 196h4v4h-4zM376 196h4v4h-4zM380 196h4v4h-4zM372 200h4v4h-4zM380 200h4v4h-4zM368 204h4v4h-4zM372 204h4v4h-4zM376 204h4v4h-4zM380 204h4v4h-4zM388 192h4v4h-4zM396 192h4v4h-4zM384 196h4v4h-4zM388 196h4v4h-4zM392 196h4v4h-4zM396 196h4v4h-4zM388 200h4v4h-4zM396 200h4v4h-4zM384 204h4v4h-4zM388 204h4v4h-4zM392 204h4v4h-4zM396 204h4v4h-4zM404 192h4v4h-4zM412 192h4v4h-4zM400 196h4v4h-4zM404 196h4v4h-4zM408 196h4v4h-4zM412 196h4v4h-4zM404 200h4v4h-4zM412 200h4v4h-4zM400 204h4v4h-4zM404 204h4v4h-4zM408 204h4v4h-4zM412 204h4v4h-4zM420 192h4v4h-4zM428 192h4v4h-4zM416 196h4v4h-4zM420 196h4v4h-4zM424 196h4v4h-4zM428 196h4v4h-4zM420 200h4v4h-4zM428 200h4v4h-4zM416 204h4v4h-4zM420 204h4v4h-4zM424 204h4v4h-4zM428 204h4v4h-4zM436 192h4v4h-4zM444 192h4v4h-4zM432 196h4v4h-4zM436 196h4v4h-4zM440 196h4v4h-4zM444 196h4v4h-4zM436 200h4v4h-4zM444 200h4v4h-4zM432 204h4v4h-4zM436 204h4v4h-4zM440 204h4v4h-4zM444 204h4v4h-4zM452 192h4v4h-4zM460 192h4v4h-4zM448 196h4v4h-4zM452 196h4v4h-4zM456 196h4v4h-4zM460 196h4v4h-4zM452 200h4v4h-4zM460 200h4v4h-4zM448 204h4v4h-4zM452 204h4v4h-4zM456 204h4v4h-4zM460 204h4v4h-4zM468 192h4v4h-4zM476 192h4v4h-4zM464 196h4v4h-4zM468 196h4v4h-4zM472 196h4v4h-4zM476 196h4v4h-4zM468 200h4v4h-4zM476 200h4v4h-4zM464 204h4v4h-4zM468 204h4v4h-4zM472 204h4v4h-4zM476 204h4v4h-4zM484 192h4v4h-4zM492 192h4v4h-4zM480 196h4v4h-4zM484 196h4v4h-4zM488 196h4v4h-4zM492 196h4v4h-4zM484 200h4v4h-4zM492 200h4v4h-4zM480 204h4v4h-4zM484 204h4v4h-4zM488 204h4v4h-4zM492 204h4v4h-4zM500 192h4v4h-4zM508 192h4v4h-4zM496 196h4v4h-4zM500 196h4v4h-4zM504 196h4v4h-4zM508 196h4v4h-4zM500 200h4v4h-4zM508 200h4v4h-4zM496 204h4v4h-4zM500 204h4v4h-4zM504 204h4v4h-4zM508 204h4v4h-4zM4 208h4v4H4zM8 208h4v4H8zM12 208h4v4h-4zM0 212h4v4H0zM4 212h4v4H4zM8 212h4v4H8zM12 212h4v4h-4zM4 216h4v4H4zM12 216h4v4h-4zM0 220h4v4H0zM4 220h4v4H4zM8 220h4v4H8zM12 220h4v4h-4zM20 208h4v4h-4zM24 208h4v4h-4zM28 208h4v4h-4zM16 212h4v4h-4zM20 212h4v4h-4zM24 212h4v4h-4zM28 212h4v4h-4zM20 216h4v4h-4zM28 216h4v4h-4zM16 220h4v4h-4zM20 220h4v4h-4zM24 220h4v4h-4zM28 220h4v4h-4zM36 208h4v4h-4zM40 208h4v4h-4zM44 208h4v4h-4zM32 212h4v4h-4zM36 212h4v4h-4zM40 212h4v4h-4zM44 212h4v4h-4zM36 216h4v4h-4zM44 216h4v4h-4zM32 220h4v4h-4zM36 220h4v4h-4zM40 220h4v4h-4zM44 220h4v4h-4zM52 208h4v4h-4zM56 208h4v4h-4zM60 208h4v4h-4zM48 212h4v4h-4zM52 212h4v4h-4zM56 212h4v4h-4zM60 212h4v4h-4zM52 216h4v4h-4zM60 216h4v4h-4zM48 220h4v4h-4zM52 220h4v4h-4zM56 220h4v4h-4zM60 220h4v4h-4zM68 208h4v4h-4zM72 208h4v4h-4zM76 208h4v4h-4zM64 212h4v4h-4zM68 212h4v4h-4zM72 212h4v4h-4zM76 212h4v4h-4zM68 216h4v4h-4zM76 216h4v4h-4zM64 220h4v4h-4zM68 220h4v4h-4zM72 220h4v4h-4zM76 220h4v4h-4zM84 208h4v4h-4zM88 208h4v4h-4zM92 208h4v4h-4zM80 212h4v4h-4zM84 212h4v4h-4zM88 212h4v4h-4zM92 212h4v4h-4zM84 216h4v4h-4zM92 216h4v4h-4zM80 220h4v4h-4zM84 220h4v4h-4zM88 220h4v4h-4zM92 220h4v4h-4zM100 208h4v4h-4zM104 208h4v4h-4zM108 208h4v4h-4zM96 212h4v4h-4zM100 212h4v4h-4zM104 212h4v4h-4zM108 212h4v4h-4zM100 216h4v4h-4zM108 216h4v4h-4zM96 220h4v4h-4zM100 220h4v4h-4zM104 220h4v4h-4zM108 220h4v4h-4zM116 208h4v4h-4zM120 208h4v4h-4zM124 208h4v4h-4zM112 212h4v4h-4zM116 212h4v4h-4zM120 212h4v4h-4zM124 212h4v4h-4zM116 216h4v4h-4zM124 216h4v4h-4zM112 220h4v4h-4zM116 220h4v4h-4zM120 220h4v4h-4zM124 220h4v4h-4zM132 208h4v4h-4zM136 208h4v4h-4zM140 208h4v4h-4zM128 212h4v4h-4zM132 212h4v4h-4zM136 212h4v4h-4zM140 212h4v4h-4zM132 216h4v4h-4zM140 216h4v4h-4zM128 220h4v4h-4zM132 220h4v4h-4zM136 220h4v4h-4zM140 220h4v4h-4zM148 208h4v4h-4zM152 208h4v4h-4zM156 208h4v4h-4zM144 212h4v4h-4zM148 212h4v4h-4zM152 212h4v4h-4zM156 212h4v4h-4zM148 216h4v4h-4zM156 216h4v4h-4zM144 220h4v4h-4zM148 220h4v4h-4zM152 220h4v4h-4zM156 220h4v4h-4zM164 208h4v4h-4zM168 208h4v4h-4zM172 208h4v4h-4zM160 212h4v4h-4zM164 212h4v4h-4zM168 212h4v4h-4zM172 212h4v4h-4zM164 216h4v4h-4zM172 216h4v4h-4zM160 220h4v4h-4zM164 220h4v4h-4zM168 220h4v4h-4zM172 220h4v4h-4zM180 208h4v4h-4zM184 208h4v4h-4zM188 208h4v4h-4zM176 212h4v4h-4zM180 212h4v4h-4zM184 212h4v4h-4zM188 212h4v4h-4zM180 216h4v4h-4zM188 216h4v4h-4zM176 220h4v4h-4zM180 220h4v4h-4zM184 220h4v4h-4zM188 220h4v4h-4zM196 208h4v4h-4zM200 208h4v4h-4zM204 208h4v4h-4zM192 212h4v4h-4zM196 212h4v4h-4zM200 212h4v4h-4zM204 212h4v4h-4zM196 216h4v4h-4zM204 216h4v4h-4zM192 220h4v4h-4zM196 220h4v4h-4zM200 220h4v4h-4zM204 220h4v4h-4zM212 208h4v4h-4zM216 208h4v4h-4zM220 208h4v4h-4zM208 212h4v4h-4zM212 212h4v4h-4zM216 212h4v4h-4zM220 212h4v4h-4zM212 216h4v4h-4zM220 216h4v4h-4zM208 220h4v4h-4zM212 220h4v4h-4zM216 220h4v4h-4zM220 220h4v4h-4zM228 208h4v4h-4zM232 208h4v4h-4zM236 208h4v4h-4zM224 212h4v4h-4zM228 212h4v4h-4zM232 212h4v4h-4zM236 212h4v4h-4zM228 216h4v4h-4zM236 216h4v4h-4zM224 220h4v4h-4zM228 220h4v4h-4zM232 220h4v4h-4zM236 220h4v4h-4zM244 208h4v4h-4zM248 208h4v4h-4zM252 208h4v4h-4zM240 212h4v4h-4zM244 212h4v4h-4zM248 212h4v4h-4zM252 212h4v4h-4zM244 216h4v4h-4zM252 216h4v4h-4zM240 220h4v4h-4zM244 220h4v4h-4zM248 220h4v4h-4zM252 220h4v4h-4zM260 208h4v4h-4zM264 208h4v4h-4zM268 208h4v4h-4zM256 212h4v4h-4zM260 212h4v4h-4zM264 212h4v4h-4zM268 212h4v4h-4zM260 216h4v4h-4zM268 216h4v4h-4zM256 220h4v4h-4zM260 220h4v4h-4zM264 220h4v4h-4zM268 220h4v4h-4zM276 208h4v4h-4zM280 208h4v4h-4zM284 208h4v4h-4zM272 212h4v4h-4zM276 212h4v4h-4zM280 212h4v4h-4zM284 212h4v4h-4zM276 216h4v4h-4zM284 216h4v4h-4zM272 220h4v4h-4zM276 220h4v4h-4zM280 220h4v4h-4zM284 220h4v4h-4zM292 208h4v4h-4zM296 208h4v4h-4zM300 208h4v4h-4zM288 212h4v4h-4zM292 212h4v4h-4zM296 212h4v4h-4zM300 212h4v4h-4zM292 216h4v4h-4zM300 216h4v4h-4zM288 220h4v4h-4zM292 220h4v4h-4zM296 220h4v4h-4zM300 220h4v4h-4zM308 208h4v4h-4zM312 208h4v4h-4zM316 208h4v4h-4zM304 212h4v4h-4zM308 212h4v4h-4zM312 212h4v4h-4zM316 212h4v4h-4zM308 216h4v4h-4zM316 216h4v4h-4zM304 220h4v4h-4zM308 220h4v4h-4zM312 220h4v4h-4zM316 220h4v4h-4zM324 208h4v4h-4zM328 208h4v4h-4zM332 208h4v4h-4zM320 212h4v4h-4zM324 212h4v4h-4zM328 212h4v4h-4zM332 212h4v4h-4zM324 216h4v4h-4zM332 216h4v4h-4zM320 220h4v4h-4zM324 220h4v4h-4zM328 220h4v4h-4zM332 220h4v4h-4zM340 208h4v4h-4zM344 208h4v4h-4zM348 208h4v4h-4zM336 212h4v4h-4zM340 212h4v4h-4zM344 212h4v4h-4zM348 212h4v4h-4zM340 216h4v4h-4zM348 216h4v4h-4zM336 220h4v4h-4zM340 220h4v4h-4zM344 220h4v4h-4zM348 220h4v4h-4zM356 208h4v4h-4zM360 208h4v4h-4zM364 208h4v4h-4zM352 212h4v4h-4zM356 212h4v4h-4zM360 212h4v4h-4zM364 212h4v4h-4zM356 216h4v4h-4zM364 216h4v4h-4zM352 220h4v4h-4zM356 220h4v4h-4zM360 220h4v4h-4zM364 220h4v4h-4zM372 208h4v4h-4zM376 208h4v4h-4zM380 208h4v4h-4zM368 212h4v4h-4zM372 212h4v4h-4zM376 212h4v4h-4zM380 212h4v4h-4zM372 216h4v4h-4zM380 216h4v4h-4zM368 220h4v4h-4zM372 220h4v4h-4zM376 220h4v4h-4zM380 220h4v4h-4zM388 208h4v4h-4zM392 208h4v4h-4zM396 208h4v4h-4zM384 212h4v4h-4zM388 212h4v4h-4zM392 212h4v4h-4zM396 212h4v4h-4zM388 216h4v4h-4zM396 216h4v4h-4zM384 220h4v4h-4zM388 220h4v4h-4zM392 220h4v4h-4zM396 220h4v4h-4zM404 208h4v4h-4zM408 208h4v4h-4zM412 208h4v4h-4zM400 212h4v4h-4zM404 212h4v4h-4zM408 212h4v4h-4zM412 212h4v4h-4zM404 216h4v4h-4zM412 216h4v4h-4zM400 220h4v4h-4zM404 220h4v4h-4zM408 220h4v4h-4zM412 220h4v4h-4zM420 208h4v4h-4zM424 208h4v4h-4zM428 208h4v4h-4zM416 212h4v4h-4zM420 212h4v4h-4zM424 212h4v4h-4zM428 212h4v4h-4zM420 216h4v4h-4zM428 216h4v4h-4zM416 220h4v4h-4zM420 220h4v4h-4zM424 220h4v4h-4zM428 220h4v4h-4zM436 208h4v4h-4zM440 208h4v4h-4zM444 208h4v4h-4zM432 212h4v4h-4zM436 212h4v4h-4zM440 212h4v4h-4zM444 212h4v4h-4zM436 216h4v4h-4zM444 216h4v4h-4zM432 220h4v4h-4zM436 220h4v4h-4zM440 220h4v4h-4zM444 220h4v4h-4zM452 208h4v4h-4zM456 208h4v4h-4zM460 208h4v4h-4zM448 212h4v4h-4zM452 212h4v4h-4zM456 212h4v4h-4zM460 212h4v4h-4zM452 216h4v4h-4zM460 216h4v4h-4zM448 220h4v4h-4zM452 220h4v4h-4zM456 220h4v4h-4zM460 220h4v4h-4zM468 208h4v4h-4zM472 208h4v4h-4zM476 208h4v4h-4zM464 212h4v4h-4zM468 212h4v4h-4zM472 212h4v4h-4zM476 212h4v4h-4zM468 216h4v4h-4zM476 216h4v4h-4zM464 220h4v4h-4zM468 220h4v4h-4zM472 220h4v4h-4zM476 220h4v4h-4zM484 208h4v4h-4zM488 208h4v4h-4zM492 208h4v4h-4zM480 212h4v4h-4zM484 212h4v4h-4zM488 212h4v4h-4zM492 212h4v4h-4zM484 216h4v4h-4zM492 216h4v4h-4zM480 220h4v4h-4zM484 220h4v4h-4zM488 220h4v4h-4zM492 220h4v4h-4zM500 208h4v4h-4zM504 208h4v4h-4zM508 208h4v4h-4zM496 212h4v4h-4zM500 212h4v4h-4zM504 212h4v4h-4zM508 212h4v4h-4zM500 216h4v4h-4zM508 216h4v4h-4zM496 220h4v4h-4zM500 220h4v4h-4zM504 220h4v4h-4zM508 220h4v4h-4zM4 224h4v4H4zM8 224h4v4H8zM12 224h4v4h-4zM0 228h4v4H0zM4 228h4v4H4zM8 228h4v4H8zM12 228h4v4h-4zM0 232h4v4H0zM4 232h4v4H4zM12 232h4v4h-4zM0 236h4v4H0zM4 236h4v4H4zM8 236h4v4H8zM12 236h4v4h-4zM20 224h4v4h-4zM24 224h4v4h-4zM28 224h4v4h-4zM16 228h4v4h-4zM20 228h4v4h-4zM24 228h4v4h-4zM28 228h4v4h-4zM16 232h4v4h-4zM20 232h4v4h-4zM28 232h4v4h-4zM16 236h4v4h-4zM20 236h4v4h-4zM24 236h4v4h-4zM28 236h4v4h-4zM36 224h4v4h-4zM40 224h4v4h-4zM44 224h4v4h-4zM32 228h4v4h-4zM36 228h4v4h-4zM40 228h4v4h-4zM44 228h4v4h-4zM32 232h4v4h-4zM36 232h4v4h-4zM44 232h4v4h-4zM32 236h4v4h-4zM36 236h4v4h-4zM40 236h4v4h-4zM44 236h4v4h-4zM52 224h4v4h-4zM56 224h4v4h-4zM60 224h4v4h-4zM48 228h4v4h-4zM52 228h4v4h-4zM56 228h4v4h-4zM60 228h4v4h-4zM48 232h4v4h-4zM52 232h4v4h-4zM60 232h4v4h-4zM48 236h4v4h-4zM52 236h4v4h-4zM56 236h4v4h-4zM60 236h4v4h-4zM68 224h4v4h-4zM72 224h4v4h-4zM76 224h4v4h-4zM64 228h4v4h-4zM68 228h4v4h-4zM72 228h4v4h-4zM76 228h4v4h-4zM64 232h4v4h-4zM68 232h4v4h-4zM76 232h4v4h-4zM64 236h4v4h-4zM68 236h4v4h-4zM72 236h4v4h-4zM76 236h4v4h-4zM84 224h4v4h-4zM88 224h4v4h-4zM92 224h4v4h-4zM80 228h4v4h-4zM84 228h4v4h-4zM88 228h4v4h-4zM92 228h4v4h-4zM80 232h4v4h-4zM84 232h4v4h-4zM92 232h4v4h-4zM80 236h4v4h-4zM84 236h4v4h-4zM88 236h4v4h-4zM92 236h4v4h-4zM100 224h4v4h-4zM104 224h4v4h-4zM108 224h4v4h-4zM96 228h4v4h-4zM100 228h4v4h-4zM104 228h4v4h-4zM108 228h4v4h-4zM96 232h4v4h-4zM100 232h4v4h-4zM108 232h4v4h-4zM96 236h4v4h-4zM100 236h4v4h-4zM104 236h4v4h-4zM108 236h4v4h-4zM116 224h4v4h-4zM120 224h4v4h-4zM124 224h4v4h-4zM112 228h4v4h-4zM116 228h4v4h-4zM120 228h4v4h-4zM124 228h4v4h-4zM112 232h4v4h-4zM116 232h4v4h-4zM124 232h4v4h-4zM112 236h4v4h-4zM116 236h4v4h-4zM120 236h4v4h-4zM124 236h4v4h-4zM132 224h4v4h-4zM136 224h4v4h-4zM140 224h4v4h-4zM128 228h4v4h-4zM132 228h4v4h-4zM136 228h4v4h-4zM140 228h4v4h-4zM128 232h4v4h-4zM132 232h4v4h-4zM140 232h4v4h-4zM128 236h4v4h-4zM132 236h4v4h-4zM136 236h4v4h-4zM140 236h4v4h-4zM148 224h4v4h-4zM152 224h4v4h-4zM156 224h4v4h-4zM144 228h4v4h-4zM148 228h4v4h-4zM152 228h4v4h-4zM156 228h4v4h-4zM144 232h4v4h-4zM148 232h4v4h-4zM156 232h4v4h-4zM144 236h4v4h-4zM148 236h4v4h-4zM152 236h4v4h-4zM156 236h4v4h-4zM164 224h4v4h-4zM168 224h4v4h-4zM172 224h4v4h-4zM160 228h4v4h-4zM164 228h4v4h-4zM168 228h4v4h-4zM172 228h4v4h-4zM160 232h4v4h-4zM164 232h4v4h-4zM172 232h4v4h-4zM160 236h4v4h-4zM164 236h4v4h-4zM168 236h4v4h-4zM172 236h4v4h-4zM180 224h4v4h-4zM184 224h4v4h-4zM188 224h4v4h-4zM176 228h4v4h-4zM180 228h4v4h-4zM184 228h4v4h-4zM188 228h4v4h-4zM176 232h4v4h-4zM180 232h4v4h-4zM188 232h4v4h-4zM176 236h4v4h-4zM180 236h4v4h-4zM184 236h4v4h-4zM188 236h4v4h-4zM196 224h4v4h-4zM200 224h4v4h-4zM204 224h4v4h-4zM192 228h4v4h-4zM196 228h4v4h-4zM200 228h4v4h-4zM204 228h4v4h-4zM192 232h4v4h-4zM196 232h4v4h-4zM204 232h4v4h-4zM192 236h4v4h-4zM196 236h4v4h-4zM200 236h4v4h-4zM204 236h4v4h-4zM212 224h4v4h-4zM216 224h4v4h-4zM220 224h4v4h-4zM208 228h4v4h-4zM212 228h4v4h-4zM216 228h4v4h-4zM220 228h4v4h-4zM208 232h4v4h-4zM212 232h4v4h-4zM220 232h4v4h-4zM208 236h4v4h-4zM212 236h4v4h-4zM216 236h4v4h-4zM220 236h4v4h-4zM228 224h4v4h-4zM232 224h4v4h-4zM236 224h4v4h-4zM224 228h4v4h-4zM228 228h4v4h-4zM232 228h4v4h-4zM236 228h4v4h-4zM224 232h4v4h-4zM228 232h4v4h-4zM236 232h4v4h-4zM224 236h4v4h-4zM228 236h4v4h-4zM232 236h4v4h-4zM236 236h4v4h-4zM244 224h4v4h-4zM248 224h4v4h-4zM252 224h4v4h-4zM240 228h4v4h-4zM244 228h4v4h-4zM248 228h4v4h-4zM252 228h4v4h-4zM240 232h4v4h-4zM244 232h4v4h-4zM252 232h4v4h-4zM240 236h4v4h-4zM244 236h4v4h-4zM248 236h4v4h-4zM252 236h4v4h-4zM260 224h4v4h-4zM264 224h4v4h-4zM268 224h4v4h-4zM256 228h4v4h-4zM260 228h4v4h-4zM264 228h4v4h-4zM268 228h4v4h-4zM256 232h4v4h-4zM260 232h4v4h-4zM268 232h4v4h-4zM256 236h4v4h-4zM260 236h4v4h-4zM264 236h4v4h-4zM268 236h4v4h-4zM276 224h4v4h-4zM280 224h4v4h-4zM284 224h4v4h-4zM272 228h4v4h-4zM276 228h4v4h-4zM280 228h4v4h-4zM284 228h4v4h-4zM272 232h4v4h-4zM276 232h4v4h-4zM284 232h4v4h-4zM272 236h4v4h-4zM276 236h4v4h-4zM280 236h4v4h-4zM284 236h4v4h-4zM292 224h4v4h-4zM296 224h4v4h-4zM300 224h4v4h-4zM288 228h4v4h-4zM292 228h4v4h-4zM296 228h4v4h-4zM300 228h4v4h-4zM288 232h4v4h-4zM292 232h4v4h-4zM300 232h4v4h-4zM288 236h4v4h-4zM292 236h4v4h-4zM296 236h4v4h-4zM300 236h4v4h-4zM308 224h4v4h-4zM312 224h4v4h-4zM316 224h4v4h-4zM304 228h4v4h-4zM308 228h4v4h-4zM312 228h4v4h-4zM316 228h4v4h-4zM304 232h4v4h-4zM308 232h4v4h-4zM316 232h4v4h-4zM304 236h4v4h-4zM308 236h4v4h-4zM312 236h4v4h-4zM316 236h4v4h-4zM324 224h4v4h-4zM328 224h4v4h-4zM332 224h4v4h-4zM320 228h4v4h-4zM324 228h4v4h-4zM328 228h4v4h-4zM332 228h4v4h-4zM320 232h4v4h-4zM324 232h4v4h-4zM332 232h4v4h-4zM320 236h4v4h-4zM324 236h4v4h-4zM328 236h4v4h-4zM332 236h4v4h-4zM340 224h4v4h-4zM344 224h4v4h-4zM348 224h4v4h-4zM336 228h4v4h-4zM340 228h4v4h-4zM344 228h4v4h-4zM348 228h4v4h-4zM336 232h4v4h-4zM340 232h4v4h-4zM348 232h4v4h-4zM336 236h4v4h-4zM340 236h4v4h-4zM344 236h4v4h-4zM348 236h4v4h-4zM356 224h4v4h-4zM360 224h4v4h-4zM364 224h4v4h-4zM352 228h4v4h-4zM356 228h4v4h-4zM360 228h4v4h-4zM364 228h4v4h-4zM352 232h4v4h-4zM356 232h4v4h-4zM364 232h4v4h-4zM352 236h4v4h-4zM356 236h4v4h-4zM360 236h4v4h-4zM364 236h4v4h-4zM372 224h4v4h-4zM376 224h4v4h-4zM380 224h4v4h-4zM368 228h4v4h-4zM372 228h4v4h-4zM376 228h4v4h-4zM380 228h4v4h-4zM368 232h4v4h-4zM372 232h4v4h-4zM380 232h4v4h-4zM368 236h4v4h-4zM372 236h4v4h-4zM376 236h4v4h-4zM380 236h4v4h-4zM388 224h4v4h-4zM392 224h4v4h-4zM396 224h4v4h-4zM384 228h4v4h-4zM388 228h4v4h-4zM392 228h4v4h-4zM396 228h4v4h-4zM384 232h4v4h-4zM388 232h4v4h-4zM396 232h4v4h-4zM384 236h4v4h-4zM388 236h4v4h-4zM392 236h4v4h-4zM396 236h4v4h-4zM404 224h4v4h-4zM408 224h4v4h-4zM412 224h4v4h-4zM400 228h4v4h-4zM404 228h4v4h-4zM408 228h4v4h-4zM412 228h4v4h-4zM400 232h4v4h-4zM404 232h4v4h-4zM412 232h4v4h-4zM400 236h4v4h-4zM404 236h4v4h-4zM408 236h4v4h-4zM412 236h4v4h-4zM420 224h4v4h-4zM424 224h4v4h-4zM428 224h4v4h-4zM416 228h4v4h-4zM420 228h4v4h-4zM424 228h4v4h-4zM428 228h4v4h-4zM416 232h4v4h-4zM420 232h4v4h-4zM428 232h4v4h-4zM416 236h4v4h-4zM420 236h4v4h-4zM424 236h4v4h-4zM428 236h4v4h-4zM436 224h4v4h-4zM440 224h4v4h-4zM444 224h4v4h-4zM432 228h4v4h-4zM436 228h4v4h-4zM440 228h4v4h-4zM444 228h4v4h-4zM432 232h4v4h-4zM436 232h4v4h-4zM444 232h4v4h-4zM432 236h4v4h-4zM436 236h4v4h-4zM440 236h4v4h-4zM444 236h4v4h-4zM452 224h4v4h-4zM456 224h4v4h-4zM460 224h4v4h-4zM448 228h4v4h-4zM452 228h4v4h-4zM456 228h4v4h-4zM460 228h4v4h-4zM448 232h4v4h-4zM452 232h4v4h-4zM460 232h4v4h-4zM448 236h4v4h-4zM452 236h4v4h-4zM456 236h4v4h-4zM460 236h4v4h-4zM468 224h4v4h-4zM472 224h4v4h-4zM476 224h4v4h-4zM464 228h4v4h-4zM468 228h4v4h-4zM472 228h4v4h-4zM476 228h4v4h-4zM464 232h4v4h-4zM468 232h4v4h-4zM476 232h4v4h-4zM464 236h4v4h-4zM468 236h4v4h-4zM472 236h4v4h-4zM476 236h4v4h-4zM484 224h4v4h-4zM488 224h4v4h-4zM492 224h4v4h-4zM480 228h4v4h-4zM484 228h4v4h-4zM488 228h4v4h-4zM492 228h4v4h-4zM480 232h4v4h-4zM484 232h4v4h-4zM492 232h4v4h-4zM480 236h4v4h-4zM484 236h4v4h-4zM488 236h4v4h-4zM492 236h4v4h-4zM500 224h4v4h-4zM504 224h4v4h-4zM508 224h4v4h-4zM496 228h4v4h-4zM500 228h4v4h-4zM504 228h4v4h-4zM508 228h4v4h-4zM496 232h4v4h-4zM500 232h4v4h-4zM508 232h4v4h-4zM496 236h4v4h-4zM500 236h4v4h-4zM504 236h4v4h-4zM508 236h4v4h-4zM4 240h4v4H4zM8 240h4v4H8zM12 240h4v4h-4zM0 244h4v4H0zM4 244h4v4H4zM8 244h4v4H8zM12 244h4v4h-4zM0 248h4v4H0zM4 248h4v4H4zM8 248h4v4H8zM12 248h4v4h-4zM0 252h4v4H0zM4 252h4v4H4zM8 252h4v4H8zM12 252h4v4h-4zM20 240h4v4h-4zM24 240h4v4h-4zM28 240h4v4h-4zM16 244h4v4h-4zM20 244h4v4h-4zM24 244h4v4h-4zM28 244h4v4h-4zM16 248h4v4h-4zM20 248h4v4h-4zM24 248h4v4h-4zM28 248h4v4h-4zM16 252h4v4h-4zM20 252h4v4h-4zM24 252h4v4h-4zM28 252h4v4h-4zM36 240h4v4h-4zM40 240h4v4h-4zM44 240h4v4h-4zM32 244h4v4h-4zM36 244h4v4h-4zM40 244h4v4h-4zM44 244h4v4h-4zM32 248h4v4h-4zM36 248h4v4h-4zM40 248h4v4h-4zM44 248h4v4h-4zM32 252h4v4h-4zM36 252h4v4h-4zM40 252h4v4h-4zM44 252h4v4h-4zM52 240h4v4h-4zM56 240h4v4h-4zM60 240h4v4h-4zM48 244h4v4h-4zM52 244h4v4h-4zM56 244h4v4h-4zM60 244h4v4h-4zM48 248h4v4h-4zM52 248h4v4h-4zM56 248h4v4h-4zM60 248h4v4h-4zM48 252h4v4h-4zM52 252h4v4h-4zM56 252h4v4h-4zM60 252h4v4h-4zM68 240h4v4h-4zM72 240h4v4h-4zM76 240h4v4h-4zM64 244h4v4h-4zM68 244h4v4h-4zM72 244h4v4h-4zM76 244h4v4h-4zM64 248h4v4h-4zM68 248h4v4h-4zM72 248h4v4h-4zM76 248h4v4h-4zM64 252h4v4h-4zM68 252h4v4h-4zM72 252h4v4h-4zM76 252h4v4h-4zM84 240h4v4h-4zM88 240h4v4h-4zM92 240h4v4h-4zM80 244h4v4h-4zM84 244h4v4h-4zM88 244h4v4h-4zM92 244h4v4h-4zM80 248h4v4h-4zM84 248h4v4h-4zM88 248h4v4h-4zM92 248h4v4h-4zM80 252h4v4h-4zM84 252h4v4h-4zM88 252h4v4h-4zM92 252h4v4h-4zM100 240h4v4h-4zM104 240h4v4h-4zM108 240h4v4h-4zM96 244h4v4h-4zM100 244h4v4h-4zM104 244h4v4h-4zM108 244h4v4h-4zM96 248h4v4h-4zM100 248h4v4h-4zM104 248h4v4h-4zM108 248h4v4h-4zM96 252h4v4h-4zM100 252h4v4h-4zM104 252h4v4h-4zM108 252h4v4h-4zM116 240h4v4h-4zM120 240h4v4h-4zM124 240h4v4h-4zM112 244h4v4h-4zM116 244h4v4h-4zM120 244h4v4h-4zM124 244h4v4h-4zM112 248h4v4h-4zM116 248h4v4h-4zM120 248h4v4h-4zM124 248h4v4h-4zM112 252h4v4h-4zM116 252h4v4h-4zM120 252h4v4h-4zM124 252h4v4h-4zM132 240h4v4h-4zM136 240h4v4h-4zM140 240h4v4h-4zM128 244h4v4h-4zM132 244h4v4h-4zM136 244h4v4h-4zM140 244h4v4h-4zM128 248h4v4h-4zM132 248h4v4h-4zM136 248h4v4h-4zM140 248h4v4h-4zM128 252h4v4h-4zM132 252h4v4h-4zM136 252h4v4h-4zM140 252h4v4h-4zM148 240h4v4h-4zM152 240h4v4h-4zM156 240h4v4h-4zM144 244h4v4h-4zM148 244h4v4h-4zM152 244h4v4h-4zM156 244h4v4h-4zM144 248h4v4h-4zM148 248h4v4h-4zM152 248h4v4h-4zM156 248h4v4h-4zM144 252h4v4h-4zM148 252h4v4h-4zM152 252h4v4h-4zM156 252h4v4h-4zM164 240h4v4h-4zM168 240h4v4h-4zM172 240h4v4h-4zM160 244h4v4h-4zM164 244h4v4h-4zM168 244h4v4h-4zM172 244h4v4h-4zM160 248h4v4h-4zM164 248h4v4h-4zM168 248h4v4h-4zM172 248h4v4h-4zM160 252h4v4h-4zM164 252h4v4h-4zM168 252h4v4h-4zM172 252h4v4h-4zM180 240h4v4h-4zM184 240h4v4h-4zM188 240h4v4h-4zM176 244h4v4h-4zM180 244h4v4h-4zM184 244h4v4h-4zM188 244h4v4h-4zM176 248h4v4h-4zM180 248h4v4h-4zM184 248h4v4h-4zM188 248h4v4h-4zM176 252h4v4h-4zM180 252h4v4h-4zM184 252h4v4h-4zM188 252h4v4h-4zM196 240h4v4h-4zM200 240h4v4h-4zM204 240h4v4h-4zM192 244h4v4h-4zM196 244h4v4h-4zM200 244h4v4h-4zM204 244h4v4h-4zM192 248h4v4h-4zM196 248h4v4h-4zM200 248h4v4h-4zM204 248h4v4h-4zM192 252h4v4h-4zM196 252h4v4h-4zM200 252h4v4h-4zM204 252h4v4h-4zM212 240h4v4h-4zM216 240h4v4h-4zM220 240h4v4h-4zM208 244h4v4h-4zM212 244h4v4h-4zM216 244h4v4h-4zM220 244h4v4h-4zM208 248h4v4h-4zM212 248h4v4h-4zM216 248h4v4h-4zM220 248h4v4h-4zM208 252h4v4h-4zM212 252h4v4h-4zM216 252h4v4h-4zM220 252h4v4h-4zM228 240h4v4h-4zM232 240h4v4h-4zM236 240h4v4h-4zM224 244h4v4h-4zM228 244h4v4h-4zM232 244h4v4h-4zM236 244h4v4h-4zM224 248h4v4h-4zM228 248h4v4h-4zM232 248h4v4h-4zM236 248h4v4h-4zM224 252h4v4h-4zM228 252h4v4h-4zM232 252h4v4h-4zM236 252h4v4h-4zM244 240h4v4h-4zM248 240h4v4h-4zM252 240h4v4h-4zM240 244h4v4h-4zM244 244h4v4h-4zM248 244h4v4h-4zM252 244h4v4h-4zM240 248h4v4h-4zM244 248h4v4h-4zM248 248h4v4h-4zM252 248h4v4h-4zM240 252h4v4h-4zM244 252h4v4h-4zM248 252h4v4h-4zM252 252h4v4h-4zM260 240h4v4h-4zM264 240h4v4h-4zM268 240h4v4h-4zM256 244h4v4h-4zM260 244h4v4h-4zM264 244h4v4h-4zM268 244h4v4h-4zM256 248h4v4h-4zM260 248h4v4h-4zM264 248h4v4h-4zM268 248h4v4h-4zM256 252h4v4h-4zM260 252h4v4h-4zM264 252h4v4h-4zM268 252h4v4h-4zM276 240h4v4h-4zM280 240h4v4h-4zM284 240h4v4h-4zM272 244h4v4h-4zM276 244h4v4h-4zM280 244h4v4h-4zM284 244h4v4h-4zM272 248h4v4h-4zM276 248h4v4h-4zM280 248h4v4h-4zM284 248h4v4h-4zM272 252h4v4h-4zM276 252h4v4h-4zM280 252h4v4h-4zM284 252h4v4h-4zM292 240h4v4h-4zM296 240h4v4h-4zM300 240h4v4h-4zM288 244h4v4h-4zM292 244h4v4h-4zM296 244h4v4h-4zM300 244h4v4h-4zM288 248h4v4h-4zM292 248h4v4h-4zM296 248h4v4h-4zM300 248h4v4h-4zM288 252h4v4h-4zM292 252h4v4h-4zM296 252h4v4h-4zM300 252h4v4h-4zM308 240h4v4h-4zM312 240h4v4h-4zM316 240h4v4h-4zM304 244h4v4h-4zM308 244h4v4h-4zM312 244h4v4h-4zM316 244h4v4h-4zM304 248h4v4h-4zM308 248h4v4h-4zM312 248h4v4h-4zM316 248h4v4h-4zM304 252h4v4h-4zM308 252h4v4h-4zM312 252h4v4h-4zM316 252h4v4h-4zM324 240h4v4h-4zM328 240h4v4h-4zM332 240h4v4h-4zM320 244h4v4h-4zM324 244h4v4h-4zM328 244h4v4h-4zM332 244h4v4h-4zM320 248h4v4h-4zM324 248h4v4h-4zM328 248h4v4h-4zM332 248h4v4h-4zM320 252h4v4h-4zM324 252h4v4h-4zM328 252h4v4h-4zM332 252h4v4h-4zM340 240h4v4h-4zM344 240h4v4h-4zM348 240h4v4h-4zM336 244h4v4h-4zM340 244h4v4h-4zM344 244h4v4h-4zM348 244h4v4h-4zM336 248h4v4h-4zM340 248h4v4h-4zM344 248h4v4h-4zM348 248h4v4h-4zM336 252h4v4h-4zM340 252h4v4h-4zM344 252h4v4h-4zM348 252h4v4h-4zM356 240h4v4h-4zM360 240h4v4h-4zM364 240h4v4h-4zM352 244h4v4h-4zM356 244h4v4h-4zM360 244h4v4h-4zM364 244h4v4h-4zM352 248h4v4h-4zM356 248h4v4h-4zM360 248h4v4h-4zM364 248h4v4h-4zM352 252h4v4h-4zM356 252h4v4h-4zM360 252h4v4h-4zM364 252h4v4h-4zM372 240h4v4h-4zM376 240h4v4h-4zM380 240h4v4h-4zM368 244h4v4h-4zM372 244h4v4h-4zM376 244h4v4h-4zM380 244h4v4h-4zM368 248h4v4h-4zM372 248h4v4h-4zM376 248h4v4h-4zM380 248h4v4h-4zM368 252h4v4h-4zM372 252h4v4h-4zM376 252h4v4h-4zM380 252h4v4h-4zM388 240h4v4h-4zM392 240h4v4h-4zM396 240h4v4h-4zM384 244h4v4h-4zM388 244h4v4h-4zM392 244h4v4h-4zM396 244h4v4h-4zM384 248h4v4h-4zM388 248h4v4h-4zM392 248h4v4h-4zM396 248h4v4h-4zM384 252h4v4h-4zM388 252h4v4h-4zM392 252h4v4h-4zM396 252h4v4h-4zM404 240h4v4h-4zM408 240h4v4h-4zM412 240h4v4h-4zM400 244h4v4h-4zM404 244h4v4h-4zM408 244h4v4h-4zM412 244h4v4h-4zM400 248h4v4h-4zM404 248h4v4h-4zM408 248h4v4h-4zM412 248h4v4h-4zM400 252h4v4h-4zM404 252h4v4h-4zM408 252h4v4h-4zM412 252h4v4h-4zM420 240h4v4h-4zM424 240h4v4h-4zM428 240h4v4h-4zM416 244h4v4h-4zM420 244h4v4h-4zM424 244h4v4h-4zM428 244h4v4h-4zM416 248h4v4h-4zM420 248h4v4h-4zM424 248h4v4h-4zM428 248h4v4h-4zM416 252h4v4h-4zM420 252h4v4h-4zM424 252h4v4h-4zM428 252h4v4h-4zM436 240h4v4h-4zM440 240h4v4h-4zM444 240h4v4h-4zM432 244h4v4h-4zM436 244h4v4h-4zM440 244h4v4h-4zM444 244h4v4h-4zM432 248h4v4h-4zM436 248h4v4h-4zM440 248h4v4h-4zM444 248h4v4h-4zM432 252h4v4h-4zM436 252h4v4h-4zM440 252h4v4h-4zM444 252h4v4h-4zM452 240h4v4h-4zM456 240h4v4h-4zM460 240h4v4h-4zM448 244h4v4h-4zM452 244h4v4h-4zM456 244h4v4h-4zM460 244h4v4h-4zM448 248h4v4h-4zM452 248h4v4h-4zM456 248h4v4h-4zM460 248h4v4h-4zM448 252h4v4h-4zM452 252h4v4h-4zM456 252h4v4h-4zM460 252h4v4h-4zM468 240h4v4h-4zM472 240h4v4h-4zM476 240h4v4h-4zM464 244h4v4h-4zM468 244h4v4h-4zM472 244h4v4h-4zM476 244h4v4h-4zM464 248h4v4h-4zM468 248h4v4h-4zM472 248h4v4h-4zM476 248h4v4h-4zM464 252h4v4h-4zM468 252h4v4h-4zM472 252h4v4h-4zM476 252h4v4h-4zM484 240h4v4h-4zM488 240h4v4h-4zM492 240h4v4h-4zM480 244h4v4h-4zM484 244h4v4h-4zM488 244h4v4h-4zM492 244h4v4h-4zM480 248h4v4h-4zM484 248h4v4h-4zM488 248h4v4h-4zM492 248h4v4h-4zM480 252h4v4h-4zM484 252h4v4h-4zM488 252h4v4h-4zM492 252h4v4h-4zM500 240h4v4h-4zM504 240h4v4h-4zM508 240h4v4h-4zM496 244h4v4h-4zM500 244h4v4h-4zM504 244h4v4h-4zM508 244h4v4h-4zM496 248h4v4h-4zM500 248h4v4h-4zM504 248h4v4h-4zM508 248h4v4h-4zM496 252h4v4h-4zM500 252h4v4h-4zM504 252h4v4h-4zM508 252h4v4h-4zM0 256h4v4H0zM4 256h4v4H4zM8 256h4v4H8zM12 256h4v4h-4zM0 260h4v4H0zM4 260h4v4H4zM8 260h4v4H8zM12 260h4v4h-4zM0 264h4v4H0zM4 264h4v4H4zM8 264h4v4H8zM12 264h4v4h-4zM0 268h4v4H0zM4 268h4v4H4zM8 268h4v4H8zM12 268h4v4h-4zM16 256h4v4h-4zM20 256h4v4h-4zM24 256h4v4h-4zM28 256h4v4h-4zM16 260h4v4h-4zM20 260h4v4h-4zM24 260h4v4h-4zM28 260h4v4h-4zM16 264h4v4h-4zM20 264h4v4h-4zM24 264h4v4h-4zM28 264h4v4h-4zM16 268h4v4h-4zM20 268h4v4h-4zM24 268h4v4h-4zM28 268h4v4h-4zM32 256h4v4h-4zM36 256h4v4h-4zM40 256h4v4h-4zM44 256h4v4h-4zM32 260h4v4h-4zM36 260h4v4h-4zM40 260h4v4h-4zM44 260h4v4h-4zM32 264h4v4h-4zM36 264h4v4h-4zM40 264h4v4h-4zM44 264h4v4h-4zM32 268h4v4h-4zM36 268h4v4h-4zM40 268h4v4h-4zM44 268h4v4h-4zM48 256h4v4h-4zM52 256h4v4h-4zM56 256h4v4h-4zM60 256h4v4h-4zM48 260h4v4h-4zM52 260h4v4h-4zM56 260h4v4h-4zM60 260h4v4h-4zM48 264h4v4h-4zM52 264h4v4h-4zM56 264h4v4h-4zM60 264h4v4h-4zM48 268h4v4h-4zM52 268h4v4h-4zM56 268h4v4h-4zM60 268h4v4h-4zM64 256h4v4h-4zM68 256h4v4h-4zM72 256h4v4h-4zM76 256h4v4h-4zM64 260h4v4h-4zM68 260h4v4h-4zM72 260h4v4h-4zM76 260h4v4h-4zM64 264h4v4h-4zM68 264h4v4h-4zM72 264h4v4h-4zM76 264h4v4h-4zM64 268h4v4h-4zM68 268h4v4h-4zM72 268h4v4h-4zM76 268h4v4h-4zM80 256h4v4h-4zM84 256h4v4h-4zM88 256h4v4h-4zM92 256h4v4h-4zM80 260h4v4h-4zM84 260h4v4h-4zM88 260h4v4h-4zM92 260h4v4h-4zM80 264h4v4h-4zM84 264h4v4h-4zM88 264h4v4h-4zM92 264h4v4h-4zM80 268h4v4h-4zM84 268h4v4h-4zM88 268h4v4h-4zM92 268h4v4h-4zM96 256h4v4h-4zM100 256h4v4h-4zM104 256h4v4h-4zM108 256h4v4h-4zM96 260h4v4h-4zM100 260h4v4h-4zM104 260h4v4h-4zM108 260h4v4h-4zM96 264h4v4h-4zM100 264h4v4h-4zM104 264h4v4h-4zM108 264h4v4h-4zM96 268h4v4h-4zM100 268h4v4h-4zM104 268h4v4h-4zM108 268h4v4h-4zM112 256h4v4h-4zM116 256h4v4h-4zM120 256h4v4h-4zM124 256h4v4h-4zM112 260h4v4h-4zM116 260h4v4h-4zM120 260h4v4h-4zM124 260h4v4h-4zM112 264h4v4h-4zM116 264h4v4h-4zM120 264h4v4h-4zM124 264h4v4h-4zM112 268h4v4h-4zM116 268h4v4h-4zM120 268h4v4h-4zM124 268h4v4h-4zM128 256h4v4h-4zM132 256h4v4h-4zM136 256h4v4h-4zM140 256h4v4h-4zM128 260h4v4h-4zM132 260h4v4h-4zM136 260h4v4h-4zM140 260h4v4h-4zM128 264h4v4h-4zM132 264h4v4h-4zM136 264h4v4h-4zM140 264h4v4h-4zM128 268h4v4h-4zM132 268h4v4h-4zM136 268h4v4h-4zM140 268h4v4h-4zM144 256h4v4h-4zM148 256h4v4h-4zM152 256h4v4h-4zM156 256h4v4h-4zM144 260h4v4h-4zM148 260h4v4h-4zM152 260h4v4h-4zM156 260h4v4h-4zM144 264h4v4h-4zM148 264h4v4h-4zM152 264h4v4h-4zM156 264h4v4h-4zM144 268h4v4h-4zM148 268h4v4h-4zM152 268h4v4h-4zM156 268h4v4h-4zM160 256h4v4h-4zM164 256h4v4h-4zM168 256h4v4h-4zM172 256h4v4h-4zM160 260h4v4h-4zM164 260h4v4h-4zM168 260h4v4h-4zM172 260h4v4h-4zM160 264h4v4h-4zM164 264h4v4h-4zM168 264h4v4h-4zM172 264h4v4h-4zM160 268h4v4h-4zM164 268h4v4h-4zM168 268h4v4h-4zM172 268h4v4h-4zM176 256h4v4h-4zM180 256h4v4h-4zM184 256h4v4h-4zM188 256h4v4h-4zM176 260h4v4h-4zM180 260h4v4h-4zM184 260h4v4h-4zM188 260h4v4h-4zM176 264h4v4h-4zM180 264h4v4h-4zM184 264h4v4h-4zM188 264h4v4h-4zM176 268h4v4h-4zM180 268h4v4h-4zM184 268h4v4h-4zM188 268h4v4h-4zM192 256h4v4h-4zM196 256h4v4h-4zM200 256h4v4h-4zM204 256h4v4h-4zM192 260h4v4h-4zM196 260h4v4h-4zM200 260h4v4h-4zM204 260h4v4h-4zM192 264h4v4h-4zM196 264h4v4h-4zM200 264h4v4h-4zM204 264h4v4h-4zM192 268h4v4h-4zM196 268h4v4h-4zM200 268h4v4h-4zM204 268h4v4h-4zM208 256h4v4h-4zM212 256h4v4h-4zM216 256h4v4h-4zM220 256h4v4h-4zM208 260h4v4h-4zM212 260h4v4h-4zM216 260h4v4h-4zM220 260h4v4h-4zM208 264h4v4h-4zM212 264h4v4h-4zM216 264h4v4h-4zM220 264h4v4h-4zM208 268h4v4h-4zM212 268h4v4h-4zM216 268h4v4h-4zM220 268h4v4h-4zM224 256h4v4h-4zM228 256h4v4h-4zM232 256h4v4h-4zM236 256h4v4h-4zM224 260h4v4h-4zM228 260h4v4h-4zM232 260h4v4h-4zM236 260h4v4h-4zM224 264h4v4h-4zM228 264h4v4h-4zM232 264h4v4h-4zM236 264h4v4h-4zM224 268h4v4h-4zM228 268h4v4h-4zM232 268h4v4h-4zM236 268h4v4h-4zM240 256h4v4h-4zM244 256h4v4h-4zM248 256h4v4h-4zM252 256h4v4h-4zM240 260h4v4h-4zM244 260h4v4h-4zM248 260h4v4h-4zM252 260h4v4h-4zM240 264h4v4h-4zM244 264h4v4h-4zM248 264h4v4h-4zM252 264h4v4h-4zM240 268h4v4h-4zM244 268h4v4h-4zM248 268h4v4h-4zM252 268h4v4h-4zM256 256h4v4h-4zM260 256h4v4h-4zM264 256h4v4h-4zM268 256h4v4h-4zM256 260h4v4h-4zM260 260h4v4h-4zM264 260h4v4h-4zM268 260h4v4h-4zM256 264h4v4h-4zM260 264h4v4h-4zM264 264h4v4h-4zM268 264h4v4h-4zM256 268h4v4h-4zM260 268h4v4h-4zM264 268h4v4h-4zM268 268h4v4h-4zM272 256h4v4h-4zM276 256h4v4h-4zM280 256h4v4h-4zM284 256h4v4h-4zM272 260h4v4h-4zM276 260h4v4h-4zM280 260h4v4h-4zM284 260h4v4h-4zM272 264h4v4h-4zM276 264h4v4h-4zM280 264h4v4h-4zM284 264h4v4h-4zM272 268h4v4h-4zM276 268h4v4h-4zM280 268h4v4h-4zM284 268h4v4h-4zM288 256h4v4h-4zM292 256h4v4h-4zM296 256h4v4h-4zM300 256h4v4h-4zM288 260h4v4h-4zM292 260h4v4h-4zM296 260h4v4h-4zM300 260h4v4h-4zM288 264h4v4h-4zM292 264h4v4h-4zM296 264h4v4h-4zM300 264h4v4h-4zM288 268h4v4h-4zM292 268h4v4h-4zM296 268h4v4h-4zM300 268h4v4h-4zM304 256h4v4h-4zM308 256h4v4h-4zM312 256h4v4h-4zM316 256h4v4h-4zM304 260h4v4h-4zM308 260h4v4h-4zM312 260h4v4h-4zM316 260h4v4h-4zM304 264h4v4h-4zM308 264h4v4h-4zM312 264h4v4h-4zM316 264h4v4h-4zM304 268h4v4h-4zM308 268h4v4h-4zM312 268h4v4h-4zM316 268h4v4h-4zM320 256h4v4h-4zM324 256h4v4h-4zM328 256h4v4h-4zM332 256h4v4h-4zM320 260h4v4h-4zM324 260h4v4h-4zM328 260h4v4h-4zM332 260h4v4h-4zM320 264h4v4h-4zM324 264h4v4h-4zM328 264h4v4h-4zM332 264h4v4h-4zM320 268h4v4h-4zM324 268h4v4h-4zM328 268h4v4h-4zM332 268h4v4h-4zM336 256h4v4h-4zM340 256h4v4h-4zM344 256h4v4h-4zM348 256h4v4h-4zM336 260h4v4h-4zM340 260h4v4h-4zM344 260h4v4h-4zM348 260h4v4h-4zM336 264h4v4h-4zM340 264h4v4h-4zM344 264h4v4h-4zM348 264h4v4h-4zM336 268h4v4h-4zM340 268h4v4h-4zM344 268h4v4h-4zM348 268h4v4h-4zM352 256h4v4h-4zM356 256h4v4h-4zM360 256h4v4h-4zM364 256h4v4h-4zM352 260h4v4h-4zM356 260h4v4h-4zM360 260h4v4h-4zM364 260h4v4h-4zM352 264h4v4h-4zM356 264h4v4h-4zM360 264h4v4h-4zM364 264h4v4h-4zM352 268h4v4h-4zM356 268h4v4h-4zM360 268h4v4h-4zM364 268h4v4h-4zM368 256h4v4h-4zM372 256h4v4h-4zM376 256h4v4h-4zM380 256h4v4h-4zM368 260h4v4h-4zM372 260h4v4h-4zM376 260h4v4h-4zM380 260h4v4h-4zM368 264h4v4h-4zM372 264h4v4h-4zM376 264h4v4h-4zM380 264h4v4h-4zM368 268h4v4h-4zM372 268h4v4h-4zM376 268h4v4h-4zM380 268h4v4h-4zM384 256h4v4h-4zM388 256h4v4h-4zM392 256h4v4h-4zM396 256h4v4h-4zM384 260h4v4h-4zM388 260h4v4h-4zM392 260h4v4h-4zM396 260h4v4h-4zM384 264h4v4h-4zM388 264h4v4h-4zM392 264h4v4h-4zM396 264h4v4h-4zM384 268h4v4h-4zM388 268h4v4h-4zM392 268h4v4h-4zM396 268h4v4h-4zM400 256h4v4h-4zM404 256h4v4h-4zM408 256h4v4h-4zM412 256h4v4h-4zM400 260h4v4h-4zM404 260h4v4h-4zM408 260h4v4h-4zM412 260h4v4h-4zM400 264h4v4h-4zM404 264h4v4h-4zM408 264h4v4h-4zM412 264h4v4h-4zM400 268h4v4h-4zM404 268h4v4h-4zM408 268h4v4h-4zM412 268h4v4h-4zM416 256h4v4h-4zM420 256h4v4h-4zM424 256h4v4h-4zM428 256h4v4h-4zM416 260h4v4h-4zM420 260h4v4h-4zM424 260h4v4h-4zM428 260h4v4h-4zM416 264h4v4h-4zM420 264h4v4h-4zM424 264h4v4h-4zM428 264h4v4h-4zM416 268h4v4h-4zM420 268h4v4h-4zM424 268h4v4h-4zM428 268h4v4h-4zM432 256h4v4h-4zM436 256h4v4h-4zM440 256h4v4h-4zM444 256h4v4h-4zM432 260h4v4h-4zM436 260h4v4h-4zM440 260h4v4h-4zM444 260h4v4h-4zM432 264h4v4h-4zM436 264h4v4h-4zM440 264h4v4h-4zM444 264h4v4h-4zM432 268h4v4h-4zM436 268h4v4h-4zM440 268h4v4h-4zM444 268h4v4h-4zM448 256h4v4h-4zM452 256h4v4h-4zM456 256h4v4h-4zM460 256h4v4h-4zM448 260h4v4h-4zM452 260h4v4h-4zM456 260h4v4h-4zM460 260h4v4h-4zM448 264h4v4h-4zM452 264h4v4h-4zM456 264h4v4h-4zM460 264h4v4h-4zM448 268h4v4h-4zM452 268h4v4h-4zM456 268h4v4h-4zM460 268h4v4h-4zM464 256h4v4h-4zM468 256h4v4h-4zM472 256h4v4h-4zM476 256h4v4h-4zM464 260h4v4h-4zM468 260h4v4h-4zM472 260h4v4h-4zM476 260h4v4h-4zM464 264h4v4h-4zM468 264h4v4h-4zM472 264h4v4h-4zM476 264h4v4h-4zM464 268h4v4h-4zM468 268h4v4h-4zM472 268h4v4h-4zM476 268h4v4h-4zM480 256h4v4h-4zM484 256h4v4h-4zM488 256h4v4h-4zM492 256h4v4h-4zM480 260h4v4h-4zM484 260h4v4h-4zM488 260h4v4h-4zM492 260h4v4h-4zM480 264h4v4h-4zM484 264h4v4h-4zM488 264h4v4h-4zM492 264h4v4h-4zM480 268h4v4h-4zM484 268h4v4h-4zM488 268h4v4h-4zM492 268h4v4h-4zM496 256h4v4h-4zM500 256h4v4h-4zM504 256h4v4h-4zM508 256h4v4h-4zM496 260h4v4h-4zM500 260h4v4h-4zM504 260h4v4h-4zM508 260h4v4h-4zM496 264h4v4h-4zM500 264h4v4h-4zM504 264h4v4h-4zM508 264h4v4h-4zM496 268h4v4h-4zM500 268h4v4h-4zM504 268h4v4h-4zM508 268h4v4h-4z"/></svg>