<svg xmlns="http://www.w3.org/2000/svg" fill="none" viewBox="0 0 410 67"><path fill="#fff" d="M399.793 0h-3.198v3.19h3.198zM387 0h-3.198v3.19H387zM374.207 0h-3.198v3.19h3.198zM361.413 0h-3.198v3.19h3.198zM348.62 0h-3.198v3.19h3.198zM335.826 0h-3.198v3.19h3.198zM323.033 0h-3.198v3.19h3.198zM310.24 0h-3.198v3.19h3.198zM297.446 0h-3.198v3.19h3.198zM284.653 0h-3.198v3.19h3.198zM271.859 0h-3.198v3.19h3.198zM259.066 0h-3.198v3.19h3.198zM246.273 0h-3.198v3.19h3.198zM233.479 0h-3.198v3.19h3.198zM220.686 0h-3.198v3.19h3.198zM207.892 0h-3.198v3.19h3.198zM195.099 0h-3.198v3.19h3.198zM182.306 0h-3.198v3.19h3.198zM169.512 0h-3.198v3.19h3.198zM156.719 0h-3.198v3.19h3.198zM143.926 0h-3.198v3.19h3.198zM131.132 0h-3.198v3.19h3.198zM118.339 0h-3.198v3.19h3.198zM105.545 0h-3.198v3.19h3.198zM92.752 0h-3.198v3.19h3.198zM79.959 0H76.76v3.19h3.198zM67.165 0h-3.198v3.19h3.198zM54.372 0h-3.198v3.19h3.198zM41.578 0H38.38v3.19h3.199zM28.785 0h-3.198v3.19h3.198zM15.992 0h-3.198v3.19h3.198zM3.198 0H0v3.19h3.198zM399.793 12.762h-3.198v3.19h3.198zM406.19 19.143h-3.198v3.19h3.198zM387 12.762h-3.198v3.19H387zM393.397 19.143h-3.198v3.19h3.198zM374.207 12.762h-3.198v3.19h3.198zM380.603 19.143h-3.198v3.19h3.198zM361.413 12.762h-3.198v3.19h3.198zM367.81 19.143h-3.198v3.19h3.198zM348.62 12.762h-3.198v3.19h3.198zM355.016 19.143h-3.198v3.19h3.198zM335.826 12.762h-3.198v3.19h3.198zM342.223 19.143h-3.198v3.19h3.198zM323.033 12.762h-3.198v3.19h3.198zM329.43 19.143h-3.198v3.19h3.198zM310.24 12.762h-3.198v3.19h3.198zM316.636 19.143h-3.198v3.19h3.198zM297.446 12.762h-3.198v3.19h3.198zM303.843 19.143h-3.198v3.19h3.198zM284.653 12.762h-3.198v3.19h3.198zM291.05 19.143h-3.198v3.19h3.198zM271.859 12.762h-3.198v3.19h3.198zM278.256 19.143h-3.198v3.19h3.198zM259.066 12.762h-3.198v3.19h3.198zM265.463 19.143h-3.198v3.19h3.198zM246.273 12.762h-3.198v3.19h3.198zM252.669 19.143h-3.198v3.19h3.198zM233.479 12.762h-3.198v3.19h3.198zM239.876 19.143h-3.198v3.19h3.198zM220.686 12.762h-3.198v3.19h3.198zM227.083 19.143h-3.198v3.19h3.198zM207.892 12.762h-3.198v3.19h3.198zM214.289 19.143h-3.198v3.19h3.198zM195.099 12.762h-3.198v3.19h3.198zM201.496 19.143h-3.198v3.19h3.198zM182.306 12.762h-3.198v3.19h3.198zM188.702 19.143h-3.198v3.19h3.198zM169.512 12.762h-3.198v3.19h3.198zM175.909 19.143h-3.198v3.19h3.198zM156.719 12.762h-3.198v3.19h3.198zM163.116 19.143h-3.198v3.19h3.198zM143.926 12.762h-3.198v3.19h3.198zM150.322 19.143h-3.198v3.19h3.198zM131.132 12.762h-3.198v3.19h3.198zM137.529 19.143h-3.198v3.19h3.198zM118.339 12.762h-3.198v3.19h3.198zM124.736 19.143h-3.198v3.19h3.198zM105.545 12.762h-3.198v3.19h3.198zM111.942 19.143h-3.198v3.19h3.198zM92.752 12.762h-3.198v3.19h3.198zM99.149 19.143H95.95v3.19h3.198zM79.959 12.762H76.76v3.19h3.198zM86.355 19.143h-3.198v3.19h3.198zM67.165 12.762h-3.198v3.19h3.198zM73.562 19.143h-3.198v3.19h3.198zM54.372 12.762h-3.198v3.19h3.198zM60.769 19.143H57.57v3.19h3.198zM41.578 12.762H38.38v3.19h3.199zM47.975 19.143h-3.198v3.19h3.198zM28.785 12.762h-3.198v3.19h3.198zM35.182 19.143h-3.198v3.19h3.198zM15.992 12.762h-3.198v3.19h3.198zM22.388 19.143H19.19v3.19h3.198zM3.198 12.762H0v3.19h3.198zM9.595 19.143H6.397v3.19h3.198zM399.793 25.523h-3.198v3.19h3.198zM406.19 31.904h-3.198v3.19h3.198zM399.793 31.904h-3.198v3.19h3.198zM387 25.523h-3.198v3.19H387zM393.397 31.904h-3.198v3.19h3.198zM387 31.904h-3.198v3.19H387zM374.207 25.523h-3.198v3.19h3.198zM380.603 31.904h-3.198v3.19h3.198zM374.207 31.904h-3.198v3.19h3.198zM361.413 25.523h-3.198v3.19h3.198zM367.81 31.904h-3.198v3.19h3.198zM361.413 31.904h-3.198v3.19h3.198zM348.62 25.523h-3.198v3.19h3.198zM355.016 31.904h-3.198v3.19h3.198zM348.62 31.904h-3.198v3.19h3.198zM335.826 25.523h-3.198v3.19h3.198zM342.223 31.904h-3.198v3.19h3.198zM335.826 31.904h-3.198v3.19h3.198zM323.033 25.523h-3.198v3.19h3.198zM329.43 31.904h-3.198v3.19h3.198zM323.033 31.904h-3.198v3.19h3.198zM310.24 25.523h-3.198v3.19h3.198zM316.636 31.904h-3.198v3.19h3.198zM310.24 31.904h-3.198v3.19h3.198zM297.446 25.523h-3.198v3.19h3.198zM303.843 31.904h-3.198v3.19h3.198zM297.446 31.904h-3.198v3.19h3.198zM284.653 25.523h-3.198v3.19h3.198zM291.05 31.904h-3.198v3.19h3.198zM284.653 31.904h-3.198v3.19h3.198zM271.859 25.523h-3.198v3.19h3.198zM278.256 31.904h-3.198v3.19h3.198zM271.859 31.904h-3.198v3.19h3.198zM259.066 25.523h-3.198v3.19h3.198zM265.463 31.904h-3.198v3.19h3.198zM259.066 31.904h-3.198v3.19h3.198zM246.273 25.523h-3.198v3.19h3.198zM252.669 31.904h-3.198v3.19h3.198zM246.273 31.904h-3.198v3.19h3.198zM233.479 25.523h-3.198v3.19h3.198zM239.876 31.904h-3.198v3.19h3.198zM233.479 31.904h-3.198v3.19h3.198zM220.686 25.523h-3.198v3.19h3.198zM227.083 31.904h-3.198v3.19h3.198zM220.686 31.904h-3.198v3.19h3.198zM207.892 25.523h-3.198v3.19h3.198zM214.289 31.904h-3.198v3.19h3.198zM207.892 31.904h-3.198v3.19h3.198zM195.099 25.523h-3.198v3.19h3.198zM201.496 31.904h-3.198v3.19h3.198zM195.099 31.904h-3.198v3.19h3.198zM182.306 25.523h-3.198v3.19h3.198zM188.702 31.904h-3.198v3.19h3.198zM182.306 31.904h-3.198v3.19h3.198zM169.512 25.523h-3.198v3.19h3.198zM175.909 31.904h-3.198v3.19h3.198zM169.512 31.904h-3.198v3.19h3.198zM156.719 25.523h-3.198v3.19h3.198zM163.116 31.904h-3.198v3.19h3.198zM156.719 31.904h-3.198v3.19h3.198zM143.926 25.523h-3.198v3.19h3.198zM150.322 31.904h-3.198v3.19h3.198zM143.926 31.904h-3.198v3.19h3.198zM131.132 25.523h-3.198v3.19h3.198zM137.529 31.904h-3.198v3.19h3.198zM131.132 31.904h-3.198v3.19h3.198zM118.339 25.523h-3.198v3.19h3.198zM124.736 31.904h-3.198v3.19h3.198zM118.339 31.904h-3.198v3.19h3.198zM105.545 25.523h-3.198v3.19h3.198zM111.942 31.904h-3.198v3.19h3.198zM105.545 31.904h-3.198v3.19h3.198zM92.752 25.523h-3.198v3.19h3.198zM99.149 31.904H95.95v3.19h3.198zM92.752 31.904h-3.198v3.19h3.198zM79.959 25.523H76.76v3.19h3.198zM86.355 31.904h-3.198v3.19h3.198zM79.959 31.904H76.76v3.19h3.198zM67.165 25.523h-3.198v3.19h3.198zM73.562 31.904h-3.198v3.19h3.198zM67.165 31.904h-3.198v3.19h3.198zM54.372 25.523h-3.198v3.19h3.198zM60.769 31.904H57.57v3.19h3.198zM54.372 31.904h-3.198v3.19h3.198zM41.578 25.523H38.38v3.19h3.199zM47.975 31.904h-3.198v3.19h3.198zM41.578 31.904H38.38v3.19h3.199zM28.785 25.523h-3.198v3.19h3.198zM35.182 31.904h-3.198v3.19h3.198zM28.785 31.904h-3.198v3.19h3.198zM15.992 25.523h-3.198v3.19h3.198zM22.388 31.904H19.19v3.19h3.198zM15.992 31.904h-3.198v3.19h3.198zM3.198 25.523H0v3.19h3.198zM9.595 31.904H6.397v3.19h3.198zM3.198 31.904H0v3.19h3.198zM406.19 38.286h-3.198v3.19h3.198zM399.793 38.286h-3.198v3.19h3.198zM406.19 44.667h-3.198v3.19h3.198zM399.793 44.667h-3.198v3.19h3.198zM393.397 38.286h-3.198v3.19h3.198zM387 38.286h-3.198v3.19H387zM393.397 44.667h-3.198v3.19h3.198zM387 44.667h-3.198v3.19H387zM380.603 38.286h-3.198v3.19h3.198zM374.207 38.286h-3.198v3.19h3.198zM380.603 44.667h-3.198v3.19h3.198zM374.207 44.667h-3.198v3.19h3.198zM367.81 38.286h-3.198v3.19h3.198zM361.413 38.286h-3.198v3.19h3.198zM367.81 44.667h-3.198v3.19h3.198zM361.413 44.667h-3.198v3.19h3.198zM355.016 38.286h-3.198v3.19h3.198zM348.62 38.286h-3.198v3.19h3.198zM355.016 44.667h-3.198v3.19h3.198zM348.62 44.667h-3.198v3.19h3.198zM342.223 38.286h-3.198v3.19h3.198zM335.826 38.286h-3.198v3.19h3.198zM342.223 44.667h-3.198v3.19h3.198zM335.826 44.667h-3.198v3.19h3.198zM329.43 38.286h-3.198v3.19h3.198zM323.033 38.286h-3.198v3.19h3.198zM329.43 44.667h-3.198v3.19h3.198zM323.033 44.667h-3.198v3.19h3.198zM316.636 38.286h-3.198v3.19h3.198zM310.24 38.286h-3.198v3.19h3.198zM316.636 44.667h-3.198v3.19h3.198zM310.24 44.667h-3.198v3.19h3.198zM303.843 38.286h-3.198v3.19h3.198zM297.446 38.286h-3.198v3.19h3.198zM303.843 44.667h-3.198v3.19h3.198zM297.446 44.667h-3.198v3.19h3.198zM291.05 38.286h-3.198v3.19h3.198zM284.653 38.286h-3.198v3.19h3.198zM291.05 44.667h-3.198v3.19h3.198zM284.653 44.667h-3.198v3.19h3.198zM278.256 38.286h-3.198v3.19h3.198zM271.859 38.286h-3.198v3.19h3.198zM278.256 44.667h-3.198v3.19h3.198zM271.859 44.667h-3.198v3.19h3.198zM265.463 38.286h-3.198v3.19h3.198zM259.066 38.286h-3.198v3.19h3.198zM265.463 44.667h-3.198v3.19h3.198zM259.066 44.667h-3.198v3.19h3.198zM252.669 38.286h-3.198v3.19h3.198zM246.273 38.286h-3.198v3.19h3.198zM252.669 44.667h-3.198v3.19h3.198zM246.273 44.667h-3.198v3.19h3.198zM239.876 38.286h-3.198v3.19h3.198zM233.479 38.286h-3.198v3.19h3.198zM239.876 44.667h-3.198v3.19h3.198zM233.479 44.667h-3.198v3.19h3.198zM227.083 38.286h-3.198v3.19h3.198zM220.686 38.286h-3.198v3.19h3.198zM227.083 44.667h-3.198v3.19h3.198zM220.686 44.667h-3.198v3.19h3.198zM214.289 38.286h-3.198v3.19h3.198zM207.892 38.286h-3.198v3.19h3.198zM214.289 44.667h-3.198v3.19h3.198zM207.892 44.667h-3.198v3.19h3.198zM201.496 38.286h-3.198v3.19h3.198zM195.099 38.286h-3.198v3.19h3.198zM201.496 44.667h-3.198v3.19h3.198zM195.099 44.667h-3.198v3.19h3.198zM188.702 38.286h-3.198v3.19h3.198zM182.306 38.286h-3.198v3.19h3.198zM188.702 44.667h-3.198v3.19h3.198zM182.306 44.667h-3.198v3.19h3.198zM175.909 38.286h-3.198v3.19h3.198zM169.512 38.286h-3.198v3.19h3.198zM175.909 44.667h-3.198v3.19h3.198zM169.512 44.667h-3.198v3.19h3.198zM163.116 38.286h-3.198v3.19h3.198zM156.719 38.286h-3.198v3.19h3.198zM163.116 44.667h-3.198v3.19h3.198zM156.719 44.667h-3.198v3.19h3.198zM150.322 38.286h-3.198v3.19h3.198zM143.926 38.286h-3.198v3.19h3.198zM150.322 44.667h-3.198v3.19h3.198zM143.926 44.667h-3.198v3.19h3.198zM137.529 38.286h-3.198v3.19h3.198zM131.132 38.286h-3.198v3.19h3.198zM137.529 44.667h-3.198v3.19h3.198zM131.132 44.667h-3.198v3.19h3.198zM124.736 38.286h-3.198v3.19h3.198zM118.339 38.286h-3.198v3.19h3.198zM124.736 44.667h-3.198v3.19h3.198zM118.339 44.667h-3.198v3.19h3.198zM111.942 38.286h-3.198v3.19h3.198zM105.545 38.286h-3.198v3.19h3.198zM111.942 44.667h-3.198v3.19h3.198zM105.545 44.667h-3.198v3.19h3.198zM99.149 38.286H95.95v3.19h3.198zM92.752 38.286h-3.198v3.19h3.198zM99.149 44.667H95.95v3.19h3.198zM92.752 44.667h-3.198v3.19h3.198zM86.355 38.286h-3.198v3.19h3.198zM79.959 38.286H76.76v3.19h3.198zM86.355 44.667h-3.198v3.19h3.198zM79.959 44.667H76.76v3.19h3.198zM73.562 38.286h-3.198v3.19h3.198zM67.165 38.286h-3.198v3.19h3.198zM73.562 44.667h-3.198v3.19h3.198zM67.165 44.667h-3.198v3.19h3.198zM60.769 38.286H57.57v3.19h3.198zM54.372 38.286h-3.198v3.19h3.198zM60.769 44.667H57.57v3.19h3.198zM54.372 44.667h-3.198v3.19h3.198zM47.975 38.286h-3.198v3.19h3.198zM41.578 38.286H38.38v3.19h3.199zM47.975 44.667h-3.198v3.19h3.198zM41.578 44.667H38.38v3.19h3.199zM35.182 38.286h-3.198v3.19h3.198zM28.785 38.286h-3.198v3.19h3.198zM35.182 44.667h-3.198v3.19h3.198zM28.785 44.667h-3.198v3.19h3.198zM22.388 38.286H19.19v3.19h3.198zM15.992 38.286h-3.198v3.19h3.198zM22.388 44.667H19.19v3.19h3.198zM15.992 44.667h-3.198v3.19h3.198zM9.595 38.286H6.397v3.19h3.198zM3.198 38.286H0v3.19h3.198zM9.595 44.667H6.397v3.19h3.198zM3.198 44.667H0v3.19h3.198zM406.19 51.048h-3.198v3.19h3.198zM399.793 51.048h-3.198v3.19h3.198zM406.19 57.429h-3.198v3.19h3.198zM399.793 57.429h-3.198v3.19h3.198zM402.992 60.62h-3.198v3.19h3.198zM393.397 51.048h-3.198v3.19h3.198zM387 51.048h-3.198v3.19H387zM393.397 57.429h-3.198v3.19h3.198zM387 57.429h-3.198v3.19H387zM390.198 60.62H387v3.19h3.198zM380.603 51.048h-3.198v3.19h3.198zM374.207 51.048h-3.198v3.19h3.198zM380.603 57.429h-3.198v3.19h3.198zM374.207 57.429h-3.198v3.19h3.198zM377.405 60.62h-3.198v3.19h3.198zM367.81 51.048h-3.198v3.19h3.198zM361.413 51.048h-3.198v3.19h3.198zM367.81 57.429h-3.198v3.19h3.198zM361.413 57.429h-3.198v3.19h3.198zM364.611 60.62h-3.198v3.19h3.198zM355.016 51.048h-3.198v3.19h3.198zM348.62 51.048h-3.198v3.19h3.198zM355.016 57.429h-3.198v3.19h3.198zM348.62 57.429h-3.198v3.19h3.198zM351.818 60.62h-3.198v3.19h3.198zM342.223 51.048h-3.198v3.19h3.198zM335.826 51.048h-3.198v3.19h3.198zM342.223 57.429h-3.198v3.19h3.198zM335.826 57.429h-3.198v3.19h3.198zM339.025 60.62h-3.198v3.19h3.198zM329.43 51.048h-3.198v3.19h3.198zM323.033 51.048h-3.198v3.19h3.198zM329.43 57.429h-3.198v3.19h3.198zM323.033 57.429h-3.198v3.19h3.198zM326.231 60.62h-3.198v3.19h3.198zM316.636 51.048h-3.198v3.19h3.198zM310.24 51.048h-3.198v3.19h3.198zM316.636 57.429h-3.198v3.19h3.198zM310.24 57.429h-3.198v3.19h3.198zM313.438 60.62h-3.198v3.19h3.198zM303.843 51.048h-3.198v3.19h3.198zM297.446 51.048h-3.198v3.19h3.198zM303.843 57.429h-3.198v3.19h3.198zM297.446 57.429h-3.198v3.19h3.198zM300.645 60.62h-3.198v3.19h3.198zM291.05 51.048h-3.198v3.19h3.198zM284.653 51.048h-3.198v3.19h3.198zM291.05 57.429h-3.198v3.19h3.198zM284.653 57.429h-3.198v3.19h3.198zM287.851 60.62h-3.198v3.19h3.198zM278.256 51.048h-3.198v3.19h3.198zM271.859 51.048h-3.198v3.19h3.198zM278.256 57.429h-3.198v3.19h3.198zM271.859 57.429h-3.198v3.19h3.198zM275.058 60.62h-3.198v3.19h3.198zM265.463 51.048h-3.198v3.19h3.198zM259.066 51.048h-3.198v3.19h3.198zM265.463 57.429h-3.198v3.19h3.198zM259.066 57.429h-3.198v3.19h3.198zM262.264 60.62h-3.198v3.19h3.198zM252.669 51.048h-3.198v3.19h3.198zM246.273 51.048h-3.198v3.19h3.198zM252.669 57.429h-3.198v3.19h3.198zM246.273 57.429h-3.198v3.19h3.198zM249.471 60.62h-3.198v3.19h3.198zM239.876 51.048h-3.198v3.19h3.198zM233.479 51.048h-3.198v3.19h3.198zM239.876 57.429h-3.198v3.19h3.198zM233.479 57.429h-3.198v3.19h3.198zM236.678 60.62h-3.198v3.19h3.198zM227.083 51.048h-3.198v3.19h3.198zM220.686 51.048h-3.198v3.19h3.198zM227.083 57.429h-3.198v3.19h3.198zM220.686 57.429h-3.198v3.19h3.198zM223.884 60.62h-3.198v3.19h3.198zM214.289 51.048h-3.198v3.19h3.198zM207.892 51.048h-3.198v3.19h3.198zM214.289 57.429h-3.198v3.19h3.198zM207.892 57.429h-3.198v3.19h3.198zM211.091 60.62h-3.198v3.19h3.198zM201.496 51.048h-3.198v3.19h3.198zM195.099 51.048h-3.198v3.19h3.198zM201.496 57.429h-3.198v3.19h3.198zM195.099 57.429h-3.198v3.19h3.198zM198.297 60.62h-3.198v3.19h3.198zM188.702 51.048h-3.198v3.19h3.198zM182.306 51.048h-3.198v3.19h3.198zM188.702 57.429h-3.198v3.19h3.198zM182.306 57.429h-3.198v3.19h3.198zM185.504 60.62h-3.198v3.19h3.198zM175.909 51.048h-3.198v3.19h3.198zM169.512 51.048h-3.198v3.19h3.198zM175.909 57.429h-3.198v3.19h3.198zM169.512 57.429h-3.198v3.19h3.198zM172.711 60.62h-3.198v3.19h3.198zM163.116 51.048h-3.198v3.19h3.198zM156.719 51.048h-3.198v3.19h3.198zM163.116 57.429h-3.198v3.19h3.198zM156.719 57.429h-3.198v3.19h3.198zM159.917 60.62h-3.198v3.19h3.198zM150.322 51.048h-3.198v3.19h3.198zM143.926 51.048h-3.198v3.19h3.198zM150.322 57.429h-3.198v3.19h3.198zM143.926 57.429h-3.198v3.19h3.198zM147.124 60.62h-3.198v3.19h3.198zM137.529 51.048h-3.198v3.19h3.198zM131.132 51.048h-3.198v3.19h3.198zM137.529 57.429h-3.198v3.19h3.198zM131.132 57.429h-3.198v3.19h3.198zM134.331 60.62h-3.198v3.19h3.198zM124.736 51.048h-3.198v3.19h3.198zM118.339 51.048h-3.198v3.19h3.198zM124.736 57.429h-3.198v3.19h3.198zM118.339 57.429h-3.198v3.19h3.198zM121.537 60.62h-3.198v3.19h3.198zM111.942 51.048h-3.198v3.19h3.198zM105.545 51.048h-3.198v3.19h3.198zM111.942 57.429h-3.198v3.19h3.198zM105.545 57.429h-3.198v3.19h3.198zM108.744 60.62h-3.198v3.19h3.198zM99.149 51.048H95.95v3.19h3.198zM92.752 51.048h-3.198v3.19h3.198zM99.149 57.429H95.95v3.19h3.198zM92.752 57.429h-3.198v3.19h3.198zM95.95 60.62h-3.198v3.19h3.198zM86.355 51.048h-3.198v3.19h3.198zM79.959 51.048H76.76v3.19h3.198zM86.355 57.429h-3.198v3.19h3.198zM79.959 57.429H76.76v3.19h3.198zM83.157 60.62h-3.198v3.19h3.198zM73.562 51.048h-3.198v3.19h3.198zM67.165 51.048h-3.198v3.19h3.198zM73.562 57.429h-3.198v3.19h3.198zM67.165 57.429h-3.198v3.19h3.198zM70.364 60.62h-3.198v3.19h3.198zM60.769 51.048H57.57v3.19h3.198zM54.372 51.048h-3.198v3.19h3.198zM60.769 57.429H57.57v3.19h3.198zM54.372 57.429h-3.198v3.19h3.198zM57.57 60.62h-3.198v3.19h3.198zM47.975 51.048h-3.198v3.19h3.198zM41.578 51.048H38.38v3.19h3.199zM47.975 57.429h-3.198v3.19h3.198zM41.578 57.429H38.38v3.19h3.199zM44.777 60.62h-3.198v3.19h3.198zM35.182 51.048h-3.198v3.19h3.198zM28.785 51.048h-3.198v3.19h3.198zM35.182 57.429h-3.198v3.19h3.198zM28.785 57.429h-3.198v3.19h3.198zM31.983 60.62h-3.198v3.19h3.199zM22.388 51.048H19.19v3.19h3.198zM15.992 51.048h-3.198v3.19h3.198zM22.388 57.429H19.19v3.19h3.198zM15.992 57.429h-3.198v3.19h3.198zM19.19 60.62h-3.198v3.19h3.198zM9.595 51.048H6.397v3.19h3.198zM3.198 51.048H0v3.19h3.198zM9.595 57.429H6.397v3.19h3.198zM3.198 57.429H0v3.19h3.198zM6.397 60.62H3.199v3.19h3.198zM406.19 63.81h-3.198V67h3.198zM399.793 63.81h-3.198V67h3.198zM393.397 63.81h-3.198V67h3.198zM387 63.81h-3.198V67H387zM380.603 63.81h-3.198V67h3.198zM374.207 63.81h-3.198V67h3.198zM367.81 63.81h-3.198V67h3.198zM361.413 63.81h-3.198V67h3.198zM355.016 63.81h-3.198V67h3.198zM348.62 63.81h-3.198V67h3.198zM342.223 63.81h-3.198V67h3.198zM335.826 63.81h-3.198V67h3.198zM329.43 63.81h-3.198V67h3.198zM323.033 63.81h-3.198V67h3.198zM316.636 63.81h-3.198V67h3.198zM310.24 63.81h-3.198V67h3.198zM303.843 63.81h-3.198V67h3.198zM297.446 63.81h-3.198V67h3.198zM291.05 63.81h-3.198V67h3.198zM284.653 63.81h-3.198V67h3.198zM278.256 63.81h-3.198V67h3.198zM271.859 63.81h-3.198V67h3.198zM265.463 63.81h-3.198V67h3.198zM259.066 63.81h-3.198V67h3.198zM252.669 63.81h-3.198V67h3.198zM246.273 63.81h-3.198V67h3.198zM239.876 63.81h-3.198V67h3.198zM233.479 63.81h-3.198V67h3.198zM227.083 63.81h-3.198V67h3.198zM220.686 63.81h-3.198V67h3.198zM214.289 63.81h-3.198V67h3.198zM207.893 63.81h-3.198V67h3.198zM201.496 63.81h-3.198V67h3.198zM195.099 63.81h-3.198V67h3.198zM188.702 63.81h-3.198V67h3.198zM182.306 63.81h-3.198V67h3.198zM175.909 63.81h-3.198V67h3.198zM169.512 63.81h-3.198V67h3.198zM163.116 63.81h-3.198V67h3.198zM156.719 63.81h-3.198V67h3.198zM150.322 63.81h-3.198V67h3.198zM143.926 63.81h-3.198V67h3.198zM137.529 63.81h-3.198V67h3.198zM131.132 63.81h-3.198V67h3.198zM124.736 63.81h-3.198V67h3.198zM118.339 63.81h-3.198V67h3.198zM111.942 63.81h-3.198V67h3.198zM105.545 63.81h-3.198V67h3.198zM99.149 63.81H95.95V67h3.198zM92.752 63.81h-3.198V67h3.198zM86.355 63.81h-3.198V67h3.198zM79.959 63.81H76.76V67h3.198zM73.562 63.81h-3.198V67h3.198zM67.165 63.81h-3.198V67h3.198zM60.769 63.81H57.57V67h3.198zM54.372 63.81h-3.198V67h3.198zM47.975 63.81h-3.198V67h3.198zM41.578 63.81H38.38V67h3.199zM35.182 63.81h-3.198V67h3.198zM28.785 63.81h-3.198V67h3.198zM22.388 63.81H19.19V67h3.198zM15.992 63.81h-3.198V67h3.198zM9.595 63.81H6.397V67h3.198zM3.198 63.81H0V67h3.198z"/></svg>