<?xml version="1.0" encoding="UTF-8"?>
<svg xmlns="http://www.w3.org/2000/svg" id="Layer_1" viewBox="0 0 458.77 458.77">
  <defs>
    <style>.cls-1{fill:#f1f1f1;}</style>
  </defs>
  <path class="cls-1" d="M234.19,359.84h-9.05v14.01h8.79c6.15,0,9.02-2.47,9.02-6.63,0-4.51-3.33-7.38-8.76-7.38Z"></path>
  <path class="cls-1" d="M241,344.13c0-3.91-3.01-6.35-7.75-6.35h-8.1v12.89h7.87c4.65,0,7.98-2.41,7.98-6.55Z"></path>
  <path class="cls-1" d="M229.38,0C102.9,0,0,102.9,0,229.38s102.9,229.39,229.38,229.39,229.38-102.9,229.38-229.39S355.87,0,229.38,0ZM107.74,118.54c8.04-14.9,22.3-4.09,22.3-4.09l1.83,1.23,2.77-4.1-2.45-1.64c-1.73-1.87-1.62-4.78,.24-6.51,1.28-1.19,3.13-1.55,4.77-.93l6.63,4.47c1.73,1.87,1.62,4.78-.24,6.51-1.28,1.19-3.13,1.55-4.77,.93l-2.59-1.75-2.76,4.1,15.34,10.32,2.76-4.07-2.5-1.69c-1.74-1.86-1.64-4.77,.22-6.51,1.29-1.21,3.15-1.57,4.8-.94l6.63,4.47c1.74,1.86,1.64,4.77-.22,6.51-1.29,1.2-3.15,1.57-4.8,.94l-2.52-1.71-2.76,4.08,15.25,10.21,2.73-4.03-2.46-1.65c-1.74-1.86-1.64-4.77,.21-6.51,1.29-1.21,3.15-1.57,4.8-.94l6.64,4.48c1.74,1.86,1.64,4.77-.22,6.5-1.29,1.21-3.16,1.57-4.8,.93l-2.57-1.73-2.73,4.04,15.22,10.24,2.72-4.02-2.4-1.63c-1.73-1.87-1.62-4.78,.24-6.51,1.28-1.19,3.13-1.55,4.77-.93l6.63,4.48c1.74,1.85,1.65,4.76-.2,6.5-1.29,1.21-3.16,1.58-4.81,.94l-2.62-1.76-2.71,4.02,4.27,2.85c8.76,5.88,6.35,8.58,4.28,15.96-.6,1.58-.69,3.31-.26,4.94,.52,1.17,1.22,2.24,2.09,3.17l29.69,33.12-9.19,11.35-34.22-32.36c-5.48-5.49-9.62-9.72-15.98-10.57-5.82-.78-11.18,3.05-17.77-6.64-5-7.34-8.72-17.3-12.33-23.56-4.14-7.19-7.56-8.98-10.47-9.17-4.02-.27-9.49-.42-13.38-3.67-4.41-3.69-7.25-9.96-3.1-17.65Zm-10.24,141.16c-14.79,0-24.35-6.58-24.52-20.33h13.61c.32,5.66,4.45,8.59,10.74,8.59,5.71,0,9.07-2.5,9.13-6.09-.06-3.3-2.96-5.05-9.42-6.55l-6.15-1.44c-10.17-2.33-16.43-7.35-16.4-16.28-.09-10.94,9.59-18.26,23.03-18.26s22.43,7.44,22.54,18.44h-13.61c-.37-4.19-3.42-6.69-8.96-6.69s-8.27,2.33-8.3,5.54c-.12,3.5,3.27,5.28,8.61,6.43l5.05,1.15c11.6,2.56,17.95,8.3,18.01,17.69-.06,11.17-8.73,17.8-23.38,17.8Zm139.82,125.62h-26.39v-58.81h24.52c13.21,0,20.04,6,20.04,14.88,0,6.72-4.54,11.4-11,12.75v.57c7.12,.32,13.3,5.66,13.3,14.16,0,9.51-7.47,16.46-20.48,16.46Zm-7.91-149.53l-112.68,106.72,147.5-164.83c.87-.93,1.58-2,2.09-3.17,.43-1.63,.34-3.36-.26-4.94-2.07-7.38-4.48-10.09,4.28-15.96l4.27-2.85-2.71-4.02-2.62,1.76c-1.65,.64-3.52,.28-4.81-.94-1.85-1.74-1.94-4.65-.2-6.5l6.63-4.48c1.64-.62,3.49-.26,4.77,.93,1.87,1.73,1.97,4.65,.24,6.51l-2.4,1.63,2.72,4.03,15.22-10.24-2.73-4.04-2.57,1.73c-1.65,.64-3.51,.28-4.8-.93-1.86-1.74-1.95-4.65-.22-6.51l6.64-4.48c1.65-.63,3.51-.27,4.8,.94,1.86,1.74,1.95,4.66,.21,6.51l-2.46,1.65,2.73,4.03,15.25-10.21-2.76-4.08-2.52,1.71c-1.65,.63-3.51,.27-4.8-.94-1.86-1.74-1.95-4.65-.22-6.51l6.63-4.47c1.65-.63,3.51-.27,4.8,.94,1.86,1.74,1.95,4.65,.22,6.51l-2.5,1.69,2.76,4.08,15.34-10.32-2.76-4.1-2.59,1.75c-1.64,.62-3.49,.26-4.77-.93-1.87-1.73-1.97-4.65-.24-6.51l6.63-4.47c1.64-.62,3.48-.26,4.77,.93,1.87,1.73,1.98,4.65,.25,6.51l-2.45,1.64,2.77,4.1,1.83-1.23s14.26-10.81,22.3,4.09c4.14,7.69,1.31,13.95-3.1,17.65-3.89,3.25-9.36,3.41-13.38,3.67-2.91,.19-6.33,1.98-10.47,9.17-3.61,6.26-7.33,16.22-12.33,23.56-6.59,9.69-11.95,5.86-17.77,6.64-6.36,.85-10.5,5.08-15.98,10.57l-39.26,37.19,103.57,115.52-112.86-106.73Zm153.09,21.17h-37.51v-57.03h13.78v45.84h23.73v11.19Z"></path>
</svg>
