<?xml version="1.0" encoding="UTF-8"?>
<svg xmlns="http://www.w3.org/2000/svg" width="897.034" height="128.512" viewBox="0 0 897.034 128.512">
  <g id="Group_1933" data-name="Group 1933" transform="translate(-952.41 -810.496)">
    <g id="Group_1934" data-name="Group 1934" transform="translate(0 184)">
      <path id="Path_647" data-name="Path 647" d="M44.775-66.825q.225-.675-.112-.338t.112.338v.45q-9.45,4.95-18.9,9.675T6.3-47.925Q4.05-44.1,1.913-40.275T-2.025-32.4H-2.7a16.078,16.078,0,0,1-1.913,5.287q-1.462,2.588-3.038,4.837a26.54,26.54,0,0,1-2.025,4.388A30.641,30.641,0,0,0-11.7-13.725a3.861,3.861,0,0,0-1.575.225l-1.35.675a3.947,3.947,0,0,1-.45-1.125q0-.225-.675-.675-.45-.45-.113-.45t.562-.45q0-.45-.112-.225t-.563.225a7.354,7.354,0,0,1-.113-2.138,8.627,8.627,0,0,1,.563-1.912q0-.225-.675-.225a4.4,4.4,0,0,0,.337-.9,4.4,4.4,0,0,1,.338-.9q-.45-.45-.675.45t-.9.675q.225-.45.563-1.012A2.815,2.815,0,0,0-16.2-22.95q-.45-.225-.45.9a1.041,1.041,0,0,1-.113-1.238,3.414,3.414,0,0,0,.338-1.237q-.225-.45-.45.113A2.764,2.764,0,0,0-17.1-23.4a17.813,17.813,0,0,1,2.25-6.525q0-.225-.675-.225A30.835,30.835,0,0,0-13.95-33.3q.675-1.575,1.35-3.375-.675-.225-.45.45T-13.5-36a12.483,12.483,0,0,1,2.137-4.838A10.694,10.694,0,0,0-9.45-45.9q.45,0,.562-.562T-8.1-46.8a7.884,7.884,0,0,1,.45-2.475,1.672,1.672,0,0,1-.45-1.238q0-.787-.9-.787,0-1.125.45-1.125a11.594,11.594,0,0,1-1.237-1.463,2.788,2.788,0,0,1-.338-2.137A6.332,6.332,0,0,1-6.3-58.05a9.985,9.985,0,0,0,4.275-1.8A104.892,104.892,0,0,1,3.938-70.987Q7.2-76.275,10.125-81.9q-.675-1.575-1.687-3.712A18.859,18.859,0,0,1,6.975-90a10.259,10.259,0,0,1,0-4.275A5.445,5.445,0,0,1,9.45-97.65q6.525-2.025,13.163-4.388t13.837-4.387a143.917,143.917,0,0,1,15.3-3.375,125.078,125.078,0,0,1,17.55-1.575q6.975,0,9.9,4.613A43.094,43.094,0,0,1,83.925-96.3a20.15,20.15,0,0,1-6.862,9Q72.45-83.925,67.95-81a6.673,6.673,0,0,1-1.462,1.463q-1.013.788-1.688.113,0,.45.113.45t.112.45q-4.5,2.475-8.775,5.287a49.208,49.208,0,0,1-8.775,4.613q0,.675-.9,1.125A8.794,8.794,0,0,1,44.775-66.825ZM31.05-88.875a4.111,4.111,0,0,0-.337,2.025,5.279,5.279,0,0,1-.337,2.25,6.8,6.8,0,0,0-2.138,2.25,3.928,3.928,0,0,1-2.587,1.8,58.37,58.37,0,0,1-3.712,5.738,38.878,38.878,0,0,0-3.487,5.737Q31.5-75.15,43.537-82.125A253.963,253.963,0,0,0,66.6-97.2h-.45a147.82,147.82,0,0,0-17.663,2.588A76.724,76.724,0,0,0,31.05-88.875ZM63-78.075q.675,0,.675-.45Q63-78.525,63-78.075ZM-16.2-25.65q.225.675.225,0T-16.2-25.65ZM143.775-99.675a1.277,1.277,0,0,1-.337,1.688,1.528,1.528,0,0,0-.562,1.687q-.225,0,.45-.675.45.225.113.45t-.113.675q-.45,0-.45-.225t-.45.225a.4.4,0,0,0,.45.45q.45,0,.225.45-.9,0-1.125,1.125a2.691,2.691,0,0,0,0,1.575q.45,0,.225-.45a.445.445,0,0,1,.225-.675q.45.45.113,1.463a3.753,3.753,0,0,1-.788,1.462.742.742,0,0,1,0-.787,1.386,1.386,0,0,0,.225-.788q-1.35.675-.788,1.575t-.562,1.575q-.225.45.112.45a.763.763,0,0,1,.563.225q-.225.45-1.125.45a4.4,4.4,0,0,1,.338.9.532.532,0,0,0,.563.45,1.672,1.672,0,0,0-.45,1.237q0,.788-.9.788a.757.757,0,0,1,.338-.675q.337-.225.112-.9a2.909,2.909,0,0,0-1.012,2.25,10.236,10.236,0,0,0,.113,2.7,2.617,2.617,0,0,0-.675.45q-.225.225-.675,0a23.456,23.456,0,0,1-1.012,3.938l-1.463,4.388a4.74,4.74,0,0,1,.787.113,6.322,6.322,0,0,0,1.238.112,6.224,6.224,0,0,1,2.25-1.012,2.544,2.544,0,0,1,2.025.112q.9-.45,2.137-1.012a1.978,1.978,0,0,1,2.137.112q1.575-.45,4.275-1.125a11.236,11.236,0,0,1,4.95-.225.2.2,0,0,0,.225.225q-.225.675.675.563t.675-.562h-1.35q0-.45-.113-.45t-.113-.45q1.125-.45,1.462,0t1.462,0q.225.675-.337.45t-.337.45q.45,0,1.8-.112a14.434,14.434,0,0,0,2.25-.338q0-.45-.112-.45t-.113-.45a1.083,1.083,0,0,1,.787.9,1.218,1.218,0,0,1-.337,1.125,7.13,7.13,0,0,0-3.15-.225A4.374,4.374,0,0,0,155.7-72.9q.45.45.675-.225t.675-.45v.675q.45.225.338-.45t.563-.45q0,.225-.113.225t-.112.45a8.377,8.377,0,0,0,3.938-.562,3.735,3.735,0,0,1,3.487.113,3.913,3.913,0,0,1-2.137.337,3.821,3.821,0,0,0-2.363.563q.225.45.337.113t.563-.113a2.593,2.593,0,0,1-.9,1.8q.675.45,1.013.225a4.354,4.354,0,0,1,1.237-.45q-.45-.45-.225-.675t-.45-.225q.225-.675.675-.225t.675-.45a1.542,1.542,0,0,1-.225,1.8q-.675.675.675,1.35.45,0,.113-.45t.563-.225a.4.4,0,0,0,.45.45.4.4,0,0,0-.45-.45q0-.225.675-.225.225-.45-.113-.562t.113-.562l.675.675q.45.45.45-.45.45,0,.45.9a2.337,2.337,0,0,0,1.8-.225,1.125,1.125,0,0,1,1.35,0,3.462,3.462,0,0,1-2.138.675,2.25,2.25,0,0,0-1.913.9.36.36,0,0,1,.225-.337.36.36,0,0,0,.225-.338q-1.125.225-2.7.675a10.084,10.084,0,0,1-2.7.45v.9a32.528,32.528,0,0,0,3.262-.562,5.1,5.1,0,0,1,2.813.112,3.984,3.984,0,0,0,1.238-.675.962.962,0,0,1,1.237,0,3.78,3.78,0,0,1-3.487,1.125,3.062,3.062,0,0,0-3.263,1.35,6.019,6.019,0,0,0-2.25.45,1.745,1.745,0,0,1-2.025-.45q-.45.225-.45.563t-.45.563a14.312,14.312,0,0,0-3.825.563q-2.025.563-3.825,1.013.45.9.787.337a.773.773,0,0,1,1.013-.337q-.225.9-1.462.675t-1.463.675a1.125,1.125,0,0,0,1.35,0,2.337,2.337,0,0,1,1.8-.225,21.378,21.378,0,0,1-8.325,1.8,4.929,4.929,0,0,1-3.262,1.125,6.9,6.9,0,0,0-3.488.9q-.45.225-.112.788t-.788.112a.2.2,0,0,1,.225-.225.2.2,0,0,0,.225-.225q0-.45-.338-.225a1.093,1.093,0,0,1-.562.225.4.4,0,0,0,.45.45v.675q-.675,0-.675-.225-.225,0-.225.675a7.713,7.713,0,0,1-1.463-.112,2.4,2.4,0,0,0-1.238.112q0-.225.113-.225t.113-.45a1.012,1.012,0,0,0-.9.337.757.757,0,0,1-.675.338,2.752,2.752,0,0,1-.45,2.138,4.159,4.159,0,0,0-.675,2.363q-.225,0-.225-.113t-.225-.112q-.45.225-.225.9a4.247,4.247,0,0,1,.225,1.35.36.36,0,0,0-.338.225q-.112.225-.562,0-.45.675-.113.787t.338.788q-.225,0-.225.112t-.45.112q-.225.45,0,.563t.225.563a.458.458,0,0,0-.338.113.458.458,0,0,1-.337.112,32.4,32.4,0,0,1-1.8,6.75,31.644,31.644,0,0,0-1.8,7.2.458.458,0,0,0-.338.112.458.458,0,0,1-.338.112,4.68,4.68,0,0,1,.225,1.8,2.75,2.75,0,0,1-1.238,1.013q-.788.338-.337,1.462-.225,0-.225-.112t-.45-.113q.45.45-.225,1.35t0,1.35a1.28,1.28,0,0,0-.9,1.575,1.28,1.28,0,0,1-.9,1.575q-.225-.45.113-.675t.113-.675q-.45,0-.675.563t-.45-.562q-.45.45-.113.788a.624.624,0,0,1,.113.788q-1.125-.45-.9.225a.629.629,0,0,1-.45.9q.225.45.563.113a.624.624,0,0,1,.787-.113q-.45,1.125-1.012.9t-1.013.9q.9,1.125,0,1.8A4.465,4.465,0,0,0,115.2-16.2q-.225.675.338.787t.338.562q-.9-.225-.9.563t.45,1.013a1.063,1.063,0,0,0-.9,1.125,1.514,1.514,0,0,1-.675,1.35q-.225-1.125.225-1.35t0-1.35q.45-.225.338-.9a1.218,1.218,0,0,1,.338-1.125q-1.125.225-.675,2.025a.4.4,0,0,0-.45.45q0,.45-.45.225a4.334,4.334,0,0,1-.225,3.6q-.9,1.8-1.575,3.375-.45,0-.225-.675t-.225-.675a8.73,8.73,0,0,0-.45,1.125A1.019,1.019,0,0,0,110.7-4.95q0,.45-.45.225a.445.445,0,0,1-.225-.675,1.514,1.514,0,0,0-.675,1.35,1.392,1.392,0,0,1-.45-1.575q-.225-.45-.45.113a2.414,2.414,0,0,1-.45.787q-.675-.45-.338-.787t.112-1.238q-.45.675-.787.563t-.562.563a2.29,2.29,0,0,1-.225-1.687,4.09,4.09,0,0,0,0-1.913,195.48,195.48,0,0,1,3.6-21.712q2.25-9.787,5.175-20.812a1.652,1.652,0,0,0-1.575-.112,3.769,3.769,0,0,0-1.35.787h1.35q0,.45-.562.45a.806.806,0,0,0-.787.45.532.532,0,0,1-.562-.45q-.113-.45-.788-.225-.45.225-.113.563t-.112.563a2.723,2.723,0,0,0-1.575.337,8.449,8.449,0,0,0-.9.787,4.378,4.378,0,0,0-1.687-.112q-.788.113-1.012,1.238a2.567,2.567,0,0,0-2.25.112,4.172,4.172,0,0,1-2.25.563q0-.225.112-.225t.112-.45q-.45,0-.562.225t-.563,0a.52.52,0,0,0,.338.563q.337.113-.112.563-.9,0-.562-.45t-.788-.225a.52.52,0,0,0,.338.562q.337.113.112.788a4.091,4.091,0,0,0-3.262.45A8.051,8.051,0,0,1,92.7-43.875q-.225.45-.45.45t-.45.45a9.425,9.425,0,0,0-4.838,1.125,5.273,5.273,0,0,1-3.937.675q-.45,0-.225.112t.225.563A2.75,2.75,0,0,0,81-39.825a6.492,6.492,0,0,0-3.488.788,9.5,9.5,0,0,0-2.25,2.025q-1.012,1.238-2.025,2.362a7.912,7.912,0,0,1-2.362,1.8q.225,1.8-1.8,2.25A27.468,27.468,0,0,0,64.8-32.513a4.461,4.461,0,0,1-2.925-3.262q-.675,0-.675.45A2.325,2.325,0,0,1,60.187-36.9a1.715,1.715,0,0,0-1.237-1.35,3.838,3.838,0,0,0,.675-2.362,3.194,3.194,0,0,1,.9-2.362q0-.45-.45-.225t-.675,0q-.225-.45.112-.45t.338-.45a3.526,3.526,0,0,0-.9-.675,3.526,3.526,0,0,1-.9-.675,1.039,1.039,0,0,1,1.125-.675q0-.45-.675-.45a2.358,2.358,0,0,1,1.575-1.462,3.114,3.114,0,0,0,1.8-1.463,1.958,1.958,0,0,0,2.025-.225,3.291,3.291,0,0,1,2.025-.675q8.55-11.25,17.213-22.275A215.148,215.148,0,0,1,101.925-93.6q6.975-6.975,14.063-13.838A61.674,61.674,0,0,1,132.525-118.8a3.04,3.04,0,0,1,2.813.9,5.386,5.386,0,0,0,2.587,1.575,8.4,8.4,0,0,0,2.813,2.813,6.489,6.489,0,0,1,2.588,3.037,1.987,1.987,0,0,1,1.688,1.688,2.176,2.176,0,0,1-.787,2.363q.45.45.563,0t.563-.225a1.685,1.685,0,0,0-.225,1.463,7.424,7.424,0,0,0,.45,1.237,1.78,1.78,0,0,0-1.125-.225q-.45.45,0,.787t0,.788q-.45.225-.45-.225a.917.917,0,0,1,.225-.675q-.675-.225-.675.45v1.125q.675-.675.9,0a1.019,1.019,0,0,1-.225,1.125q-.675,0-.45-.225t-.225-.675q-.45.225-.225,1.012a1.728,1.728,0,0,1,0,1.238.2.2,0,0,0,.225-.225Zm-.225-9.45H144v-.45h-.45Zm.9,1.8a1.192,1.192,0,0,1,0-1.013q.225-.562-.45-.338a2,2,0,0,0-.225.9Q143.775-107.325,144.45-107.325Zm-.225,2.925q.45.45.563-.338t-.338-.787A1.78,1.78,0,0,0,144.225-104.4ZM126.9-99.225q-.45,0-.45.225Q126.9-99,126.9-99.225Zm16.425.9A.917.917,0,0,0,143.55-99q0-.45-.45-.225Q143.1-98.325,143.325-98.325ZM110.7-64.8q-.225.675.113.337T110.7-64.8a13.465,13.465,0,0,1,4.05-1.238,15.031,15.031,0,0,0,4.5-1.463q2.475-7.875,4.725-15.075t4.725-15.75a78.069,78.069,0,0,0-10.012,8.888q-4.837,5.063-9.562,9.787Q104.4-74.7,99.9-69.525t-8.55,10.8q4.95-1.575,9.563-3.15T110.7-64.8Zm14.4-33.075q-.45,0-.45.225Q125.1-97.65,125.1-97.875Zm-2.925,3.6a.6.6,0,0,0,.675-.675q-.45-.225-.45.112A.763.763,0,0,1,122.175-94.275Zm18.675.9q.45,0,.787-.787t-.337-.787a.757.757,0,0,1-.338.675Q140.625-94.05,140.85-93.375ZM118.125-90.45q.45.225.9-.9A.8.8,0,0,0,118.125-90.45Zm-11.7,1.125q.225.45.338-.112T106.425-89.325Zm9.9.675q.225.45.337-.112T116.325-88.65Zm-1.125.9q.675,0,.675-.45Q115.2-88.2,115.2-87.75Zm23.625.45h.45v-.45h-.45Zm-25.875.675a.445.445,0,0,0,.675-.225q.225-.45-.225-.45,0,.45-.225.45A.2.2,0,0,0,112.95-86.625Zm-.9.9q.45.675.337.113T112.05-85.725Zm-.225,1.35q.675,0,.675-.45h-.45q0,.225-.113.225T111.825-84.375Zm-2.25,2.025Zm27.45.9q.225.675.225,0T137.025-81.45Zm-29.475.675q0-.45.563-.225t.112-.45a.624.624,0,0,0-.787.112Q107.1-81,107.55-80.775Zm30.825-.45q.225.675.225,0T138.375-81.225ZM106.65-79.65q.225-.675.563-.45a1.386,1.386,0,0,0,.788.225q0-.9-.9-.562T106.65-79.65Zm29.925.225q.225.675.225,0T136.575-79.425Zm0,.9h.45v-.45h-.45ZM106.2-78.3q.675,0,.675-.45Q106.2-78.75,106.2-78.3Zm26.775,0q.225.675.225,0T132.975-78.3Zm2.925.9q0-.225.337-.225t.113-.45a.445.445,0,0,0-.675.225Q135.45-77.4,135.9-77.4Zm-31.725,1.35a1.352,1.352,0,0,0-.9.9.8.8,0,0,0,.9-.9h.45v-.45A.4.4,0,0,0,104.175-76.05Zm31.275-.225q.225.675.225,0T135.45-76.275Zm.45,1.125h.45v-.45h-.45Zm-41.175.675q.225.675.225,0T94.725-74.475Zm58.5.45a.822.822,0,0,0,1.012-.225q.338-.45.788,0,0-.675-.9-.45T153.225-74.025Zm-2.475-.45q-.45,0-.45.225Q150.75-74.25,150.75-74.475Zm.675.45q-.225.675.675.45t.9-.675a2.493,2.493,0,0,0-.788.113A2.493,2.493,0,0,1,151.425-74.025Zm-1.575.45q.45,0,.45.112t.45.113q.225-.45-.337-.562T149.85-73.575Zm5.85.225q0-.225-.45-.675Q154.8-73.125,155.7-73.35Zm-11.25-.225q-.225,0-.225-.113T144-73.8q-.45.45-.113.563T144.45-73.575Zm3.15.45a.2.2,0,0,1,.225.225.2.2,0,0,0,.225.225,3,3,0,0,0,.788-.562q.338-.337.788.113,0-1.125-.9-.562A3.508,3.508,0,0,1,147.6-73.125Zm5.175.675H153.9q0-1.125-.45-1.125Q153.225-73.575,152.775-72.45Zm1.8-.9q.225.675.225,0T154.575-73.35Zm-54.225.675a.36.36,0,0,1,.225-.337q.225-.113-.225-.338a.36.36,0,0,1-.225.338Q99.9-72.9,100.35-72.675ZM151.425-72q.45-.45,1.125,0a1.727,1.727,0,0,1-.225-.675.648.648,0,0,0-.225-.45q.225.9-.45.675T151.425-72Zm-5.4-.45h.45v-.45h-.45Zm8.775,0h.45v-.45h-.45Zm2.925.9q1.8-1.35,3.15,0a2.565,2.565,0,0,0-.9-1.35,4.368,4.368,0,0,1-1.35.338q-.9.113-1.575.225a1.282,1.282,0,0,0-.9.45q-.225.337.225,1.012l.675-.675q0,.45.338.45T157.725-71.55Zm-23.4-.9q.225.45.338-.113T134.325-72.45Zm4.95,0q.225.675.225,0T139.275-72.45ZM149.4-72q.45-.45.563,0t.563.225q0-.675-.788-.787T149.4-72Zm-16.2-.225q.225.675.225,0T133.2-72.225Zm10.575,0q.225.675.225,0T143.775-72.225Zm4.275,0q0,1.125.9,1.125a1.025,1.025,0,0,1-.113-.787q.112-.337-.337-.562Q148.5-72.225,148.05-72.225ZM100.35-72Zm41.85,0q.225.675.225,0T142.2-72Zm.675.225h.45v-.45h-.45Zm-8.55.225q.675,0,.675-.45Q134.325-72,134.325-71.55Zm20.7,1.125a2.233,2.233,0,0,1-.225-1.013q0-.562-.675-.562a1.4,1.4,0,0,1,.45,1.013Q154.575-70.425,155.025-70.425ZM141.3-71.55q.45.675.337.112T141.3-71.55Zm11.475,0q.225.675.225,0T152.775-71.55Zm7.65.9a1.025,1.025,0,0,1-.562-.562,1.025,1.025,0,0,0-.562-.562,2.017,2.017,0,0,0,.338,1.012Q159.975-70.2,160.425-70.65Zm-13.275-.675q0,.45.337.112T147.15-71.325Zm11.7,0q.225.675.225,0T158.85-71.325Zm-12.6.225q.225.675.225,0T146.25-71.1Zm5.4.225h.675q0-.45-.675-.45Zm3.6-.225q.225.675.225,0T155.25-71.1Zm-16.875.225q.225.45.337-.112T138.375-70.875Zm15.075.675q.675,0,.675-.9-.45-.225-.338.225A.547.547,0,0,1,153.45-70.2Zm4.05.225a1.5,1.5,0,0,0,.9-.338q.45-.337,0-.788,0,.45-.562.45T157.5-69.975ZM142.2-70.2a.2.2,0,0,1,.225-.225.4.4,0,0,0-.45-.45Q141.975-70.2,142.2-70.2Zm16.875-.45q.225.675.225,0T159.075-70.65Zm-22.05.225q.225.675.225,0T137.025-70.425Zm13.95,0Zm-53.325.45h.45v-.45h-.45Zm1.125-.225q.45.675.338.113T98.775-70.2Zm40.725,0q.225.675.225,0T139.5-70.2Zm12.15.225h.675q0-.45-.675-.45ZM153-70.2a.2.2,0,0,0-.225-.225.2.2,0,0,0-.225.225.36.36,0,0,1,.338.225Q153-69.75,153-70.2Zm3.825,0q-.675,0-.675.45Q156.825-69.75,156.825-70.2Zm2.025.225q.225.675.225,0T158.85-69.975Zm2.25.225h.45v-.45h-.45Zm-63.9,0Zm53.55,0q0-.225-.337-.225t-.338.225q-.225.45.338.45T150.75-69.75Zm-1.575.225q.225.675.225,0T149.175-69.525Zm4.275,0q0,.45.225.45a.2.2,0,0,1,.225-.225.2.2,0,0,0,.225-.225Zm8.775,0q.225.675.225,0T162.225-69.525Zm-23.4.225q.225.675.225,0T138.825-69.3Zm21.6,0q.225.45.338-.112T160.425-69.3Zm1.125,0q.225.675.225,0T161.55-69.3Zm-10.125.45h.45v-.45h-.45Zm6.75.225q0-.45.563-.225t.113-.45a.624.624,0,0,0-.788.113Q157.725-68.85,158.175-68.625ZM138.6-68.85q-.675-.45-.562,0T138.6-68.85Zm11.25.225Zm4.95.225q-.225,1.125,0,.225T154.8-68.4Zm4.275.675a.872.872,0,0,0,1.012.225q.563-.225.563-.675a.872.872,0,0,0-1.012-.225Q159.075-68.175,159.075-67.725ZM145.35-67.95v.45q.45.45.562-.113t-.337-.562A.2.2,0,0,1,145.35-67.95Zm11.475.225a1.763,1.763,0,0,1-.45.338,1.762,1.762,0,0,0-.45.337q.45.45.787.225T156.825-67.725Zm-1.8.225q.225.675.225,0T155.025-67.5Zm-12.6.45v.45h.45a.2.2,0,0,1,.225-.225v-.45h-.45A.2.2,0,0,1,142.425-67.05Zm10.35.45a.932.932,0,0,0,1.012-.113q.338-.337-.337-.562,0,.45-.562.338T152.775-66.6Zm-9.45-.225q.225.675.225,0T143.325-66.825Zm6.525.225h.45v-.45h-.45Zm5.4-.225Zm6.525-.225h-.9q-.45.9.225.675T161.775-67.05Zm-20.7.45q.225.675.225,0T141.075-66.6Zm9.675.45q1.125,0,1.125-.675A1.039,1.039,0,0,0,150.75-66.15Zm-13.5,0v.45h.45q.45-.45-.225-.675A.2.2,0,0,1,137.25-66.15Zm1.8.225h.45v-.45h-.45ZM94.95-64.8l-.675-1.35v1.013Q94.275-64.575,94.95-64.8Zm51.3-1.35q-.225,1.125.225.675T146.25-66.15Zm2.475.9a.763.763,0,0,0,.225-.562q0-.337-.45-.338Q148.5-65.25,148.725-65.25ZM136.35-65.7q.225.675.225,0T136.35-65.7Zm3.6.225v.45h.45q.45-.45-.225-.675A.2.2,0,0,1,139.95-65.475Zm6.525.9a4.016,4.016,0,0,1,1.012-.338.693.693,0,0,0,.563-.787,7.422,7.422,0,0,1-1.237.45Q146.025-65.025,146.475-64.575Zm-52.875,0a.917.917,0,0,0,.225-.675q0-.45-.45-.225Q93.375-64.575,93.6-64.575Zm40.05-.225q.45.675.337.112T133.65-64.8Zm11.025.45h.45v-.45h-.45ZM93.6-64.125q.225,0,.225.113t.225.112q0-.225.113-.225t.112-.225q-.225,0-.225-.112t-.225-.112q0,.225-.113.225T93.6-64.125ZM145.575-63q0,1.125.337.9t.563.45a.891.891,0,0,1,1.125-.113.891.891,0,0,0,1.125-.112q-.675-1.125.112-1.013t.788-.787a3.346,3.346,0,0,0-1.687.337,2.815,2.815,0,0,1-1.463.338q0-.9-.225-.9a.623.623,0,0,0-.113.9Q146.475-62.55,145.575-63ZM92.25-63a2,2,0,0,1,.9-.225.721.721,0,0,0,.675-.45Q92.25-63.675,92.25-63Zm52.65.675h.45v-.45h-.45Zm.225.675h.45v-.45h-.45Zm-4.725.225q.225.675.225,0T140.4-61.425Zm2.025.9v-.45q0-.45-.225-.45,0,.225-.675.225a.4.4,0,0,0-.45-.45q0,.675.45.787A4.4,4.4,0,0,1,142.425-60.525Zm-3.15.9q.45.45.675-.563t-.45-.787q.225.45-.113.675T139.275-59.625Zm1.35-.45a.36.36,0,0,1,.225-.338.36.36,0,0,0,.225-.338.445.445,0,0,0-.675.225Q140.175-60.075,140.625-60.075Zm-5.85,0q.225.675.225,0T134.775-60.075Zm1.35,1.125q0-.225-.45-.675Q135.675-58.95,136.125-58.95Zm-1.8.45q.675.675,1.125-.45a.36.36,0,0,1-.337-.225.36.36,0,0,0-.338-.225q0,.45-.337.45T134.325-58.5ZM90.45-59.175q-.45,0-.45.225Q90.45-58.95,90.45-59.175Zm42.075.675q.225.675.225,0T132.525-58.5Zm.9,1.125q1.125,0,1.125-.45-.225-.45-.563-.225A1.7,1.7,0,0,0,133.425-57.375Zm1.8-.675q-.45,0-.45.225Q135.225-57.825,135.225-58.05Zm-24.975,1.8a.2.2,0,0,0-.225-.225.2.2,0,0,0-.225.225.36.36,0,0,1,.338.225Q110.25-55.8,110.25-56.25Zm-8.1.675q.225.675.225,0T102.15-55.575Zm7.2.9q-.45,0-.45.225Q109.35-54.45,109.35-54.675Zm0,4.5q1.125,0,.9-.45Q109.35-50.625,109.35-50.175Zm-1.125.45q.675,0,.675-.45Q108.225-50.175,108.225-49.725Zm-4.95,0q.225.675.225,0T103.275-49.725Zm3.825.225q.225.675.225,0T107.1-49.5Zm-1.35.45h-.45a.2.2,0,0,0-.225.225q-.45.45.337.337T105.75-49.05Zm-4.725.45q.225.675.225,0T101.025-48.6Zm2.475.45h.9q.45,0,.225-.45H103.5Zm-1.35.225q.225.675.225,0T102.15-47.925Zm-.9.225q-.225,1.125,0,.225T101.25-47.7ZM98.1-46.125a.36.36,0,0,1,.225-.337q.225-.113-.225-.338a.36.36,0,0,1-.225.338Q97.65-46.35,98.1-46.125Zm-2.475.675a.624.624,0,0,0,.787-.112q.337-.337-.113-.562,0,.45-.338.337T95.625-45.45ZM91.8-44.325h-.45a.2.2,0,0,0-.225.225q-.225.675.45.45T91.8-44.325Zm-.9.225h-.45a.2.2,0,0,0-.225.225q-.225.675.45.45T90.9-44.1Zm-3.375,1.575q.675,0,.675-.45Q87.525-42.975,87.525-42.525ZM124.2-34.65a.2.2,0,0,0-.225-.225.2.2,0,0,0-.225.225.36.36,0,0,1,.337.225Q124.2-34.2,124.2-34.65Zm-1.35,2.25q.225.45.338-.113T122.85-32.4Zm-.225.9a.36.36,0,0,1,.337.225q.113.225.563,0,.225-.45-.337-.562T122.625-31.5Zm-3.6,4.275q0,.45.225.45a.2.2,0,0,1,.225-.225q0,.675.225.675,0-.45.337-.338t.338-.337q-.45.225-.562,0a1.218,1.218,0,0,0-.562-.45A.2.2,0,0,1,119.025-27.225Zm-4.5,11.475.45-.9q-.45-.225-.675.337T114.525-15.75ZM109.35-7.875a6.056,6.056,0,0,1,.338-1.912,2.06,2.06,0,0,0,.112-1.463,3.917,3.917,0,0,0-.787,1.688Q108.675-8.325,109.35-7.875Zm3.15-2.25q.225.675.225,0T112.5-10.125Zm-4.275,3.6q.45-.225.45.225t.45.225a.742.742,0,0,1,0-.787q.225-.337-.225-.788a2.6,2.6,0,0,1-.337.563A2.6,2.6,0,0,0,108.225-6.525Zm35.55-93.15q0-.675.45-.675v.45a.2.2,0,0,0-.225.225ZM142.65-94.5q.675.45.113.45T142.65-94.5ZM139.5-83.025q.225-.675.225,0T139.5-83.025Zm-1.125,4.275q.45.225.112.9t-.787.45a1.412,1.412,0,0,0,.338-.562A6.171,6.171,0,0,1,138.375-78.75ZM161.1-76.725q-.225.45-1.125.45Q159.975-76.725,161.1-76.725Zm-2.475.675q.225-.675.225,0T158.625-76.05Zm9.225-.225q.225.45-.113.45t-.337.225q-.45,0-.225-.45A.445.445,0,0,1,167.85-76.275Zm-1.575.45a2.978,2.978,0,0,1-1.687.45H162.45a1.686,1.686,0,0,1,1.688-.562Q165.375-75.825,166.275-75.825ZM159.3-75.6q.225-.675.225,0T159.3-75.6Zm14.85.225h.45v.45h-.45Zm-1.8.225h.45q0,.45-.675.45,0-.225.112-.225T172.35-75.15Zm-1.575.225q.675,0,.675.45h-.675Zm-7.875.45q.225-.675.225,0T162.9-74.475Zm6.3-.225q0,.45-.562.45a2.233,2.233,0,0,0-1.012.225q0-.45.563-.45A2.233,2.233,0,0,0,169.2-74.7Zm1.35,0q0,.45-.675.45Q169.875-74.7,170.55-74.7Zm-3.375.45q-.225.45-.562.45a1.813,1.813,0,0,0-.787.225q0,.9.45.9a.721.721,0,0,1-.675.45,1.3,1.3,0,0,0-.9.45.623.623,0,0,1-.113-.9A.822.822,0,0,1,165.6-72.9q-.45-.9.225-1.35A1.125,1.125,0,0,1,167.175-74.25Zm.225.9q.45-.675.337-.113T167.4-73.35Zm6.975.675q.225-.675.225,0T174.375-72.675Zm-7.2,0q.675,0,.675.45h-.675Zm-9.45,1.125a.4.4,0,0,1-.45-.45A.4.4,0,0,1,157.725-71.55Zm4.05-.45q.45,0,.337.563t-.562.113v-.45A.2.2,0,0,0,161.775-72Zm11.925.675q0,.675-.9.675Q172.8-72.225,173.7-71.325Zm-8.775,0q.225.45-.337.45t-.562.45q-.45-.45,0-.675A2,2,0,0,1,164.925-71.325Zm9.45.225q0-.225.45-.225Q174.825-71.1,174.375-71.1Zm-2.025.675a1.3,1.3,0,0,0-.9-.225q.225-.45.563-.45T172.35-70.425Zm-1.8,0q.45-.675.338-.113T170.55-70.425Zm.9,1.125Zm1.125-.225h.45q0,.45-.675.45,0-.225.112-.225T172.575-69.525Zm-5.85,2.7a2.225,2.225,0,0,0-1.575.112,2.8,2.8,0,0,1-1.8.113,10.443,10.443,0,0,1,1.8-.562Q166.5-67.5,166.725-66.825Zm-6.525,1.8q.225-.675.225,0T160.2-65.025Zm-3.15.9q-.45,0-.45-.675Q157.05-64.8,157.05-64.125Zm5.625-.675a1.8,1.8,0,0,1-1.35.787,14.5,14.5,0,0,1-1.8.112A13.951,13.951,0,0,1,162.675-64.8Zm-5.625.675a1.3,1.3,0,0,0,.9.45,11.934,11.934,0,0,1-2.475.675q-1.35.225-2.925.45-.225-.45,0-.562t.225-.562q.45-.225.337.225a.547.547,0,0,0,.338.675,1.025,1.025,0,0,0,.563-.562,2.216,2.216,0,0,1,.563-.787q.45.9.675.45a3.526,3.526,0,0,1,.675-.9q.45.225.113.563a.921.921,0,0,0-.338.562A1.093,1.093,0,0,0,157.05-64.125Zm-9,1.35q0,.45-.337.338t-.337.338q-.45-.225-.113-.45A1.386,1.386,0,0,1,148.05-62.775Zm3.15,1.35q-.675.675-1.012.225T151.2-61.425Zm-2.7.45a1.3,1.3,0,0,1-.9.45Q147.6-60.975,148.5-60.975Zm-2.475.45q.45.45-.225.45T146.025-60.525Zm-3.6.9h.45q0,.45-.675.45,0-.225.113-.225T142.425-59.625Zm-27.9,8.1q.225.45-.9.45Q113.625-51.525,114.525-51.525ZM117.45-19.8q.45,0,.338.787t-.562.338A1.78,1.78,0,0,1,117.45-19.8ZM106.875-5.625h.45v.45h-.45Zm1.8,1.8q.675,0,.562.9A2.173,2.173,0,0,1,108.9-1.8a4.4,4.4,0,0,1-.337-.9A2.053,2.053,0,0,1,108.675-3.825Zm1.125,0h.45v.45h-.45ZM154.35-8.1q.45-1.8.675-2.475a.445.445,0,0,0-.675.225,4.4,4.4,0,0,0-.337.9,1.669,1.669,0,0,1-.45.787q-.337.338-1.012-.113,1.575-2.475,2.925-4.95A54.864,54.864,0,0,0,157.95-18.9a3.174,3.174,0,0,0-1.013,1.013q-.562.787-1.012.337.45-1.125,1.125-1.125a7.805,7.805,0,0,1,1.913-4.95,8.2,8.2,0,0,0,2.137-4.05,3,3,0,0,0-.675,1.013,1.482,1.482,0,0,1-1.125.788,1.685,1.685,0,0,1,.563-2.025,1.549,1.549,0,0,0,.113-2.25,3.128,3.128,0,0,0,1.913-1.575,13.218,13.218,0,0,1,1.237-2.025,2.539,2.539,0,0,0-.225-1.8q.675-.225.675-2.025a1.218,1.218,0,0,0,.563-.45,1.218,1.218,0,0,1,.563-.45,7.09,7.09,0,0,1,1.125-3.487A8.7,8.7,0,0,0,167.175-45a25.918,25.918,0,0,0,4.387-7.425,29.405,29.405,0,0,1,4.163-7.425q.9-2.25,1.8-4.162a21.312,21.312,0,0,1,2.25-3.713v-1.35a24.762,24.762,0,0,0,4.05-6.862,21.543,21.543,0,0,1,4.05-6.638,14.935,14.935,0,0,1,1.913-5.175,26.816,26.816,0,0,0,2.363-5.175,4.845,4.845,0,0,0,2.475-2.7,37.471,37.471,0,0,1,1.575-3.6q-1.35.225-2.925.338a4.826,4.826,0,0,1-2.475-.338,6.008,6.008,0,0,1-4.275.9,6.555,6.555,0,0,0-4.05.45q0-.45-.225-.45l-.675.675a16.268,16.268,0,0,1-4.613.225,6.916,6.916,0,0,0-4.163.9,18.411,18.411,0,0,0-8.55.225,26.127,26.127,0,0,1-9,.675,3.365,3.365,0,0,0-2.025-2.25q-.45-2.25-.9-4.725a13.725,13.725,0,0,1,0-4.95q0-.45-.225-.45t-.45-.45a3.134,3.134,0,0,1,.225-1.35,2.028,2.028,0,0,0,0-1.35q.675-1.125,1.463-2.25a4.128,4.128,0,0,1,2.137-1.575h3.15a10.063,10.063,0,0,0,4.388,1.8,26.253,26.253,0,0,0,5.512.338q2.925-.112,5.738-.338t5.287-.225q9.9-.9,19.238-2.363a91.011,91.011,0,0,1,18.563-1.012,6.8,6.8,0,0,1,3.15-.787l3.375.337a9.021,9.021,0,0,1,2.7-.562,6.078,6.078,0,0,1,2.7.338q1.125-.675,1.238-.338t1.237.113q.225.45,0,.45t-.225.45q.45,0,.563-.562t.563.338a1.29,1.29,0,0,1,1.575-.675q.225.45,0,.563a1.218,1.218,0,0,0-.45.563,2.05,2.05,0,0,1,1.575-.225q.675.225,1.125-.9.675,0,.45.675a1.019,1.019,0,0,0,.225,1.125,4.105,4.105,0,0,1,2.138.112,3.029,3.029,0,0,0,2.138-.112,1.27,1.27,0,0,1,.112.9q-.112.45,1.013.225a1.533,1.533,0,0,1,.112,1.012q-.112.563.337.338t.113-.562q-.338-.337.113-.787a3.291,3.291,0,0,1,1.125.112q.225.113.675-.337a6.267,6.267,0,0,0,2.7.45q.45.675,0,.787a.532.532,0,0,0-.45.563,2.442,2.442,0,0,0,.9-.45q.225-.225.675.225.225-.45,0-.675a.917.917,0,0,1-.225-.675q.9.225.9,1.8-.45.45-.562.225t-.787-.225q.45.675.9.675h1.35a.817.817,0,0,0,.563-1.012q-.112-.788.788-.562.225.45,0,.675a2.617,2.617,0,0,0-.45.675q.225.45.9.225t.675.225q.45,0,.337-.45a3.7,3.7,0,0,1-.113-.9q.675-.225.563.338a5.214,5.214,0,0,0-.112,1.013,1.526,1.526,0,0,1,1.8.338,2.261,2.261,0,0,0,2.025.563q.225.45-.225.337a.547.547,0,0,0-.675.338q.45.45.788,0t.788,0q.675,0,.225-.338t0-.337a4.6,4.6,0,0,1,2.025,0,1.533,1.533,0,0,1,.112,1.012q-.112.563.338.563t.225-.562q-.225-.563.45-.338a1.893,1.893,0,0,0,.225,1.575,3.2,3.2,0,0,1,.45,1.8,2.392,2.392,0,0,1-1.462.338,3.45,3.45,0,0,0-1.462.112,3.656,3.656,0,0,1,0,1.8q-.45,0-.45-.675a.6.6,0,0,0-.675-.675,2.777,2.777,0,0,1-2.025,1.35,17.089,17.089,0,0,1-2.813.225h-2.925a3.838,3.838,0,0,0-2.362.675q-.45.225-.45-.225a1.3,1.3,0,0,0-.45-.9,8.907,8.907,0,0,1-3.262,1.125,26.371,26.371,0,0,1-3.487.225h-3.6a8.476,8.476,0,0,0-3.375.675q-.45.225-.562-.338t-.562-.562q-.675,0-.675.9a13.38,13.38,0,0,1-2.025-.112q-.675-.113-1.35.787a3.636,3.636,0,0,0-3.037-.675,10.252,10.252,0,0,0-3.488.9,2.324,2.324,0,0,0-2.925-.225,6.2,6.2,0,0,1-3.6.675,38.467,38.467,0,0,0-3.825,7.425,45.537,45.537,0,0,1-3.825,7.65v1.35q-2.25,3.825-4.275,7.988T199.35-68.85q-.45-.225-.45.112t-.45.338v1.125a24.214,24.214,0,0,0-2.025,2.813,11.281,11.281,0,0,0-1.35,3.488q-2.25,3.825-4.388,7.65a81.114,81.114,0,0,0-3.937,8.1,8.413,8.413,0,0,0-2.025,3.488,5.747,5.747,0,0,1-2.475,3.262A3.44,3.44,0,0,1,181.125-36a50.865,50.865,0,0,1-4.95,9.9,85.094,85.094,0,0,0-5.4,9.675,2.233,2.233,0,0,0-.788.675,2.233,2.233,0,0,1-.787.675q.45,2.025-1.125,2.25a7.063,7.063,0,0,1-2.025,4.162,7.3,7.3,0,0,0-2.025,4.388,1.8,1.8,0,0,0-1.012.788,1.89,1.89,0,0,1-1.238.787q0,.225.45.45T162-1.8q-.45,0-.45-.675A8.872,8.872,0,0,0,160.538.113,8.494,8.494,0,0,1,159.3,2.925a43.862,43.862,0,0,0-3.262,3.15,28.555,28.555,0,0,0-2.812,3.6h-1.35a3.241,3.241,0,0,0-.45-2.475.721.721,0,0,0-.675.45q-.225.45-1.125.225.45-1.125.788-1.912A3.72,3.72,0,0,0,150.3,3.6q.9-1.8,1.8-3.488a7.321,7.321,0,0,0,.9-3.488,5.471,5.471,0,0,0,1.575-2.137A2.308,2.308,0,0,0,154.35-8.1Zm81-107.775a1.025,1.025,0,0,0,.788.112q.337-.112.112-.562A1.3,1.3,0,0,0,235.35-115.875Zm10.575,1.8q-.225,1.125.338.563T245.925-114.075Zm-1.575.45q-.45.45.112,0T244.35-113.625Zm3.6.9q0-.45-.45,0Zm4.725,2.25a.757.757,0,0,1,.338-.675q.337-.225-.562-.225Q252.9-110.475,252.675-110.475Zm3.15,0q.225-.45-.113-.45a.763.763,0,0,1-.562-.225A.6.6,0,0,0,255.825-110.475Zm3.375,0q.45.45.45-.113T259.2-110.475Zm2.025,1.8q0-.225-.562-.337a.645.645,0,0,0-.788.337,1.546,1.546,0,0,0,.788.338Q261.225-108.225,261.225-108.675Zm-7.2,2.925q-.225,1.125.338.563T254.025-105.75ZM170.55-48.6q-.45.45.113.45T170.55-48.6Zm-8.1,18q.45,0,.225.225h.45q0-.675-.225-.675Zm-2.925,7.65.45.225q0-.675-.45-.675Zm-.9.9q.225,1.125-.112,1.462a2.564,2.564,0,0,0-.562,1.013q1.125-.225,1.237-1.013a5.574,5.574,0,0,1,.563-1.687A2.5,2.5,0,0,0,158.625-22.05Zm-3.15,13.5q.225-.675-.45-.675Q155.25-8.55,155.475-8.55ZM240.75-116.775q0,.45-1.012.563a2.465,2.465,0,0,1-1.687-.338q.225-.45,1.125-.562A2.245,2.245,0,0,1,240.75-116.775Zm9.225,3.15a.52.52,0,0,1,.563.338q.112.337-.337.563Q249.525-113.175,249.975-113.625Zm12.15,4.05a.2.2,0,0,1,.225-.225h.225Q262.575-109.575,262.125-109.575ZM158.4-24.525a4.374,4.374,0,0,1-.9,2.25q-.675-.45-.112-1.35T158.4-24.525ZM156.825-21.6v.45q-.675.225-.45-.337T156.825-21.6Zm-1.8,4.725h.675a4.121,4.121,0,0,1-.9,1.912,6.344,6.344,0,0,0-1.125,2.138q-.675-.9.338-1.912A3.011,3.011,0,0,0,155.025-16.875ZM154.35-8.1a2.233,2.233,0,0,0-.225,1.012q0,.563-.9.563Q153.225-8.1,154.35-8.1Zm-2.25.225q.675-.225.563.225a1.427,1.427,0,0,1-.337.675Q152.55-6.975,152.1-7.875Zm-.9,2.025a.4.4,0,0,1,.45.45l-.225.225q-.225,0-.113-.225A.368.368,0,0,0,151.2-5.85Zm196.425-81.9v.45a.721.721,0,0,1,.675-.45.4.4,0,0,0,.45-.45q.225,0,.225.675a.52.52,0,0,0,.563-.338,1.412,1.412,0,0,1,.337-.562q.45,0,.45.9a6.835,6.835,0,0,1,3.262-.112q1.688.337,3.262.563-.225.675-.675.675t-.225,1.35a.742.742,0,0,0-.788,0,1.386,1.386,0,0,1-.787.225,3.668,3.668,0,0,1,1.35-1.125q0-.45-.225-.45a.2.2,0,0,1-.225-.225,21.116,21.116,0,0,0-1.913,2.25,2.015,2.015,0,0,1-2.812.45q-.45,0-.45.675-.45,0-.45-.675a1.3,1.3,0,0,1,.225-.9,1.834,1.834,0,0,0-1.35-.45,1.834,1.834,0,0,0-1.35.45,1.834,1.834,0,0,0,1.35.45,1.379,1.379,0,0,1-1.012.9q-.788.225-.562,1.35a4.6,4.6,0,0,0-2.025,0,2,2,0,0,1,.225-.9q.225-.45-.45-.675-.45,0-.225.45a.956.956,0,0,1,0,.9.623.623,0,0,1-.9.112q-.45-.337-.9.338a1.716,1.716,0,0,0,2.25.113q1.125-.788,2.25.787-.225.45-.562.113a.624.624,0,0,0-.788-.113q-.675,0-.45.9t-.675.675a1.071,1.071,0,0,0,.337-1.013q-.112-.562-.562-.562-.675,0-.112.45t.112.675q-.675.225-.675-.225a2,2,0,0,0-.225-.9,1.547,1.547,0,0,0-.337.787q-.112.563-.787.113-.45.225-.9,1.8a.822.822,0,0,1-.225-1.238,2.981,2.981,0,0,0,.45-1.463q-.675-.225-.675.675a3.134,3.134,0,0,1-.225,1.35l-.675.225-.225.675q-.45-.225-.337-.562a2.494,2.494,0,0,0,.112-.787,1.424,1.424,0,0,0-1.237.112,3.1,3.1,0,0,0-.9.787,7.343,7.343,0,0,1-.675.788.932.932,0,0,1-1.013.112,2.169,2.169,0,0,1,1.125-.9q.675-.225.675-1.35a9.463,9.463,0,0,1-4.5,2.475q0-.45.225-.562t0-.562q-.45.9-1.238.675t-1.238.9a.917.917,0,0,1-.225-.675q-.675-.225-.562.338t-.562.563q-.225-.45,0-.562t.225-.562q-1.125,0-.9.9t-.9,1.125a1.509,1.509,0,0,1,.338-1.575.945.945,0,0,0,.337-1.125q-.9,0-1.013.675a2.015,2.015,0,0,1-.562,1.125q-.225-.45,0-.562t.225-.562A6.37,6.37,0,0,0,324-75.375a1.746,1.746,0,0,1,.337-1.238l.788-.787-.225-.45a2.9,2.9,0,0,0-1.012,1.125A4.283,4.283,0,0,1,323.1-75.6q-.9,0-.225-.675t-.45-.45a8.45,8.45,0,0,1,.9-.788q.45-.337.225-1.237-.675.225-.675.787t-1.125.788a.917.917,0,0,0,.225.675q.225.225-.675.225.45.45.225.675a.917.917,0,0,0-.225.675q-.675-.225-.337-.675t-.112-.45q-.675-.225-.45.338t-.225.787a4.245,4.245,0,0,0-3.037.225,2.727,2.727,0,0,1-2.363.225q-.45,0-.337.563A1.071,1.071,0,0,1,314.1-72.9a.872.872,0,0,1-.225-1.012q.225-.562.45-1.238-.45-.225-.45.338a.806.806,0,0,1-.45.787,3.063,3.063,0,0,0-1.8.113A1.412,1.412,0,0,0,310.5-72.45q-.225-1.125-1.35-.675a1.071,1.071,0,0,1-1.575-.675,1.423,1.423,0,0,1-.788.675,3,3,0,0,0-1.013.675q-.225.45,0,.563t.225.563q-1.125-.225-.675-1.013a.822.822,0,0,0-.225-1.237q-.675-.225-.675.337a1.4,1.4,0,0,1-.45,1.013.4.4,0,0,1-.45-.45q-.675,0-.675,1.125a.547.547,0,0,0-.675-.338q-.45.112-.225-.338a1.752,1.752,0,0,0-.675,1.575q-.675,0-.675-.45a2,2,0,0,1,.225-.9q-.675-.45-.9.337t.225,1.013a4.4,4.4,0,0,1-.9.338,4.4,4.4,0,0,0-.9.338q-.225-.675.225-.9t0-.675a1.707,1.707,0,0,0-1.013.9q-.338.675-1.013-.225a2.233,2.233,0,0,1,.225,1.013q0,.562-.9.338-.225-.45,0-.563t.225-.562q-.45,0-.45.113t-.45-.113q-.45,0-.113.225t.113.675a6.236,6.236,0,0,1-1.463.563,3.549,3.549,0,0,0-1.237.563q0,.225.337.225t.113.45a1,1,0,0,0-.45.112,1.567,1.567,0,0,1-.675.113q-4.275,7.2-8.775,14.175t-9,14.175a8.361,8.361,0,0,0-.337,1.462A1.191,1.191,0,0,1,272.7-36.9a65.347,65.347,0,0,1-3.488,6.863Q267.3-26.775,265.5-23.4a1.3,1.3,0,0,1-.225-.9,12.875,12.875,0,0,1-2.475,2.25q0-1.125-.9-.9v-1.8q-.45,0-.45.675v1.125q-.675-.225-.788-.45t-.337.9a.4.4,0,0,1-.45-.45v-.9a.4.4,0,0,0-.45.45q-.45,0-.225-.45t0-.675l.225-.225q-.225-.225-.225.225a.4.4,0,0,0-.45.45q0,.45-.675.225a.917.917,0,0,1,.225-.675q.225-.225-.225-.675t-.45.113q0,.563-.45.337a2.5,2.5,0,0,1,.225-1.125,2,2,0,0,0,.225-.9q-.9.45-.675-.675-.45-.225-.338.45t-.562.45a1.567,1.567,0,0,1,.113-.675q.112-.225-.563,0a4.247,4.247,0,0,0,.225-1.35.882.882,0,0,0-.675-.9.806.806,0,0,0-.45.787q0,.563-.675.563a8.511,8.511,0,0,1,.563-5.737,29.159,29.159,0,0,0,2.138-5.513,119.513,119.513,0,0,1,7.538-14.062q4.162-6.637,8.438-13.162a12.517,12.517,0,0,0-4.838.675,29.293,29.293,0,0,1-5.287,1.125q-.45,0-.113.112t-.112.563a.4.4,0,0,1-.45-.45v-.9a4.8,4.8,0,0,0,2.475-.225,7.142,7.142,0,0,1,2.025-.45q-.675-.675-2.025-.112a13.293,13.293,0,0,1-2.475.787,2.493,2.493,0,0,1-.788-.113q-.338-.112-.562.338,0,.675.338.337t.563.113a6.031,6.031,0,0,1-4.163,1.462,7.208,7.208,0,0,0-4.613,1.688,3.724,3.724,0,0,0-1.8-.225q0-.675.45-.675a.917.917,0,0,0,.675-.225q-.225-.45-1.013-.112a3.908,3.908,0,0,0-1.237.788q.225.45.225-.112t.45-.113q.675.9-.675.788t-.675,1.013a2.67,2.67,0,0,0-2.025-.112,3.114,3.114,0,0,0-1.8,1.462q-.45-.9-.9-.562a1.165,1.165,0,0,1-1.125.113q-4.5,6.075-8.662,13.05A81.216,81.216,0,0,0,227.7-31.95a1.3,1.3,0,0,1,.9-.45.4.4,0,0,0,.45-.45,3.942,3.942,0,0,0,1.125-.562,8.449,8.449,0,0,0,.9-.788.547.547,0,0,0,.675.338q.45-.113.225-.788.45-.45.45.112t.45.338q.45,0,.337-.338t.338-.112q0-.45-.338-.337t-.113-.338a15.824,15.824,0,0,0,1.35-1.013q.675-.562,1.125-.112a1.386,1.386,0,0,1-.225.788,7.358,7.358,0,0,0-.45.787,7.723,7.723,0,0,0,2.25-2.25q.45.675.225.9a6.578,6.578,0,0,1-.675.563,7.344,7.344,0,0,0-.788.675q-.337.337-.112,1.237a3.683,3.683,0,0,0-1.687,1.237,3.683,3.683,0,0,1-1.687,1.238q0,1.35.675,1.575a1.025,1.025,0,0,0,.563-.562,1.025,1.025,0,0,1,.563-.562q.225.45-.45,1.237a6.746,6.746,0,0,1-1.35,1.238q0-.9-.45-.9-.45.45.113.9T232.2-27a3.841,3.841,0,0,1,1.238-.562,1.125,1.125,0,0,0,.787-1.462q.45.9,1.013.112a.71.71,0,0,1,1.237-.112,1.99,1.99,0,0,0-.562.9,1.99,1.99,0,0,1-.562.9.917.917,0,0,1,.225-.675q.225-.225,0-.675a1.773,1.773,0,0,0-.675,2.25q-1.575,1.35-3.488,2.812A10.336,10.336,0,0,1,227.7-21.6a5.406,5.406,0,0,1-6.075.338,9.513,9.513,0,0,1-4.5-3.938q-.45-.45-.45.113t-.45.337q-.45-.675-1.012-1.462t-1.012-.563q-.45-.45,0-.562t.225-.562q-.225-1.575-1.575-.675a1.89,1.89,0,0,0-.112-1.462.752.752,0,0,1,.112-1.013,17.785,17.785,0,0,1,1.35-8.888q1.8-4.162,3.6-7.987.45-.45.675,0a3.552,3.552,0,0,1,.675-2.362q.675-.788,1.35-1.688-1.575-1.8-3.375-3.487a8.764,8.764,0,0,1-2.475-4.388q.675.225.338-.112t-.338.112h-.675a26.928,26.928,0,0,1,2.925-2.925q0-.225-.113-.225t-.112.225q.225-.675,1.575-1.237a5.939,5.939,0,0,1,2.025-.562,7.614,7.614,0,0,1,2.7-1.35q1.575-.45,3.375-.9v-.9q.45,0,.338.338t.337.337q.45-.225.338-.562t.112-.337q.225,0,.225.45a7.745,7.745,0,0,0,1.462-1.35,1.355,1.355,0,0,1,1.913-.225,5.8,5.8,0,0,1,1.125-1.237.842.842,0,0,0,.225-1.237,11.024,11.024,0,0,0,1.912-2.588,6.487,6.487,0,0,1,2.137-2.363q0-.45.225-.562t0-.562q6.3-7.425,11.925-15.187a176.488,176.488,0,0,1,12.15-14.963,9.84,9.84,0,0,1,1.913-1.125q1.013-.45,2.138-.9a1.567,1.567,0,0,1,.675.113,1.567,1.567,0,0,0,.675.113.4.4,0,0,0,.45-.45.917.917,0,0,1,.225-.675q.225,0,.675.563t.675-.338a6.62,6.62,0,0,1,1.688.675,1.448,1.448,0,0,0,1.688-.225,4.756,4.756,0,0,0,3.375,3.15q-.225,1.575,1.125,1.688a1.31,1.31,0,0,1,1.35,1.463q-5.85,6.075-11.587,12.375A88.273,88.273,0,0,0,255.6-77.625a22.172,22.172,0,0,1,3.713-.788,7.543,7.543,0,0,0,3.263-1.012,7.054,7.054,0,0,0,4.837-.788,4.5,4.5,0,0,1,3.938-.562q.45,0,.563-.225a1.762,1.762,0,0,1,.337-.45l.45.45q.45-.225.112-.338T272.7-81.9q.45,0,.45.675a.4.4,0,0,0,.45-.45,1.288,1.288,0,0,0,1.462,0,3.984,3.984,0,0,1,1.237-.675,1.019,1.019,0,0,0,1.125.225,1.352,1.352,0,0,0,.9-.9q.675,0,.337.337t.337.563a1.3,1.3,0,0,0,.225-.9,3.994,3.994,0,0,0,1.462-.225q.563-.225.788.45a2.564,2.564,0,0,0,1.012-.562q.338-.337.788.338a2.167,2.167,0,0,0,1.575-1.8,1.861,1.861,0,0,1,1.8-1.575v-.9q.45.225.45.113t.45-.113v-1.35a.917.917,0,0,1,.675.225,1.386,1.386,0,0,0-.225-.787q-.225-.337.225-.787.45,0,.45.675a12.748,12.748,0,0,1,1.013-2.025,12.748,12.748,0,0,0,1.013-2.025.648.648,0,0,1,.45.225l4.95-6.3q2.475-3.15,4.95-6.075-.225,0,.45.675a2.824,2.824,0,0,0,.675-1.125,1.039,1.039,0,0,1,1.125-.675,18.734,18.734,0,0,0,.788-1.8,2.389,2.389,0,0,1,1.462-1.35,2,2,0,0,0-.225.9.721.721,0,0,0,.45.675q.45,0,.225-.562t0-.787q.675.45.788,0a1.99,1.99,0,0,1,.563-.9q-.45-.675-.675,0t-.675.45a7.838,7.838,0,0,1,3.038-2.812,15.642,15.642,0,0,1,3.938-1.463,5.769,5.769,0,0,0,2.137,1.35,13.645,13.645,0,0,1,2.363,1.125q-.45.9.112.9t.113.675q1.125-.45,1.35,0a1.45,1.45,0,0,0,.9.675,1.485,1.485,0,0,0,0,1.575q.45,0,.225-.562t.45-.113a1.3,1.3,0,0,1,.225,1.238,1.3,1.3,0,0,0,.225,1.238l-1.35.675a1.833,1.833,0,0,1-.45,1.35,7.376,7.376,0,0,0-.9,1.125,1.893,1.893,0,0,0-1.8.788A3.007,3.007,0,0,1,315-101.025a45.349,45.349,0,0,1-5.513,7.65,45.348,45.348,0,0,0-5.512,7.65q6.3-.9,14.288-1.8a130.617,130.617,0,0,1,14.512-.9v.675a4.369,4.369,0,0,1,3.6-.787,10.335,10.335,0,0,0,4.05-.113q0,.225.113.225t-.113.45q2.475-1.125,3.825-.338a3.166,3.166,0,0,0,3.15-.113A.917.917,0,0,0,347.625-87.75Zm-39.6-22.95q0-.45.563-.337t.113-.338a.624.624,0,0,0-.788.112Q307.575-110.925,308.025-110.7Zm-.225.45q.225.675.225,0T307.8-110.25Zm-2.925,3.375q0-.675-.45-.675Q304.425-106.875,304.875-106.875Zm-1.125,1.35a1.094,1.094,0,0,1,.225-.562q.225-.337-.225-.337a.648.648,0,0,0-.225.45Q303.525-105.525,303.75-105.525Zm-42.975-.675q-.45,0-.45.225Q260.775-106.425,260.775-106.2Zm83.7,18.45q-.45,0-.45.225Q344.475-87.975,344.475-87.75Zm7.2,3.6a16.446,16.446,0,0,1,1.688-1.125A3.007,3.007,0,0,0,354.6-86.85Q352.8-86.625,351.675-84.15Zm-7.875-.225a2.57,2.57,0,0,0,1.237-1.012q.563-.788.113-1.013a2.016,2.016,0,0,1-.675,1.013A2.016,2.016,0,0,0,343.8-84.375Zm7.875-1.125a.532.532,0,0,0,.563-.45q.113-.45-.337-.45a.458.458,0,0,1-.112.338A.89.89,0,0,0,351.675-85.5Zm-12.15-.45q.225.675.225,0T339.525-85.95Zm4.5.225q.225.675.225,0T344.025-85.725Zm5.85.45q0-.675-.45-.675Q349.425-85.725,349.875-85.275ZM342-84.6a1.094,1.094,0,0,1,.563.225q.338.225.337-.225-.45,0-.337-.338t-.112-.338a.2.2,0,0,1-.225.225Q342-85.05,342-84.6Zm-2.475,0q.225.675.225,0T339.525-84.6Zm5.4.675q.45.225.563-.45t-.337-.45q0,.45-.113.45T344.925-83.925Zm6.3-.9h-.9q-.45.675.337.563T351.225-84.825Zm-21.15.45q.225.675.225,0T330.075-84.375Zm10.575.9q.45,0,.675-.562T341.1-84.6q0,.45-.225.563T340.65-83.475Zm-12.6-.225q.45,0,.45-.225a.648.648,0,0,1,.225-.45q-.45-.225-.45.112A.763.763,0,0,1,328.05-83.7Zm3.825-.45q.225.675.225,0T331.875-84.15Zm1.8.675a1.427,1.427,0,0,0,.338-.675q.112-.45-.562-.225a.89.89,0,0,1-.113.563Q333.225-83.7,333.675-83.475Zm-20.25-.675q-.45.45.113.45T313.425-84.15Zm32.4,1.125a1.526,1.526,0,0,0,1.125-.45.532.532,0,0,1-.562-.45q-.113-.45-.563-.225-.45.45-.225.563T345.825-83.025Zm-4.05-.675Zm-27.45.225q.225.675.225,0T314.325-83.475ZM315.9-83.7v.225q-.9.9,0,.225T315.9-83.7Zm2.925.675q.45.225.45-.45t-.45-.225Zm2.25-.225q.675,0,.675-.45Q321.075-83.7,321.075-83.25Zm21.6,0h.45v-.45h-.45Zm-15.75.675q1.125-.45,1.125-.9Q326.925-83.475,326.925-82.575Zm8.55-.675a.735.735,0,0,0-.9-.225q-.225.45.337.563T335.475-83.25Zm1.8.225a.51.51,0,0,0,.563.112.52.52,0,0,0,.337-.562Q337.275-83.925,337.275-83.025Zm-11.025,0q-.225,1.125,0,.225T326.25-83.025Zm-19.35,1.35a.949.949,0,0,0,.788-.562q.338-.562-.112-.787.225.45-.338.562T306.9-81.675Zm16.65-.675h.675q0-.675-.225-.675a.2.2,0,0,1-.225.225Q323.55-82.8,323.55-82.35Zm2.025,0q0-.45.225-.225,0-.675-.45-.45A.917.917,0,0,0,325.575-82.35Zm6.3-.675q-.45,0-.45.225Q331.875-83.25,331.875-83.025Zm.9.225v.45h.675v-.675H333A.2.2,0,0,1,332.775-82.8Zm8.1,2.025a.912.912,0,0,1-.45-1.125,1.019,1.019,0,0,0-.225-1.125q-.675.225-.45,1.575T340.875-80.775ZM319.95-82.35h.45v-.45h-.45Zm1.575,0q.225.675.225,0T321.525-82.35ZM337.5-80.325q.9-.225,1.013-.9a8.883,8.883,0,0,1,.337-1.35q-1.125.225-1.013.788A2.392,2.392,0,0,1,337.5-80.325ZM308.7-81.9q.675,0,.675-.45Q308.7-82.35,308.7-81.9Zm9.45-.225q.225.45.337-.113T318.15-82.125Zm18.45,0q.225.675-.225.9a.721.721,0,0,0-.45.675q.225.45.9-.225-.675-.45.225-.787t.225-.787Q337.275-82.125,336.6-82.125Zm4.275.675q.9.45,1.35-.675a.735.735,0,0,0-.9-.225A.907.907,0,0,0,340.875-81.45ZM314.1-81.675h.45v-.45h-.45Zm14.175.225a1.727,1.727,0,0,1,.675-.225.648.648,0,0,0,.45-.225.671.671,0,0,0-.675-.112A.532.532,0,0,0,328.275-81.45Zm3.375-.225h.675q0-.675-.675-.45Zm2.925,0h.675q0-.675-.675-.45Zm-22.05.225q.675,0,.675-.45Q312.525-81.9,312.525-81.45Zm13.5-.225v.45h.45q0-.45.225-.225v-.45h-.45A.2.2,0,0,1,326.025-81.675Zm1.575,0a.36.36,0,0,0-.225-.337q-.225-.113-.225.337Zm-22.725.45h.45v-.45h-.45Zm19.8.225h.45q.225-.675-.225-.675A.917.917,0,0,1,324.675-81Zm-4.95-.225q.225.675.225,0T319.725-81.225ZM321.75-81q.9,0,.9-.45Q321.525-81.45,321.75-81Zm20.475.45q.45.225.563-.45t-.337-.45a.458.458,0,0,1-.113.337A.89.89,0,0,0,342.225-80.55Zm-25.2,0q0-.45.337-.337t.113-.338q-.45-.225-.675.112T317.025-80.55Zm1.8-.675V-81q-.9.9,0,.225T318.825-81.225ZM304.875-80.1h.45v-.45h-.45Zm8.1-.225q-.45,0-.45.225Q312.975-80.55,312.975-80.325Zm-12.825.9q.225.45.337-.113T300.15-79.425Zm6.525.675q.45,0,.45-.225a.648.648,0,0,1,.225-.45Q306.675-79.65,306.675-78.75Zm28.8-.45q.225.45.337-.113T335.475-79.2Zm-2.025.225q.225.675.225,0T333.45-78.975Zm1.125.45h.45v-.45h-.45Zm-8.55,0q.225.675.225,0T326.025-78.525Zm4.95-.225q-.45,0-.45.225Q330.975-78.975,330.975-78.75Zm-12.6,1.575a.36.36,0,0,0-.225-.338q-.225-.112-.225.338Zm2.25.225v.45h.45q0-.45.225-.225v-.45h-.45A.2.2,0,0,1,320.625-76.95Zm-3.15,1.575a4.675,4.675,0,0,1,1.688-.113q.563.113.788-.562a.742.742,0,0,0-.788,0,1.841,1.841,0,0,1-1.013.225,1.094,1.094,0,0,1,.225-.562q.225-.337-.225-.337ZM312.3-75.6a.52.52,0,0,0,.563-.338,1.412,1.412,0,0,1,.338-.562A.8.8,0,0,0,312.3-75.6Zm3.825.675a.735.735,0,0,1,.225-.9q.45-.45-.45-.45a7.355,7.355,0,0,1-.45.787Q315.225-75.15,316.125-74.925Zm-1.575-.225q.225,0,.225.113t.45.112q0-.675-.45-.675,0,.225-.112.225T314.55-75.15ZM305.1-73.8q.45,0,.788-.675t-.113-.9a2.618,2.618,0,0,1-.45.675A1.3,1.3,0,0,0,305.1-73.8Zm1.8-1.575q-.45,0-.45.225Q306.9-75.6,306.9-75.375Zm.225.675q.225.675.225,0T307.125-74.7Zm.9.45q.45.225.45-.45t-.45-.225Zm2.025,0q.675,0,.675-.45Q310.05-74.7,310.05-74.25Zm-7.65,0q-.225,1.125,0,.225T302.4-74.25Zm7.425-.225q-.45,0-.45.225Q309.825-74.7,309.825-74.475Zm-7.425,1.8q0-.675-.45-.675Q301.95-72.675,302.4-72.675Zm-6.075-.225q.225.675.225,0T296.325-72.9ZM294.3-70.875q.225.675.225,0T294.3-70.875ZM268.2-69.75q.225.675.225,0T268.2-69.75Zm-38.7,1.575q.225.675.225,0T229.5-68.175Zm31.05-.225q-.45,0-.45.225Q260.55-68.625,260.55-68.4Zm6.075,2.025q1.8-.225,3.6-.338A6.411,6.411,0,0,0,273.6-67.95a20.154,20.154,0,0,1-3.712.563A6.453,6.453,0,0,0,266.625-66.375Zm-41.4.675q.225.675.225,0T225.225-65.7Zm-2.475,1.35a.532.532,0,0,1,.45-.562q.45-.112,0-.337,0,.225-.45.337T222.75-64.35Zm34.65.225a3.667,3.667,0,0,0,2.7-.9,2.79,2.79,0,0,0-1.462-.112A1.291,1.291,0,0,0,257.4-64.125Zm-36,.225q0-.45.225-.45a.2.2,0,0,0,.225-.225q-.45-.225-.675.112T221.4-63.9Zm34.2.225q.225.225.675,0a2,2,0,0,1,.9-.225q.225-.9-.675-.675T255.6-63.675Zm-37.8.9a3.5,3.5,0,0,1,1.462-.562A2.116,2.116,0,0,0,220.5-63.9a2.05,2.05,0,0,0-1.575.225A2.435,2.435,0,0,0,217.8-62.775Zm37.575-.45q0-.9-.45-.9v.675Q254.925-63,255.375-63.225Zm-2.7.225q.9,0,.9-.45-.225-.45-.562-.225A.757.757,0,0,0,252.675-63Zm1.125-.225h.45v-.45h-.45Zm-5.175,1.575q.45-.45-.225-.562t-.675.337a.458.458,0,0,1,.338.112A.89.89,0,0,0,248.625-61.65Zm-1.575,0q-.9,0-.9.225a.763.763,0,0,0,.563.225Q247.05-61.2,247.05-61.65Zm-1.125.45q-.675,0-.675.225a.367.367,0,0,1,.45-.112Q245.925-60.975,245.925-61.2Zm-2.025.45q-.45,0-.45.225Q243.9-60.975,243.9-60.75Zm39.375,5.175q.225.675.225,0T283.275-55.575ZM234.9-33.525q0-.45.338-.45t.112-.45a.445.445,0,0,0-.675.225A.445.445,0,0,0,234.9-33.525Zm-2.025.45h.45v-.45h-.45Zm-.45,1.35q.225.675.225,0T232.425-31.725Zm-.675,1.575q-.675,0-.675.45a1.019,1.019,0,0,1,1.125.225q0-1.575-.45-1.575Zm22.95-.675q.225.675.225,0T254.7-30.825Zm1.125.675q.225.675.225,0T255.825-30.15ZM230.4-28.8q-.675-.225-.337.113t.337-.113q.45-.225.113-.562T230.4-28.8Zm.45.225q.225.45.338-.112T230.85-28.575Zm.675.675a.36.36,0,0,0-.225-.337q-.225-.113-.225.337Zm-2.025,0q-.45,0-.45.225Q229.5-28.125,229.5-27.9Zm4.5,1.575q0-.45.337-.45t.113-.45a.445.445,0,0,0-.675.225A.445.445,0,0,0,234-26.325Zm-3.15.225q0-.45.338-.45t.337-.45a.577.577,0,0,0-.787.225Q230.4-26.325,230.85-26.1Zm-5.175,4.95h.45v-.45h-.45Zm121.95-66.6q0-.675.225-.675.45-.225.338.338T347.625-87.75Zm9.45.675q.45-.45.45.225t-.45.45Zm.9.9q.225-.675.225,0T357.975-86.175Zm-.675.225-.45.9a.445.445,0,0,1-.225-.675A.445.445,0,0,1,357.3-85.95Zm.45.225q.45,0,.45.9h-.675a.89.89,0,0,1,.113-.562A.458.458,0,0,0,357.75-85.725ZM348.975-84.6q.675.225.112.787t-.112,1.688a1.3,1.3,0,0,0-.9-.225q.225-.675.45-1.237T348.975-84.6Zm4.5.675q0-.225.45-.225Q353.925-84.375,353.475-83.925Zm1.35,0q.225-.675.337,0T354.825-83.925ZM347.175-81a1.386,1.386,0,0,1,.225-.787.742.742,0,0,0,0-.788q.225-.225.45.675t1.125.225Q348.975-81,347.175-81Zm2.475-1.575q0-.45.225-.337a.36.36,0,0,1,.225.337Zm2.25-.225q.225.45-.112.338t-.337.338q-.45-.225-.225-.562T351.9-82.8Zm-75.6.45q0-.45.338-.113T276.3-82.35Zm-2.7.675a.2.2,0,0,1-.225-.225Q273.375-82.125,273.6-81.675Zm73.125,1.35q0,.675-.9.675Q345.825-80.55,346.725-80.325Zm-3.825.675q.45,0,.337.563a1.546,1.546,0,0,1-.337.788q-.675-.225-.337-.562A1.079,1.079,0,0,0,342.9-79.65Zm-4.725.9q.675-.225.675.9Q338.175-78.525,338.175-78.75Zm-.675,1.125q.45-.675.337-.112T337.5-77.625Zm-2.475.225q0-.225.45-.225Q335.475-77.85,335.025-77.4Zm-7.875.675q.45.675-.112.787a4.016,4.016,0,0,0-1.013.338v-.675a1.025,1.025,0,0,1,.788-.113q.338.113.112-.337ZM317.025-73.35q.45-.675.337-.113T317.025-73.35Zm-5.4.45q.45-.9,0-.112T311.625-72.9Zm3.375,0q.225-.675.225,0T315-72.9Zm-7.2.45h.45V-72q-.225-.225-.225.225h-.45v-.45Zm.9,0q.675-.225.675.45H308.7Zm-2.25.45q.225-.675.225,0T306.45-72Zm-3.6.45q.45.45.675.112t.675-.112a2.025,2.025,0,0,1-1.8.675q0-.45.225-.45A.2.2,0,0,0,302.85-71.55ZM256.725-39.375a.4.4,0,0,1-.45-.45h.45ZM238.5-39.15q.225-.675.225,0T238.5-39.15Zm-.675.45q.9,0,.45.563t-.9.337q-.225-.675.225-.562T237.825-38.7Zm-1.125.675q.225-.675.225,0T236.7-38.025Zm.45.9q-.45-.225-.113-.562T237.15-37.125Zm-1.125.225h.45v.45q-.225-.225-.225.225h-.45v-.45Zm-6.975,4.05h-.45a.8.8,0,0,1,.9-.9q0,.45-.338.45T229.05-32.85Zm5.85.45v-.675h.675q.225.45-.113.45A.763.763,0,0,0,234.9-32.4Zm1.125.225V-32.4q.9-.225,0,.45T236.025-32.175Zm-.9.9q.225-.675.225,0T235.125-31.275Zm-1.575.225q0,.45-.675.45Q232.875-31.05,233.55-31.05Zm2.925,2.025q-.225-.9.225-.9t.225.9Zm-23.175.9q0-.45.225-.337a.36.36,0,0,1,.225.337Zm43.425,2.475q.225-.675.225,0T256.725-25.65Z" transform="translate(1491.244 745.333)" fill="#7cffe1"></path>
      <path id="Path_661" data-name="Path 661" d="M.166,0h23.1L27.5-25.261H40.218c19.611,0,34.4-11.3,37.393-29.748C80.6-73.124,69.967-85.09,51.021-85.09H14.292ZM30.5-43.21,34.4-66.643h8.143c8.143,0,12.132,4.321,10.969,11.633s-6.648,11.8-14.957,11.8ZM71.682,0h57.5l3.158-18.613h-34.4L108.909-85.09h-23.1Zm83.648,0,7.645-16.287H191.02L193.222,0h24.929l-13.96-85.09H172.614L130.4,0Zm15.747-33.571,13.171-28.086h.665l3.781,28.086ZM216-85.09l21.6,58.333L233.122,0h22.934l4.487-26.757L301.427-85.09h-25.76L253.4-50.522h-.831l-10.8-34.568ZM289.515,0h61.158l3.158-18.613H315.773L318.1-33.238h35.066l3.158-18.613H321.258l2.327-14.625h38.224l3.158-18.613H303.641Zm67.528,0h23.1l4.695-28.086h7.977L403.078,0h25.095L416.165-31.743c9.764-4.363,16.578-12.631,18.489-24.43,2.991-18.115-7.811-28.917-26.757-28.917H371.169ZM387.83-46.035l3.448-20.608h8.143c7.977,0,12.3,3.158,11.135,10.47s-6.481,10.138-14.625,10.138ZM486.56-58.5h22.1c2.825-16.785-8.31-27.754-28.917-27.754-20.275,0-36.23,10.8-38.889,27.089-2.16,13.3,5.817,20.608,20.275,23.932l8.143,1.828c9.141,1.994,12.132,4.487,11.467,8.31-.665,4.155-4.986,7.146-12.464,7.146-8.808,0-13.461-4.155-12.464-11.966H433.877C430.387-8.642,443.35,1,465.454,1c21.6,0,36.064-9.307,38.889-26.092,2.16-12.963-4.155-22.1-22.27-26.092l-6.648-1.5c-7.811-1.662-11.135-4.155-10.138-8.143.665-3.822,4.155-6.481,11.3-6.481C484.067-67.307,487.058-63.984,486.56-58.5Z" transform="translate(952.244 724.333)" fill="#fff"></path>
    </g>
  </g>
</svg>
